<svg width="4096" height="4318" viewBox="0 0 4096 4318" fill="none" xmlns="http://www.w3.org/2000/svg">
<path d="M2711.96 0.000350952H4095V4318H206.492L2711.96 0.000350952Z" fill="white"/>
<path d="M2524.88 2867.41C2537.19 2854.82 2548.95 2842.02 2560.12 2829.12L2524.88 2867.41Z" fill="#ECE9D2"/>
<path d="M2421.72 2886.28L2560.55 2828.61C2615.98 2764.43 2657.19 2697.85 2684.32 2642.39C2621.4 2619.32 2495.58 2656.02 2495.58 2656.02C2619.52 2608.74 2664.96 2607.68 2705.63 2592.35C2737.41 2506.36 2718.46 2403.45 2714.92 2317.29C2588.18 2405.5 2550.4 2418.68 2550.4 2418.68C2631.1 2373.29 2671.16 2317.36 2712.57 2280.26C2694.72 2064.44 2611.32 1983.82 2611.32 1983.82C2551.36 2011.12 2429.88 2089.53 2381.88 2117.97C2371.49 2216.57 2380.22 2343.58 2380.22 2343.58C2361.65 2283.66 2354.79 2197.9 2352.31 2136.04C2283.99 2178.98 2295.75 2172.77 2249.55 2218.94C2234.97 2318.98 2260.39 2499 2260.39 2499C2233.03 2427.72 2219.63 2317.76 2213.98 2257.03C2139.69 2342.49 2095.69 2434.12 2068.02 2534.01C2086.14 2624.08 2115.43 2715.83 2115.43 2715.83C2093.35 2677.44 2073.32 2625.97 2057.08 2577.48C2030.83 2692.78 2022.69 2818.95 2012.59 2958.97L2041.74 3084.11L2212.06 3055.88C2340.43 3021.98 2444.12 2949.65 2523.79 2868.5L2421.72 2886.28" fill="#ECE9D2"/>
<path d="M2222.92 2860.83C2200.73 2896.08 2177.41 2930.7 2151.71 2963.72C2126.1 2996.76 2097.69 3028.1 2064.19 3054.67L2062.5 3053.01C2094.66 3025.47 2121.57 2993.39 2145.7 2959.65C2169.91 2925.91 2191.73 2890.64 2212.43 2854.74C2254.05 2783.06 2291.35 2708.92 2328.38 2634.62C2365.48 2560.35 2400.15 2484.7 2441.25 2412.32C2461.75 2376.11 2482.88 2340.21 2505.6 2305.24C2528.15 2270.19 2552.36 2236.09 2578.76 2203.57L2580.8 2204.88C2539.34 2276.97 2500.65 2350.14 2462.63 2423.83C2424.82 2497.6 2384.61 2570.23 2345.6 2643.61C2306.39 2716.85 2266.84 2790.05 2222.92 2860.83" fill="#FCF4FA"/>
<path d="M2575.95 3359.83C2715.95 3350.74 2775.63 3356.3 2820.96 3341.72C2874.03 3249.16 2905.09 3150.54 2922.02 3055.87C2771.14 3145.69 2658.82 3134.53 2658.82 3134.53C2772 3121.97 2877.18 3053.56 2928.45 3015.15C2961.68 2777.55 2911.59 2575.29 2911.59 2575.29C2843.64 2601.97 2782.1 2629.56 2726.12 2658.13C2691.96 2765.68 2670.59 2905.42 2670.59 2905.42C2665.86 2838.7 2679.31 2744.3 2691.54 2676.33C2611.3 2719.7 2543.22 2765.3 2484.88 2813.41C2446.08 2922.3 2429.15 3121.07 2429.15 3121.07C2418.14 3041.42 2430.65 2920.13 2439.35 2853.24C2342.85 2942.9 2275.92 3040.98 2223.74 3148.99C2220.8 3248.73 2228.91 3350.93 2228.91 3350.93C2215.45 3307.63 2207.21 3250.11 2202.14 3196.07C2147.73 3321.05 2109.3 3458.95 2065.53 3611.93V3750.72L2246.74 3729.03C2516.51 3670.7 2684.35 3544.16 2787.18 3395.42C2728.23 3366.7 2575.95 3359.83 2575.95 3359.83Z" fill="#DFCAA1"/>
<path d="M2094.22 3717.74C2133.73 3689.31 2168.95 3655.6 2201.73 3619.91C2234.58 3584.24 2265.36 3546.75 2295.12 3508.52C2354.87 3432.19 2410.78 3352.93 2466.44 3273.48C2522.16 3194.07 2575.73 3113 2635.11 3035.87C2664.75 2997.29 2694.96 2959.08 2726.58 2921.98C2758.06 2884.77 2790.99 2848.69 2825.79 2814.48L2827.58 2816.02C2767.9 2892.82 2710.81 2970.93 2654.27 3049.66C2597.94 3128.49 2539.4 3205.94 2481.94 3284.26C2424.28 3362.44 2366.3 3440.55 2304.42 3515.78C2273.28 3553.22 2241.12 3589.9 2206.92 3624.71C2172.8 3659.54 2136.21 3692.36 2095.56 3719.67L2094.22 3717.74" fill="#C8B36A"/>
<path d="M670.575 2591.76C665.172 2577.54 659.453 2563.64 653.48 2550.1L670.575 2591.76Z" fill="#ECE9D2"/>
<path d="M653.194 2672.11L653.242 2549.56C623.484 2482.27 587.705 2423.83 555.735 2380.17C520.113 2413.76 508.82 2517.88 508.82 2517.88C511.888 2410.35 524.791 2378.19 525.956 2342.99C473.294 2282.47 393.135 2249.78 329.721 2213.82C355.418 2341.56 353.589 2373.78 353.589 2373.78C345.028 2297.25 316.605 2244.37 302.229 2198.93C140.712 2115.12 57.2852 2137.32 57.2852 2137.32C58.9974 2191.32 79.181 2311 85.3177 2357.17C153.533 2408.4 248.055 2458.96 248.055 2458.96C199.112 2445.19 135.007 2411.72 89.4956 2385.85C100.009 2452.65 99.0634 2441.68 118.562 2494.5C186.558 2549.29 324.447 2611.86 324.447 2611.86C264.649 2599.14 181.058 2559.45 135.424 2536.3C174.901 2626.23 227.96 2697.78 291.915 2761.63C362.527 2789.17 437.728 2809.67 437.728 2809.67C403.305 2807.95 360.041 2798.97 320.071 2788.66C395.593 2858.4 484.431 2920.35 582.705 2989.85L682.015 3025.34L712.835 2893.97C726.923 2789.33 705.787 2684.75 671.043 2592.98L653.194 2672.11" fill="#ECE9D2"/>
<path d="M574.991 2799.4C593.811 2830.59 611.844 2862.3 628.008 2894.95C644.199 2927.55 658.335 2961.34 667.478 2996.55L665.759 2996.99C655.52 2962.29 640.404 2929.21 623.248 2897.33C606.126 2865.39 587.168 2834.43 567.422 2804C528.076 2742.99 485.66 2683.91 443.04 2624.94C400.467 2565.94 356.161 2508.01 316.15 2447.06C296.131 2416.62 276.509 2385.87 258.044 2354.43C239.477 2323.06 222.08 2290.97 206.492 2258.05L208.054 2257.21C247.743 2318.28 289.035 2377.89 330.916 2437.29C372.914 2496.56 413.37 2557.01 454.724 2616.94C495.92 2676.96 536.986 2737.19 574.991 2799.4" fill="#FCF4FA"/>
<path d="M599.135 3183.85C634.701 3059.1 658.323 3008.87 659.392 2964.84C592.916 2889.74 514.12 2831.89 434.46 2787.59C467.944 2947.03 422.858 3041.33 422.858 3041.33C446.932 2938.87 418.393 2825.92 399.928 2769.28C197.112 2666.16 0 2646.62 0 2646.62C2.71901 2714.11 8.25992 2776.31 16.417 2833.97C102.247 2897.31 220.953 2959.55 220.953 2959.55C159.621 2942.83 79.1185 2901.64 21.9439 2869.78C35.7992 2953.19 55.4694 3026.7 80.4131 3092.52C166.004 3160.31 339.062 3237.11 339.062 3237.11C264.162 3221.83 159.244 3173.07 101.939 3144.61C152.258 3256.62 219.357 3345.53 299.982 3424.7C388.559 3458.4 482.786 3483.24 482.786 3483.24C439.741 3481.44 385.552 3470.66 335.48 3458.2C430.638 3544.59 542.364 3621.12 665.96 3707L790.5 3750.33L827.621 3585.78C859.51 3332.67 798.376 3147.01 697.02 3011.02C652.851 3053.39 599.135 3183.85 599.135 3183.85" fill="#DFCAA1"/>
<path d="M769.856 3715.06C756.686 3671.78 737.433 3630.58 715.647 3590.89C693.895 3551.16 669.869 3512.65 644.856 3474.79C595.024 3398.94 541.356 3325.51 487.448 3252.23C433.595 3178.92 377.592 3106.96 326.924 3031.18C301.555 2993.31 276.707 2955.07 253.284 2915.96C229.731 2876.94 207.643 2837 187.809 2796.01L189.754 2794.94C240.025 2870.88 292.282 2944.98 345.272 3018.8C398.412 3092.46 449.635 3167.61 501.968 3242.11C554.109 3316.73 606.092 3391.6 654.267 3468.96C678.135 3507.77 701.011 3547.23 721.571 3587.88C742.166 3628.46 760.192 3670.57 772 3714.49L769.856 3715.06" fill="#C8B36A"/>
<path d="M2406.57 1336.16C2420.74 1324.66 2434.49 1312.96 2447.76 1301.11L2406.57 1336.16Z" fill="#ECE9D2"/>
<path d="M2312.53 1350.49L2448.29 1300.63C2514.2 1241.73 2568.57 1180.06 2607.67 1128.43C2560.15 1104.41 2441.55 1134.85 2441.55 1134.85C2561.54 1094.31 2600.9 1094.88 2640.23 1081.76C2692.02 1001.38 2705.01 903.207 2726.48 821.435C2592.43 900.65 2556.21 911.836 2556.21 911.836C2638.5 871.611 2688.84 819.991 2735 786.27C2781.07 581.152 2732.32 501.876 2732.32 501.876C2673 525.686 2546.27 595.786 2496.91 621.08C2459.92 714.159 2431.29 834.807 2431.29 834.807C2432.38 777.391 2450.89 695.896 2466.36 637.178C2395.4 675.514 2407.28 670.042 2354.43 712.196C2313.43 806.484 2284.06 977.942 2284.06 977.942C2280.83 909.455 2300.59 804.804 2313.01 747.064C2224.84 825.476 2160.95 910.79 2108.73 1004.48C2098.68 1090.45 2097.75 1178.41 2097.75 1178.41C2089.69 1141.27 2087.11 1091.81 2086.95 1045.3C2031.57 1153.65 1988.68 1272.92 1940.15 1405.26L1929.61 1524.84L2084.05 1503.97C2204.04 1476.27 2313.76 1411.31 2405.34 1337.17L2312.53 1350.49" fill="#ECE9D2"/>
<path d="M2148.9 1319.53C2119.8 1352.16 2089.89 1384.16 2058.41 1414.57C2026.99 1444.98 1993.65 1473.71 1957.3 1497.72L1956.31 1496.09C1991.8 1471.11 2024.06 1441.64 2054.4 1410.49C2084.81 1379.36 2113.61 1346.7 2141.62 1313.39C2197.8 1246.9 2250.95 1177.94 2303.93 1108.81C2356.95 1039.71 2408.27 969.222 2464.21 902.05C2492.13 868.451 2520.51 835.161 2549.99 802.81C2579.36 770.378 2609.86 738.897 2641.81 708.995L2643.2 710.304C2587.04 777.186 2532.96 845.181 2479.31 913.695C2425.82 982.297 2370.58 1049.73 2316.17 1117.92C2261.62 1185.97 2206.79 1253.97 2148.9 1319.53" fill="#FCF4FA"/>
<path d="M2200.39 809.659C2280.48 715.048 2318.62 678.305 2339.61 643.248C2332.1 573.539 2308.8 515.86 2278.72 468.882C2226.42 601.242 2154.33 670.128 2154.33 670.128C2216.86 591.668 2250.85 497.205 2265.27 449.221C2184.2 337.351 2068.22 293.146 2068.22 293.146C2038.82 347.512 2013.64 398.067 1992.22 445.362C2017.44 508.459 2064.01 575.442 2064.01 575.442C2032.83 553.184 2000.77 508.573 1979.21 474.799C1949.53 543.516 1928.1 605.155 1913.56 661.417C1936.57 728.043 2010.9 814.551 2010.9 814.551C1970.45 791.476 1926.4 737.259 1903.19 706.189C1883.43 803.068 1884.98 883.902 1899.6 958.907C1940.22 998.7 1988.53 1032.23 1988.53 1032.23C1962.06 1024.55 1932.67 1008.08 1906.66 990.847C1927.16 1073.74 1962.71 1151.14 2001.49 1237.74L2060.48 1290.46L2159.91 1164.23C2296.87 966.43 2343.73 809.079 2342.17 685.638C2294.62 713.112 2200.39 809.659 2200.39 809.659" fill="#DFCAA1"/>
<path d="M2063.66 1259.25C2075.27 1222.73 2082.06 1186.99 2086.54 1152.09C2091.08 1117.15 2093.6 1082.88 2095.2 1048.97C2098.58 981.08 2098.42 914.576 2098.02 848.153C2097.69 781.717 2095.36 716.043 2098.19 648.081C2099.56 614.131 2101.43 579.952 2104.62 545.273C2107.68 510.648 2112.1 475.503 2118.42 439.846L2120.15 439.273C2117.01 507.295 2115.97 574.129 2115.53 640.855C2115.25 707.474 2113.08 775.004 2111.9 842.169C2110.55 909.395 2108.99 976.816 2103.86 1045.67C2101.1 1080.17 2097.4 1115.05 2091.69 1150.53C2086.04 1185.98 2078.05 1222.27 2065.28 1259.11L2063.66 1259.25" fill="#C8B36A"/>
<path d="M2035.19 781.917H1932.25C2077.22 781.917 2194.75 897.687 2194.75 1040.5V3537.77C2194.75 3680.58 2077.22 3796.36 1932.25 3796.36H2035.19C2180.16 3796.36 2297.68 3680.58 2297.68 3537.77V1040.5C2297.68 897.687 2180.16 781.917 2035.19 781.917" fill="#313132"/>
<path d="M1932.26 3796.36H859.608C714.637 3796.36 597.117 3680.58 597.117 3537.77V1040.5C597.117 897.687 714.637 781.917 859.608 781.917H1932.26C2077.23 781.917 2194.75 897.687 2194.75 1040.5V3537.77C2194.75 3680.58 2077.23 3796.36 1932.26 3796.36" fill="#E1B238"/>
<path d="M2054.84 3455H737.026C694.974 3455 660.887 3421.41 660.887 3379.99V1043.24C660.887 1001.81 694.974 968.227 737.026 968.227H2054.84C2096.88 968.227 2130.98 1001.81 2130.98 1043.24V3379.99C2130.98 3421.41 2096.88 3455 2054.84 3455Z" fill="white"/>
<path d="M1539.08 908.996H1252.79C1236.98 908.996 1224.16 896.366 1224.16 880.787C1224.16 865.216 1236.98 852.592 1252.79 852.592H1539.08C1554.89 852.592 1567.71 865.216 1567.71 880.787C1567.71 896.366 1554.89 908.996 1539.08 908.996Z" fill="#E0D6B2"/>
<path d="M1481.67 3688.57H1310.19C1270.49 3688.57 1238.32 3656.88 1238.32 3617.78C1238.32 3578.68 1270.49 3546.98 1310.19 3546.98H1481.67C1521.36 3546.98 1553.54 3578.68 1553.54 3617.78C1553.54 3656.88 1521.36 3688.57 1481.67 3688.57" fill="#E0D6B2"/>
<path d="M1987.03 1302.18H843.457V1137.3H1987.03V1302.18Z" fill="#E0D6B2"/>
<path d="M1987.03 1646.89H843.457V1482H1987.03V1646.89" fill="#E0D6B2"/>
<path d="M1598.34 1991.59H843.457V1826.71H1598.34V1991.59" fill="#E0D6B2"/>
<path d="M2693.89 3706.4C2688.46 3725.94 2686.03 3747.36 2694.55 3765.45C2712.1 3802.69 2764.28 3807.38 2806.74 3802.73C2922.21 3790.08 3034.67 3747.06 3150.53 3747.34C3235.81 3747.55 3318.76 3771.33 3403.89 3774.53C3489.03 3777.74 3584.33 3754.37 3632.76 3684.94C3652.56 3656.56 3661.34 3615.29 3637.65 3591.08C3623.76 3576.88 3602.48 3572.4 3582.39 3569.25C3394.96 3539.83 3204.33 3568.31 3015.25 3565.65C2953.61 3564.79 2894.81 3534.16 2834.56 3556.43C2767.88 3581.08 2712.4 3639.67 2693.89 3706.4" fill="#D3DCF2"/>
<path d="M2334.75 2714.79L1310.1 3297.55C1256.61 3327.98 1188.19 3309.93 1157.31 3257.22L828.665 2696.47C797.777 2643.77 816.105 2576.38 869.608 2545.96L1894.25 1963.2C1947.74 1932.77 2016.15 1950.82 2047.04 2003.53L2375.68 2564.27C2406.57 2616.97 2388.24 2684.36 2334.75 2714.79" fill="#FAC715"/>
<path d="M1208.35 2611.11C1197.82 2617.1 1194.2 2630.41 1200.28 2640.79L1219.15 2672.99L1294.53 2630.12L1264.62 2579.1L1208.35 2611.11" fill="white"/>
<path d="M1116.4 2731.44L1086.5 2680.42L1009.21 2724.37L1039.11 2775.39L1116.4 2731.44Z" fill="white"/>
<path d="M1163.1 2790.02L1247.31 2742.13L1191.01 2646.06C1181.97 2630.65 1187.35 2610.87 1203.01 2601.97L1259.25 2569.99C1241.17 2539.9 1201.85 2529.67 1171.03 2547.19L1058.36 2611.28L1163.1 2790.02" fill="white"/>
<path d="M1224.52 2682.14L1256.59 2736.86L1275.79 2725.94C1306.61 2708.41 1317.26 2669.75 1299.85 2639.29L1224.52 2682.14" fill="white"/>
<path d="M1081.14 2671.29L1049.06 2616.56L1027.95 2628.57C997.136 2646.09 986.472 2684.75 1003.88 2715.21L1081.14 2671.29Z" fill="white"/>
<path d="M1121.76 2740.57L1044.51 2784.52C1062.59 2814.6 1101.91 2824.84 1132.73 2807.31L1153.84 2795.31L1121.76 2740.57" fill="white"/>
<path d="M1995.85 2197.24C1967.43 2148.75 1904.48 2132.14 1855.25 2160.13C1806.02 2188.13 1789.16 2250.14 1817.59 2298.63C1846 2347.12 1908.95 2363.74 1958.17 2335.74C2007.4 2307.74 2024.27 2245.73 1995.85 2197.24" fill="white"/>
<path d="M1885.1 2260.23C1856.68 2211.73 1793.74 2195.12 1744.51 2223.12C1695.29 2251.11 1678.42 2313.12 1706.84 2361.61C1735.26 2410.11 1798.21 2426.73 1847.43 2398.73C1896.66 2370.73 1913.53 2308.72 1885.1 2260.23" fill="#0085FF"/>
<path d="M1267.43 3025.32L1206.08 3060.21L1170.66 2999.78L1232.01 2964.89L1267.43 3025.32Z" fill="white"/>
<path d="M1673.09 2969.5L1282.97 3191.38L1247.55 3130.95L1637.66 2909.06L1673.09 2969.5" fill="white"/>
<path d="M1377.03 2962.99L1315.68 2997.88L1280.26 2937.44L1341.61 2902.56L1377.03 2962.99" fill="white"/>
<path d="M1486.63 2900.66L1425.27 2935.56L1389.85 2875.12L1451.2 2840.23L1486.63 2900.66Z" fill="white"/>
<path d="M1596.2 2838.33L1534.85 2873.23L1499.43 2812.79L1560.78 2777.9L1596.2 2838.33Z" fill="white"/>
<path d="M1705.8 2776L1644.45 2810.89L1609.02 2750.46L1670.38 2715.57L1705.8 2776Z" fill="white"/>
<path d="M1977.86 2621.27L1916.51 2656.16L1881.09 2595.72L1942.44 2560.83L1977.86 2621.27" fill="white"/>
<path d="M2067.01 2570.57L2005.66 2605.46L1970.24 2545.02L2031.58 2510.13L2067.01 2570.57Z" fill="white"/>
<path d="M2156.14 2519.88L2094.79 2554.77L2059.37 2494.33L2120.72 2459.44L2156.14 2519.88Z" fill="white"/>
<path d="M2683.85 1475.28C2699.73 1505.71 2696.81 1547.8 2725.3 1568.88C2753.78 1589.97 2794.8 1597.66 2827.29 1582.57C2829.56 1605.06 2833.52 1621.46 2832.09 1645.36C2830.73 1668.18 2876.34 1712.02 2900.01 1708.49C2922.52 1705.12 2960.15 1657.27 2966.02 1636.51C2971.88 1615.74 2978.14 1617.95 2973.37 1596.94C2944.84 1471.38 2951.74 1485.21 2852.84 1404.1C2813.1 1371.52 2722.06 1314.46 2669.11 1323.16C2611.15 1332.69 2661.86 1433.1 2683.85 1475.28Z" fill="white"/>
<path d="M2283.76 2223.86C2283.76 2223.86 2195.91 2225.24 2158.47 2230.06C2129.48 2233.79 2118.84 2245.18 2118.84 2245.18C2118.84 2245.18 2116.23 2267.82 2171.23 2263.86C2198.91 2261.87 2204.75 2273.63 2204.75 2273.63L2232.37 2320.76C2232.37 2320.76 2289.34 2280.16 2303.63 2263.86C2317.92 2247.56 2283.76 2223.86 2283.76 2223.86" fill="white"/>
<path d="M2799.54 1636.5C2773.2 1648.71 2669.83 1713.2 2655.91 1737.82C2637.03 1771.19 2558.4 2034.99 2548.66 2047.34C2538.9 2059.69 2265.9 2216.45 2265.9 2216.45L2310 2272.3C2310 2272.3 2590.02 2157.79 2646.16 2120.07C2682.26 2095.8 2743.9 1908.57 2743.9 1908.57C2743.9 1908.57 2781.77 1791.71 2783.03 1763.37C2784.28 1735.02 2799.54 1636.5 2799.54 1636.5" fill="#F0B138"/>
<path d="M2684.68 1710.54C2722.93 1683.39 2832.08 1617.68 2831.61 1618.87C2840.5 1680.56 2897.92 1695.76 2897.92 1695.76C2936.93 1680.67 2972.51 1593.32 2972.51 1593.32C2972.51 1593.32 3127.18 1621.13 3173.28 1671.41C3215.62 1717.59 3155.09 1954.35 3156.28 2034.12C3157.2 2096.48 3183.9 2221.25 3182.44 2316.29C3066.83 2347.85 2823.91 2325.16 2823.91 2325.16C2823.91 2325.16 2823.91 2240.09 2811.37 2183.83C2798.84 2127.57 2752.4 1936.64 2752.4 1936.64C2713.29 1782.07 2701.27 1826.28 2684.68 1710.54" fill="#F0BF41"/>
<path d="M3028.67 3608.05L2938.2 3608.06L2940.18 3641.62C2940.18 3641.62 3029.67 3660.94 3031.43 3649.33C3033.65 3634.68 3028.67 3608.05 3028.67 3608.05Z" fill="#0085FF"/>
<path d="M3033.31 3725.06L2959.77 3722.89L2951.76 3706.99C2951.76 3706.99 2921.54 3728.34 2883.79 3728.34C2821.68 3728.34 2752.58 3728.34 2752.58 3728.34C2752.58 3728.34 2744.66 3641.54 2857.02 3641.54C2866.38 3641.54 2908.94 3653.16 2916.7 3653.04C2926.47 3652.89 2934.72 3641.35 2940.2 3641.62C2964.15 3642.79 3008.16 3641.54 3032.67 3641.54C3032.67 3641.54 3046.22 3707.86 3033.31 3725.06" fill="#313132"/>
<path d="M3360.6 3599.39L3270.14 3599.4L3272.12 3632.95C3272.12 3632.95 3361.6 3652.28 3363.36 3640.66C3365.58 3626.02 3360.6 3599.39 3360.6 3599.39Z" fill="#0085FF"/>
<path d="M3365.24 3716.4L3291.69 3714.23L3283.68 3698.32C3283.68 3698.32 3253.45 3719.67 3215.71 3719.67C3153.61 3719.67 3084.5 3719.67 3084.5 3719.67C3084.5 3719.67 3076.59 3632.88 3188.93 3632.88C3198.3 3632.88 3240.86 3644.49 3248.62 3644.37C3258.39 3644.23 3266.64 3632.68 3272.12 3632.95C3296.07 3634.12 3340.08 3632.88 3364.6 3632.88C3364.6 3632.88 3378.14 3699.2 3365.24 3716.4Z" fill="#313132"/>
<path d="M2822.86 2310.92C2822.86 2310.92 2764.59 2556.96 2814.36 3051.98C2814.36 3051.98 2907.67 3478.7 2913.69 3615.19L3049.1 3611.96C3049.1 3611.96 3029.54 3191.91 3007.35 3049.03C3007.35 3049.03 3052.02 2726.62 3052.7 2671.63C3052.7 2671.63 3040.26 2942.9 3102.56 3103.14C3164.86 3263.39 3242.97 3603.12 3242.97 3603.12L3390.14 3599.11C3390.14 3599.11 3313.59 3116.23 3280.39 3027.85C3280.39 3027.85 3321.18 2480.19 3181.48 2305.33C3082.79 2315.33 2822.86 2310.92 2822.86 2310.92" fill="#313132"/>
<path d="M3183.21 2387.61C3183.21 2387.61 3182.36 2434.15 3162.45 2456.11C3142.55 2478.05 3130.3 2511.02 3128.95 2544.04C3127.58 2577.89 3152.36 2581.19 3182.46 2584.63C3207.86 2587.54 3223.11 2562.5 3230.49 2531.78C3249.45 2452.93 3224.58 2457.13 3236.08 2425C3247.58 2392.85 3252.57 2378.71 3252.57 2378.71L3183.21 2387.61" fill="white"/>
<path d="M3067.13 1643.23C3067.13 1643.23 3150.37 1637.71 3190.65 1688.23C3230.95 1738.75 3317.88 2063.56 3316.04 2090.62C3314.21 2117.69 3244.61 2460.51 3244.61 2460.51L3156.69 2438.86C3156.69 2438.86 3209.81 2121.3 3204.32 2090.62C3204.32 2090.62 3048.63 1847.03 3024.82 1762.23L3067.13 1643.23Z" fill="#F0BF41"/>
<path d="M2726.01 1457.7C2726.01 1465.35 2719.71 1471.54 2711.95 1471.54C2704.19 1471.54 2697.9 1465.35 2697.9 1457.7C2697.9 1450.05 2704.19 1443.85 2711.95 1443.85C2719.71 1443.85 2726.01 1450.05 2726.01 1457.7Z" fill="#313132"/>
<path d="M2748.93 1377.33C2753.77 1376.52 2758.96 1375.75 2763.45 1377.72C2767.53 1379.49 2770.32 1383.2 2772.93 1386.76C2786.88 1405.78 2800.83 1424.8 2814.79 1443.82C2823.99 1430.63 2844.45 1426.75 2857.96 1435.65C2871.47 1444.53 2875.68 1464.63 2866.84 1478.06C2880.6 1477.27 2891.58 1488.41 2901.87 1497.45C2912.16 1506.5 2939.93 1505.47 2951.45 1497.99C2943.14 1426.64 2933.88 1385.33 2908 1312.79C2899.65 1289.37 2869.97 1260.74 2865.14 1257.43C2839.26 1239.74 2804.53 1244.31 2773.48 1249.62C2721.08 1258.58 2677.59 1273.95 2635.36 1306.62C2629.49 1311.16 2623.6 1316.11 2620.33 1322.73C2616.28 1330.94 2616.82 1340.66 2618.98 1349.53C2621.69 1360.68 2624.99 1379.86 2633.45 1388.69C2640.49 1396.03 2647.27 1394.17 2656.94 1392.6C2687.62 1387.61 2718.27 1382.42 2748.93 1377.33" fill="#313132"/>
</svg>
