<svg width="5334" height="3556" viewBox="0 0 5334 3556" fill="none" xmlns="http://www.w3.org/2000/svg">
<g clip-path="url(#clip0_530_546)">
<path d="M5333.34 3555.56H0V-0.00962322H5333.34V3555.56Z" fill="white"/>
<path d="M3464.97 2526.68C3230.33 2591.72 2787.08 3044.96 3061.91 3257.56C3200.37 3364.68 3477.49 3129.56 3629.77 2894.45C3779.71 2662.93 3808.63 2431.42 3464.97 2526.68" fill="#ECF2FA"/>
<path d="M3528.41 2457.92C2533.71 2660.66 2832.13 3178.2 2168.48 3300.09C1273.04 3464.56 853.137 2121.78 1414.52 1293.06C1863.12 630.833 2637 421.64 3322.68 693.577C4291.19 1077.74 4313.52 2297.91 3528.41 2457.92Z" fill="#ECF2FA"/>
<path d="M2212.48 2136.66C1845.11 2153.24 1605.42 2012.61 1605.42 2012.61L1561.42 2018.41C1561.42 2018.41 1366.74 2220.29 1052.36 2289.7L1736.05 3315.01L1780.02 3309.21C2398.14 2938 2212.48 2136.66 2212.48 2136.66" fill="#3A2410"/>
<path d="M2168.51 2142.48C1801.13 2159.04 1561.42 2018.41 1561.42 2018.41C1561.42 2018.41 1367.3 2216.26 1008.38 2295.51C1008.38 2295.51 1041.26 3116.99 1736.04 3315.01C2354.15 2943.8 2168.51 2142.48 2168.51 2142.48Z" fill="#9F650D"/>
<path d="M1723.61 3222.88C1127.55 3053.01 1099.34 2348.26 1099.34 2348.26C1407.26 2280.28 1573.82 2110.55 1573.82 2110.55C1573.82 2110.55 1779.39 2231.19 2094.56 2216.98C2094.56 2216.98 2253.83 2904.44 1723.61 3222.88" fill="#CFE0FA"/>
<path d="M1542.57 2584.05L1532.37 2506.73C1528.57 2471.23 1540.84 2437.81 1564.09 2413.79C1567.79 2409.91 1571.88 2406.27 1575.93 2402.85C1589.04 2392.64 1604.41 2385 1621.63 2381.25C1624.99 2380.36 1628.52 2379.76 1632.07 2379.29C1635.27 2378.87 1638.48 2378.59 1641.63 2378.39C1645.29 2378.28 1648.99 2378.31 1652.71 2378.56C1656.41 2378.65 1660.15 2378.97 1663.92 2379.67C1668.49 2380.16 1673.13 2381.25 1677.56 2382.36C1687.29 2385.05 1696.29 2388.96 1704.61 2393.84C1712.89 2398.44 1720.73 2404.19 1727.53 2410.97C1730.84 2414.29 1733.96 2417.72 1736.79 2421.33C1737.47 2421.97 1738.01 2422.72 1738.55 2423.39C1750.57 2439.07 1758.73 2457.84 1761.48 2478.73L1771.39 2553.87L1542.57 2584.05ZM1866.09 2552.37C1857.96 2546.65 1847.69 2543.8 1837.03 2545.21L1823.76 2546.96L1813.84 2471.83C1812.52 2461.81 1810.08 2452.25 1807.2 2443.25C1804.65 2435.11 1801.56 2427.32 1797.93 2419.99C1796.08 2416.01 1794.03 2412.16 1791.83 2408.39C1783.47 2394.21 1773 2381.43 1761.04 2370.24C1759.87 2369.15 1758.63 2368.12 1757.45 2367.11C1754.63 2364.67 1751.81 2362.39 1748.95 2360.19C1741.39 2354.39 1733.33 2349.25 1725.09 2344.96C1716.52 2340.4 1707.55 2336.72 1698.08 2333.76C1693.61 2332.35 1689.23 2330.93 1684.51 2329.87C1671.95 2326.95 1659 2325.56 1645.76 2325.91C1639.64 2325.89 1633.71 2326.24 1627.52 2326.91L1625.2 2327.21C1621.43 2327.71 1617.6 2328.29 1613.8 2329.09H1613.72C1611.2 2329.57 1608.63 2330.21 1606.13 2330.84C1575.12 2338.61 1548.03 2354.67 1527.07 2376.45C1492.33 2411.88 1473.57 2462.63 1480.59 2515.79L1490.49 2590.92L1477.08 2592.69C1474.25 2593.07 1471.45 2593.73 1468.85 2594.67C1450.87 2600.95 1439.16 2619.09 1441.75 2638.75L1479.13 2922.12C1479.33 2923.64 1479.61 2925.23 1479.96 2926.72C1480.24 2927.72 1480.52 2928.72 1480.87 2929.64C1481 2930.13 1481.21 2930.61 1481.36 2931.12C1481.69 2932.03 1482.12 2933.01 1482.53 2933.92C1483.16 2935.31 1483.85 2936.61 1484.6 2937.84C1484.88 2938.25 1485.09 2938.75 1485.36 2939.15C1485.92 2939.96 1486.53 2940.76 1487.08 2941.51C1487.8 2942.52 1488.59 2943.37 1489.36 2944.31C1489.72 2944.69 1490.13 2945.08 1490.56 2945.55C1490.83 2945.8 1491.16 2946.13 1491.43 2946.47C1491.84 2946.85 1492.25 2947.17 1492.59 2947.49C1493.25 2948.07 1493.84 2948.59 1494.49 2949.09C1495.15 2949.51 1495.73 2950.04 1496.37 2950.45C1496.55 2950.59 1496.71 2950.71 1496.85 2950.76C1497.59 2951.25 1498.32 2951.75 1499.04 2952.17C1500.08 2952.77 1501.19 2953.37 1502.29 2953.89C1502.76 2954.12 1503.31 2954.33 1503.79 2954.57C1505.33 2955.19 1506.96 2955.77 1508.57 2956.23C1513.8 2957.76 1519.47 2958.27 1525.2 2957.51L1885.15 2910.03C1907.64 2907.05 1923.43 2886.37 1920.47 2863.89L1883.08 2580.53C1881.53 2568.71 1875.12 2558.79 1866.09 2552.37" fill="#3A2410"/>
<path d="M1765.85 2679.75L1537.04 2709.93L1510.61 2509.61C1506.81 2474.09 1519.08 2440.68 1542.33 2416.65C1546.03 2412.77 1550.12 2409.13 1554.17 2405.72C1569.89 2393.47 1588.84 2384.99 1610.31 2382.16C1614.16 2381.65 1617.88 2381.31 1621.63 2381.25C1624.72 2381.15 1627.83 2381.17 1630.96 2381.43C1634.65 2381.53 1638.39 2381.85 1642.16 2382.52C1642.69 2382.6 1643.23 2382.68 1643.75 2382.76C1647.8 2383.27 1651.92 2384.27 1655.81 2385.24C1665.53 2387.93 1674.53 2391.84 1682.85 2396.72C1691.13 2401.31 1698.97 2407.05 1705.77 2413.84C1708.33 2416.45 1710.81 2419.08 1713.11 2421.88C1714.4 2423.32 1715.63 2424.79 1716.77 2426.25C1728.81 2441.93 1736.97 2460.71 1739.72 2481.6L1765.85 2679.75ZM1788.17 2455.65C1787.37 2452.37 1786.44 2449.24 1785.44 2446.13C1782.63 2437.05 1779.15 2428.59 1774.97 2420.51C1773.53 2417.37 1771.8 2414.28 1770.08 2411.25C1763.89 2400.79 1756.55 2390.99 1748.23 2382.12C1745.37 2379.03 1742.4 2376.03 1739.29 2373.12C1735.44 2369.64 1731.29 2366.2 1727.19 2363.05C1719.63 2357.25 1711.57 2352.12 1703.33 2347.83C1694.76 2343.27 1685.8 2339.59 1676.33 2336.63C1671.87 2335.23 1667.47 2333.81 1662.75 2332.73C1651.11 2330.07 1639.12 2328.61 1626.88 2328.76C1625.92 2328.75 1624.96 2328.72 1624 2328.77C1620.61 2328.77 1617.16 2328.87 1613.8 2329.09H1613.72C1610.28 2329.33 1606.93 2329.63 1603.44 2330.08C1597.07 2330.92 1590.64 2332.07 1584.37 2333.71C1553.37 2341.48 1526.27 2357.52 1505.31 2379.33C1470.57 2414.76 1451.81 2465.49 1458.83 2518.65L1491.84 2768.95L1825.11 2724.99L1792.09 2474.69C1791.23 2468.17 1789.87 2461.77 1788.17 2455.65Z" fill="#9F650D"/>
<path d="M1861.33 2583.41L1898.7 2866.76C1901.66 2889.27 1885.86 2909.89 1863.36 2912.87L1503.46 2960.33C1497.7 2961.09 1492.08 2960.63 1486.81 2959.13C1485.18 2958.67 1483.58 2958.09 1482.02 2957.43C1481.52 2957.23 1481.02 2957 1480.53 2956.75C1479.44 2956.25 1478.34 2955.67 1477.26 2955.04C1476.53 2954.6 1475.8 2954.15 1475.08 2953.67C1474.94 2953.56 1474.8 2953.45 1474.64 2953.33C1474 2952.89 1473.36 2952.43 1472.73 2951.95C1472.09 2951.45 1471.46 2950.93 1470.86 2950.39C1470.46 2950.05 1470.08 2949.68 1469.69 2949.31C1469.38 2949.01 1469.08 2948.72 1468.8 2948.39C1468.36 2947.99 1467.96 2947.57 1467.61 2947.15C1466.8 2946.25 1466.05 2945.37 1465.33 2944.41C1464.74 2943.64 1464.17 2942.83 1463.62 2942C1463.36 2941.6 1463.1 2941.16 1462.84 2940.73C1462.06 2939.45 1461.37 2938.15 1460.74 2936.79V2936.76C1460.33 2935.85 1459.94 2934.93 1459.58 2933.99C1459.42 2933.51 1459.24 2933.03 1459.08 2932.55C1458.76 2931.57 1458.48 2930.59 1458.24 2929.59C1457.86 2928.07 1457.57 2926.55 1457.36 2924.97L1419.98 2641.64C1417.02 2619.17 1432.85 2598.52 1455.34 2595.56L1815.25 2548.08C1825.92 2546.68 1836.18 2549.49 1844.32 2555.27C1853.33 2561.63 1859.77 2571.61 1861.33 2583.41" fill="#9F650D"/>
<path d="M1700.38 2699.84C1696.93 2673.67 1672.92 2655.25 1646.74 2658.71C1620.58 2662.15 1602.16 2686.17 1605.61 2712.33C1607.7 2728.17 1617.36 2741.15 1630.44 2748.17L1641.98 2835.75C1643.88 2850.11 1657.06 2860.21 1671.41 2858.32H1671.42C1685.78 2856.43 1695.89 2843.25 1694 2828.89L1682.72 2743.44C1695.4 2733.35 1702.65 2717.08 1700.38 2699.84" fill="#CFE0FA"/>
<path d="M1678.55 2856.37C1676.31 2857.33 1673.96 2858.01 1671.43 2858.35C1657.07 2860.24 1643.86 2850.11 1641.95 2835.75L1630.42 2748.2C1617.38 2741.13 1607.7 2728.17 1605.62 2712.36C1602.16 2686.17 1620.6 2662.12 1646.72 2658.68C1649.18 2658.36 1651.6 2658.27 1654.04 2658.31C1631.8 2664.79 1616.99 2686.73 1620.11 2710.45C1622.2 2726.27 1631.88 2739.23 1644.92 2746.28L1656.46 2833.83C1658.03 2845.65 1667.32 2854.68 1678.55 2856.37Z" fill="#3A2410"/>
<path d="M1736.05 3315.04C1709.49 3307.47 1683.94 3298.99 1659.35 3289.67V2063.04C1762.32 2102.64 1940.89 2152.75 2168.49 2142.47C2168.49 2142.47 2354.16 2943.79 1736.05 3315.04" fill="#3A2410"/>
<path d="M1736.05 3315.04C1709.49 3307.47 1683.94 3298.99 1659.35 3289.67V2063.04C1762.32 2102.64 1940.89 2152.75 2168.49 2142.47C2168.49 2142.47 2354.16 2943.79 1736.05 3315.04" fill="#3A2410"/>
<path d="M2612.94 2252.51L2641.85 2199.5L2654.35 2176.59L2706.98 2080.24L2773.38 1958.39L2813.21 1885.32L3381.18 843.974C3394.1 820.43 3425.25 812.662 3450.99 826.617L3470.3 837.09L3470.33 837.197L3495.56 850.884L3899.5 1071.14L3962.07 1105.33L4329.86 1305.97C4355.49 1319.96 4365.96 1350.54 4353.08 1374.08L4343.95 1391.15L4343.84 1391.16L4303.98 1464.11L4304.01 1464.22L4061.74 1907.96L4022.02 1981.02L3955.51 2102.76L3831.12 2330.99L3698.67 2573.83L3584.8 2782.49C3571.95 2806.15 3540.66 2813.93 3515.03 2799.95L2642.47 2324.03L2636.03 2320.63C2630.34 2317.47 2625.34 2313.52 2621.3 2308.99C2607.05 2293.28 2602.94 2270.84 2612.94 2252.51" fill="#9F650D"/>
<path d="M3516.26 1008.49L3286.13 1430.41L3244.11 1407.48L3474.22 985.564L3516.26 1008.49" fill="white"/>
<path d="M3622.23 1066.29L3392.12 1488.22L3350.07 1465.29L3580.19 1043.38L3622.23 1066.29" fill="white"/>
<path d="M3831.14 2330.99L3666.34 2327.93L3335 2321.92V2091.56L3635.96 2096.96L3732.88 2098.69L3955.51 2102.76L3831.14 2330.99" fill="#BC8756"/>
<path d="M4022.03 1981.01L4061.75 1907.96L4061.85 1907.95L4022.03 1981.01Z" fill="#F2F6FC"/>
<path d="M4022.02 1981.01L3794.67 1976.88L3794.57 1976.9L3619.76 1973.78L3335.02 1968.61V1894.8L3422.56 1896.36L3610.04 1899.76L3806.95 1903.3L3807.07 1903.28L4061.74 1907.96L4022.02 1981.01" fill="#BC8756"/>
<path d="M4304.03 1464.21L4304 1464.11L4343.84 1391.16L4343.95 1391.15L4304.13 1464.2L4304.03 1464.21Z" fill="white"/>
<path d="M4304.03 1464.21L4187.76 1462.15L3903.81 1456.95L3550.97 1450.57L3414.07 1448.11H3413.99L3453.83 1375.04L3453.91 1375.05L3541.24 1376.56L3943.65 1383.88L4155.08 1387.69L4343.84 1391.16L4304 1464.11L4304.03 1464.21ZM3360.03 1447.05L3335 1446.6V1372.81L3399.84 1373.99H3399.87L3360.03 1447.05Z" fill="#BC8756"/>
<path d="M3414 1448.11L3360.04 1447.05L3399.87 1373.98L3453.84 1375.04L3414 1448.11Z" fill="white"/>
<path d="M4195.29 1448.44L4042.33 1728.86C4033.33 1745.38 4012.64 1751.46 3996.11 1742.44L3834.88 1654.52C3818.37 1645.5 3812.28 1624.8 3821.28 1608.28L3974.21 1327.87C3983.24 1311.35 4003.95 1305.26 4020.46 1314.27L4181.69 1402.22C4198.23 1411.22 4204.31 1431.92 4195.29 1448.44" fill="white"/>
<path d="M4130.94 3330.32H1202.39V3313.91H4130.94V3330.32Z" fill="#3A2410"/>
<path d="M3335.02 1144.99V3690.52C3335.02 3797.25 3248.19 3884.11 3141.37 3884.11H2632.21V3883.73H1989.74C1947.82 3881.24 1909.42 3865.39 1878.89 3840.35C1835.43 3804.82 1807.67 3750.87 1807.67 3690.52V1144.99C1807.67 1038.27 1894.59 951.418 2001.33 951.418H3141.37C3248.19 951.418 3335.02 1038.27 3335.02 1144.99Z" fill="#3A2410"/>
<path d="M3262.17 1145.01V3690.52C3262.17 3797.25 3175.34 3884.11 3068.52 3884.11H2559.37V3883.73H1916.89C1874.97 3881.24 1836.59 3865.39 1806.04 3840.35C1762.59 3804.81 1734.84 3750.87 1734.84 3690.52V1145.01C1734.84 1038.26 1821.75 951.425 1928.48 951.425H3068.52C3175.34 951.425 3262.17 1038.26 3262.17 1145.01Z" fill="#9F650D"/>
<path d="M3219.14 1145V3690.55C3219.14 3773.67 3151.74 3841.08 3068.53 3841.08H1928.45C1845.33 3841.08 1777.92 3773.67 1777.92 3690.55V1145C1777.92 1061.87 1845.33 994.467 1928.45 994.467H3068.53C3151.74 994.467 3219.14 1061.87 3219.14 1145Z" fill="#EBF1FD"/>
<path d="M2678.04 1019.54H2323.12C2315.19 1019.54 2308.78 1025.97 2308.78 1033.88C2308.78 1041.81 2315.19 1048.22 2323.12 1048.22H2678.04C2685.98 1048.22 2692.39 1041.81 2692.39 1033.88C2692.39 1025.97 2685.98 1019.54 2678.04 1019.54" fill="#3A2410"/>
<path d="M1915.14 1181.79L1909.12 1175.77L1956.69 1128.21L1962.7 1134.24L1915.14 1181.79Z" fill="#3A2410"/>
<path d="M1956.69 1181.79L1909.12 1134.24L1915.14 1128.21L1962.7 1175.77L1956.69 1181.79Z" fill="#3A2410"/>
<path d="M3083.98 1174.95H3007.7V1166.44H3083.98V1174.95Z" fill="#3A2410"/>
<path d="M2061.34 2725.02C2025.3 2725.02 1996 2754.31 1996 2790.32C1996 2826.35 2025.3 2855.64 2061.34 2855.64H2952.94C2988.96 2855.64 3018.27 2826.35 3018.27 2790.32C3018.27 2754.31 2988.96 2725.02 2952.94 2725.02H2061.34ZM2952.94 2874.79H2061.34C2014.75 2874.79 1976.87 2836.91 1976.87 2790.32C1976.87 2743.75 2014.75 2705.86 2061.34 2705.86H2952.94C2999.5 2705.86 3037.41 2743.75 3037.41 2790.32C3037.41 2836.91 2999.5 2874.79 2952.94 2874.79Z" fill="#9F650D"/>
<path d="M2061.34 2431.11C2025.3 2431.11 1996 2460.42 1996 2496.43C1996 2532.46 2025.3 2561.75 2061.34 2561.75H2952.94C2988.96 2561.75 3018.27 2532.46 3018.27 2496.43C3018.27 2460.42 2988.96 2431.11 2952.94 2431.11H2061.34ZM2952.94 2580.88H2061.34C2014.75 2580.88 1976.87 2543 1976.87 2496.43C1976.87 2449.86 2014.75 2411.96 2061.34 2411.96H2952.94C2999.5 2411.96 3037.41 2449.86 3037.41 2496.43C3037.41 2543 2999.5 2580.88 2952.94 2580.88Z" fill="#9F650D"/>
<path d="M2173.57 2821.05L2159.45 2810.1C2163.94 2805.05 2168.62 2800.24 2173.48 2795.63C2175.41 2793.74 2176.62 2792.57 2177.13 2792.06C2175.56 2791.83 2171.1 2790.79 2163.75 2788.99C2158.46 2787.67 2154.96 2786.7 2153.28 2786.08L2158.8 2769.64C2166.96 2772.93 2174.25 2776.57 2180.67 2780.57C2179.17 2770.41 2178.44 2762.12 2178.44 2755.7H2195.07C2195.07 2760.25 2194.23 2768.6 2192.55 2780.76C2193.79 2780.26 2196.48 2779.04 2200.59 2777.1C2206.19 2774.56 2211.37 2772.37 2216.1 2770.57L2221.06 2787.49C2214.14 2789.04 2206.12 2790.57 2197.03 2792.06L2208.26 2804.69C2210.48 2807.24 2212.27 2809.33 2213.58 2810.96L2199.27 2820.39L2186.65 2799.54C2182.86 2806.28 2178.49 2813.44 2173.57 2821.05" fill="#9F650D"/>
<path d="M2301.25 2821.05L2287.14 2810.11C2291.63 2805.05 2296.31 2800.24 2301.16 2795.63C2303.1 2793.75 2304.31 2792.57 2304.81 2792.07C2303.25 2791.83 2298.8 2790.79 2291.44 2788.99C2286.15 2787.67 2282.65 2786.71 2280.98 2786.08L2286.5 2769.64C2294.65 2772.93 2301.94 2776.57 2308.35 2780.57C2306.87 2770.42 2306.12 2762.12 2306.12 2755.71H2322.76C2322.76 2760.25 2321.91 2768.6 2320.24 2780.76C2321.48 2780.27 2324.16 2779.04 2328.27 2777.11C2333.87 2774.56 2339.05 2772.38 2343.79 2770.57L2348.74 2787.5C2341.83 2789.04 2333.82 2790.57 2324.72 2792.07L2335.93 2804.69C2338.18 2807.24 2339.95 2809.33 2341.27 2810.96L2326.96 2820.39L2314.35 2799.55C2310.54 2806.28 2306.18 2813.44 2301.25 2821.05" fill="#9F650D"/>
<path d="M2428.95 2821.05L2414.84 2810.11C2419.32 2805.05 2424 2800.24 2428.86 2795.62C2430.79 2793.74 2432.01 2792.57 2432.49 2792.07C2430.96 2791.83 2426.49 2790.78 2419.14 2788.98C2413.85 2787.66 2410.36 2786.71 2408.67 2786.08L2414.19 2769.64C2422.36 2772.93 2429.65 2776.57 2436.06 2780.57C2434.56 2770.41 2433.82 2762.12 2433.82 2755.7H2450.47C2450.47 2760.25 2449.62 2768.6 2447.93 2780.76C2449.18 2780.26 2451.87 2779.04 2455.98 2777.1C2461.57 2774.56 2466.75 2772.37 2471.49 2770.57L2476.45 2787.49C2469.53 2789.04 2461.51 2790.57 2452.43 2792.07L2463.64 2804.69C2465.87 2807.24 2467.67 2809.33 2468.97 2810.96L2454.66 2820.38L2442.05 2799.54C2438.25 2806.28 2433.88 2813.44 2428.95 2821.05" fill="#9F650D"/>
<path d="M2556.63 2821.05L2542.51 2810.11C2547.02 2805.05 2551.7 2800.24 2556.54 2795.63C2558.47 2793.75 2559.68 2792.57 2560.2 2792.07C2558.63 2791.83 2554.17 2790.79 2546.82 2788.99C2541.54 2787.67 2538.04 2786.71 2536.36 2786.08L2541.87 2769.64C2550.04 2772.93 2557.34 2776.57 2563.74 2780.57C2562.26 2770.41 2561.51 2762.12 2561.51 2755.71H2578.14C2578.14 2760.25 2577.31 2768.6 2575.63 2780.76C2576.86 2780.27 2579.54 2779.04 2583.65 2777.11C2589.26 2774.56 2594.43 2772.37 2599.18 2770.57L2604.13 2787.49C2597.21 2789.04 2589.19 2790.57 2580.1 2792.07L2591.32 2804.7C2593.57 2807.24 2595.34 2809.33 2596.65 2810.96L2582.34 2820.39L2569.73 2799.55C2565.93 2806.28 2561.55 2813.44 2556.63 2821.05" fill="#9F650D"/>
<path d="M2684.34 2821.05L2670.24 2810.1C2674.72 2805.05 2679.39 2800.24 2684.25 2795.62C2686.18 2793.74 2687.39 2792.57 2687.91 2792.06C2686.35 2791.82 2681.89 2790.78 2674.53 2788.98C2669.24 2787.66 2665.73 2786.7 2664.06 2786.08L2669.57 2769.64C2677.73 2772.93 2685.03 2776.57 2691.44 2780.57C2689.94 2770.41 2689.2 2762.12 2689.2 2755.7H2705.84C2705.84 2760.25 2705 2768.6 2703.33 2780.76C2704.57 2780.26 2707.25 2779.04 2711.37 2777.1C2716.97 2774.56 2722.15 2772.37 2726.87 2770.57L2731.84 2787.49C2724.91 2789.04 2716.92 2790.57 2707.8 2792.06L2719.03 2804.69C2721.26 2807.24 2723.05 2809.33 2724.34 2810.96L2710.05 2820.38L2697.43 2799.54C2693.64 2806.28 2689.27 2813.44 2684.34 2821.05" fill="#9F650D"/>
<path d="M2812.03 2821.05L2797.93 2810.11C2802.4 2805.05 2807.08 2800.24 2811.92 2795.63C2813.87 2793.75 2815.08 2792.57 2815.59 2792.07C2814.01 2791.83 2809.57 2790.79 2802.21 2788.99C2796.93 2787.67 2793.43 2786.71 2791.75 2786.08L2797.26 2769.64C2805.43 2772.93 2812.71 2776.57 2819.13 2780.57C2817.64 2770.41 2816.89 2762.12 2816.89 2755.71H2833.54C2833.54 2760.25 2832.7 2768.6 2830.99 2780.76C2832.26 2780.27 2834.94 2779.04 2839.05 2777.11C2844.66 2774.56 2849.82 2772.37 2854.55 2770.57L2859.52 2787.49C2852.61 2789.04 2844.59 2790.57 2835.48 2792.07L2846.71 2804.69C2848.94 2807.24 2850.73 2809.33 2852.05 2810.96L2837.73 2820.39L2825.1 2799.55C2821.31 2806.28 2816.94 2813.44 2812.03 2821.05" fill="#9F650D"/>
<path d="M3219.14 1392.98H3262.17V3313.71H3219.14" fill="#794E0E"/>
<path d="M2780.47 3313.84C2790.94 3235.71 2796.17 3119.13 2799.98 2990.89C2797.93 2992.51 2795.9 2994.17 2793.84 2995.75C2789.69 3026.05 2786.28 3045.56 2786.18 3046.08L2776.9 3044.43C2776.94 3043.99 2779.7 3028.48 2783.18 3003.84C2766.05 3016.53 2749.58 3027.11 2734.18 3035.39C2712.85 3053.92 2687.53 3065.28 2659.49 3065.28C2623.56 3065.28 2583.18 3046.65 2540.99 3000.6C2514.11 2971.27 2481.23 2926.68 2446.21 2874.79H2952.94C2999.51 2874.79 3037.41 2836.91 3037.41 2790.32C3037.41 2743.75 2999.51 2705.85 2952.94 2705.85H2338.92C2312.81 2662.81 2287.61 2620.1 2264.82 2580.88H2553.18C2568.44 2593.96 2583.67 2606.89 2598.66 2619.59C2600.42 2616.46 2602.23 2613.31 2603.99 2610.21C2600.12 2600.72 2596.7 2590.95 2593.78 2580.88H2952.94C2999.51 2580.88 3037.41 2543 3037.41 2496.43C3037.41 2449.86 2999.51 2411.96 2952.94 2411.96H2689.62C2670.76 2397.8 2658.85 2380.64 2662.03 2362.83C2667.17 2334.32 2652.79 2304.74 2672.54 2279.84C2688.91 2259.15 2692.92 2241.4 2698.1 2224.88C2661.09 2215.65 2604.46 2194.19 2570 2169.22C2544.9 2150.98 2554.01 2137.22 2568.32 2137.22C2570.26 2137.22 2572.27 2137.47 2574.35 2138C2613.45 2148.08 2706.13 2159.64 2750.79 2178.59C2751.16 2178.78 2751.54 2178.96 2751.87 2179.2C2767.87 2183.39 2798.74 2203 2827.91 2224.22C2859.65 2181.83 2888.1 2144.99 2908.27 2121.15C2928.12 2097.79 2949.01 2079.32 2970.32 2065.1C3029.81 2016.71 3102.72 1988.3 3180.38 1975.54L3178.66 1961.18C3177.55 1956.23 3176.7 1951.51 3176.13 1947.08C3089.33 1936.48 3063.74 1813.71 3058.03 1725.39C3054.26 1719.88 3014.13 1659.68 3007.35 1601.35C3000.26 1540.1 3035.51 1524.02 3035.51 1524.02C3035.51 1524.02 3020.19 1445.3 3147.06 1404.54C3172.85 1396.25 3195.52 1392.93 3215.29 1392.93C3216.58 1392.93 3217.86 1392.95 3219.14 1392.97V3313.71L2780.47 3313.84M3056.8 1671.82C3056.51 1671.87 3056.35 1671.87 3056.35 1671.87L3056.65 1679.62C3056.7 1677 3056.74 1674.39 3056.8 1671.82ZM2952.94 2855.64H2433.42C2406.2 2814.63 2378.02 2769.88 2350.59 2725.01H2952.94C2988.96 2725.01 3018.27 2754.31 3018.27 2790.32C3018.27 2826.35 2988.96 2855.64 2952.94 2855.64M2797.26 2769.64L2791.75 2786.08C2793.43 2786.71 2796.92 2787.67 2802.21 2788.99C2809.56 2790.79 2814.01 2791.83 2815.59 2792.07C2815.07 2792.57 2813.87 2793.75 2811.93 2795.63C2807.07 2800.24 2802.39 2805.05 2797.91 2810.11L2812.03 2821.05C2816.95 2813.44 2821.31 2806.28 2825.1 2799.55L2837.72 2820.39L2852.04 2810.96C2850.74 2809.34 2848.94 2807.24 2846.71 2804.69L2835.49 2792.07C2844.58 2790.57 2852.6 2789.04 2859.51 2787.49L2854.55 2770.58C2849.83 2772.37 2844.66 2774.56 2839.03 2777.11C2834.94 2779.04 2832.25 2780.27 2830.99 2780.76C2832.69 2768.6 2833.54 2760.25 2833.54 2755.71H2816.89C2816.89 2762.12 2817.64 2770.42 2819.12 2780.57C2812.72 2776.58 2805.41 2772.94 2797.26 2769.64M2669.56 2769.64L2664.05 2786.08C2665.73 2786.71 2669.22 2787.67 2674.52 2788.99C2681.88 2790.79 2686.33 2791.83 2687.89 2792.07C2687.39 2792.57 2686.17 2793.75 2684.23 2795.63C2679.39 2800.24 2674.71 2805.05 2670.23 2810.11L2684.33 2821.05C2689.25 2813.44 2693.63 2806.28 2697.42 2799.55L2710.04 2820.39L2724.32 2810.96C2723.04 2809.34 2721.24 2807.24 2719.03 2804.69L2707.79 2792.07C2716.9 2790.57 2724.9 2789.04 2731.83 2787.49L2726.87 2770.58C2722.13 2772.37 2716.96 2774.56 2711.35 2777.11C2707.24 2779.04 2704.55 2780.27 2703.31 2780.76C2704.99 2768.6 2705.82 2760.25 2705.82 2755.71H2689.19C2689.19 2762.12 2689.94 2770.42 2691.44 2780.57C2685 2776.58 2677.72 2772.94 2669.56 2769.64M2541.88 2769.64L2536.35 2786.08C2538.03 2786.71 2541.52 2787.67 2546.82 2788.99C2554.16 2790.79 2558.65 2791.83 2560.21 2792.07C2559.69 2792.57 2558.47 2793.75 2556.55 2795.63C2551.69 2800.24 2547.01 2805.05 2542.51 2810.11L2556.63 2821.05C2561.55 2813.44 2565.93 2806.28 2569.73 2799.55L2582.35 2820.39L2596.64 2810.96C2595.34 2809.34 2593.56 2807.24 2591.31 2804.69L2580.09 2792.07C2589.2 2790.57 2597.22 2789.04 2604.13 2787.49L2599.17 2770.58C2594.43 2772.37 2589.26 2774.56 2583.65 2777.11C2579.54 2779.04 2576.86 2780.27 2575.63 2780.76C2577.31 2768.6 2578.14 2760.25 2578.14 2755.71H2561.51C2561.51 2762.12 2562.24 2770.42 2563.74 2780.57C2557.32 2776.58 2550.04 2772.94 2541.88 2769.64M2414.18 2769.64L2408.67 2786.08C2410.35 2786.71 2413.84 2787.67 2419.14 2788.99C2426.48 2790.79 2430.95 2791.83 2432.49 2792.07C2431.99 2792.57 2430.79 2793.75 2428.85 2795.63C2424 2800.24 2419.31 2805.05 2414.83 2810.11L2428.95 2821.05C2433.87 2813.44 2438.23 2806.28 2442.05 2799.55L2454.65 2820.39L2468.96 2810.96C2467.64 2809.34 2465.86 2807.24 2463.63 2804.69L2452.41 2792.07C2461.5 2790.57 2469.52 2789.04 2476.43 2787.49L2471.47 2770.58C2466.75 2772.37 2461.58 2774.56 2455.97 2777.11C2451.84 2779.04 2449.18 2780.27 2447.91 2780.76C2449.61 2768.6 2450.46 2760.25 2450.46 2755.71H2433.81C2433.81 2762.12 2434.56 2770.42 2436.04 2780.57C2429.64 2776.58 2422.34 2772.94 2414.18 2769.64M2952.94 2561.75H2588.92C2588.59 2560.19 2588.27 2558.63 2587.93 2557.07C2587.93 2557.07 2626.09 2502.67 2677.24 2431.11H2952.94C2988.96 2431.11 3018.27 2460.42 3018.27 2496.43C3018.27 2532.46 2988.96 2561.75 2952.94 2561.75ZM2530.9 2561.75H2253.74C2246.71 2549.59 2239.95 2537.84 2233.55 2526.62C2221.27 2519.72 2206.14 2509.58 2194.37 2496.44L2045.06 2518.72C2044.39 2518.85 2043.68 2518.91 2043.01 2518.95C2042.48 2519 2041.92 2519.03 2041.39 2519.03C2041.02 2519.03 2040.66 2519.01 2040.31 2519L2029.27 2520.76C2027.98 2520.95 2026.72 2521.04 2025.47 2521.04C2011.89 2521.04 1999.74 2510.28 1996.03 2495C1996.78 2459.64 2025.79 2431.11 2061.34 2431.11H2388.31C2429.09 2472.2 2479.53 2517.36 2530.9 2561.75M1990.24 2450.87L1986.05 2417.51C1973.12 2413.51 1941.22 2398.57 1948.43 2350.03C1948.43 2350.03 1913.96 2330.43 1945.22 2296.03C1945.22 2296.03 1895.6 2273.75 1934.57 2237.02L1934.43 2236.92C1932.05 2235.98 1895.88 2221.12 1931.18 2178.87C1938.9 2169.59 1946.52 2163.18 1953.65 2158.88L1941.04 2058.67C1938.67 2039.44 1950.04 2021.9 1966.45 2019.47L2003.61 2014.23L2179.34 1988.02C2180.62 1987.83 2181.91 1987.74 2183.15 1987.74C2198.1 1987.74 2211.22 2000.64 2213.41 2018.38L2230.59 2155.12C2233.63 2152.98 2236.67 2151.87 2239.46 2151.87C2245.09 2151.87 2249.67 2156.42 2250.81 2165.88C2253.01 2183.78 2256.66 2197.86 2263.51 2213.18C2270.37 2228.5 2280.46 2245.02 2295.35 2267.8L2296.06 2267.38C2322.56 2307.78 2318.34 2340.89 2316.89 2348.18C2329.55 2367.14 2347.76 2388.72 2369.72 2411.96H2061.34C2031.52 2411.96 2005.27 2427.48 1990.24 2450.87" fill="#A7ADBB"/>
<path d="M2952.94 2874.79H2446.21C2441.96 2868.51 2437.7 2862.12 2433.41 2855.64H2952.94C2988.96 2855.64 3018.27 2826.35 3018.27 2790.32C3018.27 2754.31 2988.96 2725.02 2952.94 2725.02H2350.58C2346.67 2718.63 2342.79 2712.24 2338.91 2705.86H2952.94C2999.5 2705.86 3037.41 2743.75 3037.41 2790.32C3037.41 2836.91 2999.5 2874.79 2952.94 2874.79" fill="#794E0E"/>
<path d="M2952.94 2580.88H2593.78C2591.97 2574.62 2590.35 2568.24 2588.93 2561.75H2952.94C2988.96 2561.75 3018.27 2532.46 3018.27 2496.43C3018.27 2460.42 2988.96 2431.11 2952.94 2431.11H2677.24C2681.56 2425.06 2686 2418.88 2690.49 2412.6C2690.19 2412.39 2689.91 2412.18 2689.61 2411.96H2952.94C2999.5 2411.96 3037.41 2449.86 3037.41 2496.43C3037.41 2543 2999.5 2580.88 2952.94 2580.88M2553.17 2580.88H2264.8C2261.04 2574.4 2257.35 2568.03 2253.74 2561.75H2530.9C2538.32 2568.15 2545.74 2574.54 2553.17 2580.88ZM1996.02 2495C1995.67 2493.54 1995.39 2492.01 1995.2 2490.46L1990.23 2450.87C2005.28 2427.48 2031.52 2411.96 2061.34 2411.96H2369.73C2375.66 2418.23 2381.87 2424.62 2388.29 2431.11H2061.34C2025.78 2431.11 1996.79 2459.64 1996.02 2495" fill="#794E0E"/>
<path d="M2428.95 2821.05L2414.84 2810.11C2419.32 2805.05 2424 2800.24 2428.86 2795.62C2430.79 2793.74 2432.01 2792.57 2432.49 2792.07C2430.96 2791.83 2426.49 2790.78 2419.14 2788.98C2413.85 2787.66 2410.36 2786.71 2408.67 2786.08L2414.19 2769.64C2422.36 2772.93 2429.65 2776.57 2436.06 2780.57C2434.56 2770.41 2433.82 2762.12 2433.82 2755.7H2450.47C2450.47 2760.25 2449.62 2768.6 2447.93 2780.76C2449.18 2780.26 2451.87 2779.04 2455.98 2777.1C2461.57 2774.56 2466.75 2772.37 2471.49 2770.57L2476.45 2787.49C2469.53 2789.04 2461.51 2790.57 2452.43 2792.07L2463.64 2804.69C2465.87 2807.24 2467.67 2809.33 2468.97 2810.96L2454.66 2820.38L2442.05 2799.54C2438.25 2806.28 2433.88 2813.44 2428.95 2821.05" fill="#794E0E"/>
<path d="M2556.63 2821.05L2542.51 2810.11C2547.02 2805.05 2551.7 2800.24 2556.54 2795.63C2558.47 2793.75 2559.68 2792.57 2560.2 2792.07C2558.63 2791.83 2554.17 2790.79 2546.82 2788.99C2541.54 2787.67 2538.04 2786.71 2536.36 2786.08L2541.87 2769.64C2550.04 2772.93 2557.34 2776.57 2563.74 2780.57C2562.26 2770.41 2561.51 2762.12 2561.51 2755.71H2578.14C2578.14 2760.25 2577.31 2768.6 2575.63 2780.76C2576.86 2780.27 2579.54 2779.04 2583.65 2777.11C2589.26 2774.56 2594.43 2772.37 2599.18 2770.57L2604.13 2787.49C2597.21 2789.04 2589.19 2790.57 2580.1 2792.07L2591.32 2804.7C2593.57 2807.24 2595.34 2809.33 2596.65 2810.96L2582.34 2820.39L2569.73 2799.55C2565.93 2806.28 2561.55 2813.44 2556.63 2821.05" fill="#794E0E"/>
<path d="M2684.34 2821.05L2670.24 2810.1C2674.72 2805.05 2679.39 2800.24 2684.25 2795.62C2686.18 2793.74 2687.39 2792.57 2687.91 2792.06C2686.35 2791.82 2681.89 2790.78 2674.53 2788.98C2669.24 2787.66 2665.73 2786.7 2664.06 2786.08L2669.57 2769.64C2677.73 2772.93 2685.03 2776.57 2691.44 2780.57C2689.94 2770.41 2689.2 2762.12 2689.2 2755.7H2705.84C2705.84 2760.25 2705 2768.6 2703.33 2780.76C2704.57 2780.26 2707.25 2779.04 2711.37 2777.1C2716.97 2774.56 2722.15 2772.37 2726.87 2770.57L2731.84 2787.49C2724.91 2789.04 2716.92 2790.57 2707.8 2792.06L2719.03 2804.69C2721.26 2807.24 2723.05 2809.33 2724.34 2810.96L2710.05 2820.38L2697.43 2799.54C2693.64 2806.28 2689.27 2813.44 2684.34 2821.05" fill="#794E0E"/>
<path d="M2812.03 2821.05L2797.93 2810.11C2802.4 2805.05 2807.08 2800.24 2811.92 2795.63C2813.87 2793.75 2815.08 2792.57 2815.59 2792.07C2814.01 2791.83 2809.57 2790.79 2802.21 2788.99C2796.93 2787.67 2793.43 2786.71 2791.75 2786.08L2797.26 2769.64C2805.43 2772.93 2812.71 2776.57 2819.13 2780.57C2817.64 2770.41 2816.89 2762.12 2816.89 2755.71H2833.54C2833.54 2760.25 2832.7 2768.6 2830.99 2780.76C2832.26 2780.27 2834.94 2779.04 2839.05 2777.11C2844.66 2774.56 2849.82 2772.37 2854.55 2770.57L2859.52 2787.49C2852.61 2789.04 2844.59 2790.57 2835.48 2792.07L2846.71 2804.69C2848.94 2807.24 2850.73 2809.33 2852.05 2810.96L2837.73 2820.39L2825.1 2799.55C2821.31 2806.28 2816.94 2813.44 2812.03 2821.05" fill="#794E0E"/>
<path d="M2885.99 2517.6H2123.95V2474.54H2885.99V2517.6Z" fill="#9F650D"/>
<path d="M2917.77 1691.34C2917.77 1827.56 2851.25 1948.25 2748.84 2022.62C2681.37 2071.68 2598.33 2100.56 2508.55 2100.56C2422.52 2100.56 2342.68 2074.06 2276.81 2028.66C2169.6 1954.9 2099.32 1831.33 2099.32 1691.34C2099.32 1465.37 2282.52 1282.12 2508.55 1282.12C2734.57 1282.12 2917.77 1465.37 2917.77 1691.34Z" fill="#B56609"/>
<path d="M2695.55 1616.33C2696.48 1724.72 2614.03 1812.91 2511.39 1813.29C2408.76 1813.7 2324.82 1726.14 2323.9 1617.75C2322.97 1509.35 2405.42 1421.16 2508.05 1420.78C2610.67 1420.38 2694.64 1507.93 2695.55 1616.33Z" fill="white"/>
<path d="M2748.83 2022.62C2681.36 2071.68 2598.34 2100.56 2508.54 2100.56C2422.51 2100.56 2342.68 2074.06 2276.81 2028.66C2308.83 1930.3 2402.38 1871.45 2512.84 1871.01C2621.69 1870.59 2714.24 1927.07 2748.83 2022.62Z" fill="white"/>
<path d="M2290.22 2189.97C2290.16 2189.84 2290.09 2189.68 2290.09 2189.68C2290.09 2189.68 2291.09 2189.56 2292.87 2189.51C2294.75 2189.19 2296.04 2188.96 2296.04 2188.96C2296.04 2188.96 2296.31 2189.19 2296.74 2189.53C2316.13 2190.16 2413.1 2210.36 2459.45 2299.96C2515.93 2409.09 2819.78 2637.43 2919.07 2734.88C3030.32 2844.07 2879.81 3172.71 2694.1 2970.03C2611.1 2879.41 2470.88 2643.31 2386.65 2496C2362.27 2482.35 2326.62 2455.88 2328.85 2418.89C2320.5 2398.68 2311.21 2374.17 2306.78 2370.84L2290.22 2189.97" fill="#F8A3A2"/>
<path d="M2840.45 2436.44C2840.45 2436.44 2693.19 2683.67 2675.11 2735.44C2635.14 2849.81 2766.07 3059.77 2871.04 3012.84C2976 2965.91 3143.67 2790.41 3225.39 2606.19C3307.12 2421.96 2979.43 2233.45 2840.45 2436.44" fill="#F8A3A2"/>
<path d="M2747.75 2614.62L2849.78 2443.45L2841.39 2438.44L2741.21 2607.69L2747.75 2614.62Z" fill="#D17F80"/>
<path d="M3320.24 2006.28C3381.33 2029.84 3444.36 2079.98 3429.53 2238.55C3414.7 2397.1 3282.31 2671.17 3140.94 2859.5C3140.94 2859.5 2790.7 2774.31 2741.06 2526.47C2741.06 2526.47 2975.91 2191.55 3061.38 2090.59C3146.88 1989.61 3252.83 1980.3 3320.24 2006.28Z" fill="#ECA842"/>
<path d="M3115.27 2606.75C3116.77 2606.8 3267.5 2609.82 3323.18 2453L3313.96 2449.74C3260.73 2599.67 3117 2597.03 3115.55 2596.98L3115.27 2606.75" fill="#3A2410"/>
<path d="M2991.2 2811.51C3068.54 2851.19 3136.75 2867.43 3137.68 2867.66L3140.14 2868.23L3142.04 2866.56C3144.4 2864.45 3380.06 2654.18 3437.84 2401.56L3428.31 2399.38C3373.96 2636.99 3159.91 2837.08 3137.47 2857.52C3119.12 2852.84 3002.1 2821.03 2906.73 2746.82L2900.72 2754.54C2929.99 2777.31 2961.27 2796.16 2991.2 2811.51" fill="white"/>
<path d="M2995.46 2238.03C2938.82 2446.56 2975.56 3279.95 2909.67 3374.73C2909.67 3374.73 2987.69 3540.91 3196.35 3487.84C3521.45 3405.13 3678.13 3905.83 3939.09 3773.23C4045.23 3065.57 4051.05 2177.91 3815.17 2037.2C3575.21 1894.06 3098.28 1859.36 2995.46 2238.03Z" fill="#ECA842"/>
<path d="M2939.29 3015.5L2930 3013.84C2930.24 3012.48 2954.12 2877.48 2951.31 2762.4C2948.49 2646.49 2989.41 2284.85 2989.86 2281.21L2999.22 2282.28C2998.82 2285.9 2957.95 2646.9 2960.75 2762.17C2963.58 2878.23 2939.53 3014.13 2939.29 3015.5" fill="white"/>
<path d="M3312.22 1766.08L3334.57 1954.04C3343.79 1971.65 3393.21 2063.03 3570.5 1939.99L3527.09 1667.03C3527.09 1667.03 3446.26 1712.58 3312.22 1766.08Z" fill="#F8A3A2"/>
<path d="M3333.43 1937.73C3333.43 1937.73 3416.68 1999.8 3537.38 1772.95C3537.38 1772.95 3534.6 1754.16 3534.11 1754.59C3402.03 1845.72 3304.2 1823.92 3333.43 1937.73" fill="#3A2410"/>
<path d="M3345.95 1917.22C3408.28 1914.75 3519.23 1826.08 3542.56 1768.22C3550.86 1747.6 3545.54 1693.75 3536.5 1667.94C3508.01 1587.09 3484.85 1513.66 3420.67 1493.34C3393.59 1484.84 3326.54 1495.17 3302.1 1501.06C3221.58 1520.72 3207.69 1586.42 3209.93 1669.22C3212.41 1762.1 3236.07 1921.63 3345.95 1917.22" fill="#F8A3A2"/>
<path d="M3299.91 1779.67C3293.95 1778.26 3263.89 1770.52 3258.9 1756.87C3257.85 1754 3257.34 1749.55 3260.99 1744.66C3282.75 1715.24 3276.47 1676.55 3275.07 1669.38C3271.26 1665.54 3254.16 1650.47 3228.17 1660.2L3224.87 1651.35C3260.16 1638.14 3282.77 1663.78 3282.99 1664.03L3283.72 1664.9L3284 1666C3284.47 1667.96 3295.19 1714.28 3268.57 1750.27C3267.37 1751.88 3267.47 1752.84 3267.78 1753.63C3270.15 1760.15 3289.66 1767.54 3302.07 1770.47L3299.91 1779.67" fill="#3A2410"/>
<path d="M3490.75 1677.12C3491.79 1709.29 3518.75 1734.52 3550.92 1733.45C3583.08 1732.4 3608.32 1705.45 3607.26 1673.28C3606.22 1641.11 3579.28 1615.88 3547.09 1616.93C3514.9 1618 3489.69 1644.93 3490.75 1677.12" fill="#F8A3A2"/>
<path d="M3557 1716.24C3553.93 1716.15 3550.85 1715.24 3548.04 1713.16C3540.38 1707.5 3543.96 1699 3546.57 1692.78C3549.73 1685.25 3550.3 1682.33 3547.52 1679.9C3546.02 1678.58 3544.03 1677.37 3541.99 1676.11C3536.52 1672.71 3530.29 1668.85 3529.36 1662.19C3528.79 1657.93 3530.51 1653.69 3534.61 1649.2C3548.57 1633.99 3567.45 1640.66 3568.24 1640.96L3565.01 1649.84C3564.46 1649.64 3551.18 1645.09 3541.57 1655.59C3539.57 1657.77 3538.56 1659.66 3538.72 1660.89C3539.04 1663.17 3543.43 1665.89 3546.97 1668.08C3549.34 1669.55 3551.77 1671.06 3553.77 1672.81C3562.11 1680.12 3558.01 1689.94 3555.26 1696.44C3552.65 1702.69 3552.3 1704.57 3553.64 1705.56C3559.96 1710.2 3571.13 1700.23 3571.22 1700.12L3577.7 1707.01C3573.2 1711.22 3565.03 1716.51 3557 1716.24" fill="#3A2410"/>
<path d="M3293.9 1813.03C3276.35 1812.46 3263.67 1809.46 3262.64 1809.2L3264.86 1800.03C3265.34 1800.14 3312.94 1811.31 3350.86 1793.44L3354.89 1801.99C3334.29 1811.7 3311.61 1813.6 3293.9 1813.03Z" fill="#3A2410"/>
<path d="M3379.65 1684.11C3379.8 1684.89 3379.94 1685.67 3379.96 1686.5C3380.25 1695.05 3373.55 1702.19 3364.99 1702.47C3356.44 1702.77 3349.31 1696.06 3349.02 1687.51C3348.9 1683.89 3350.1 1680.54 3352.11 1677.84C3360.94 1681.19 3370.24 1683.26 3379.65 1684.11" fill="#3A2410"/>
<path d="M3267.53 1687.81C3267.67 1688.58 3267.83 1689.37 3267.87 1690.18C3268.13 1698.74 3261.43 1705.89 3252.89 1706.17C3244.35 1706.45 3237.17 1699.76 3236.91 1691.21C3236.79 1687.57 3237.97 1684.24 3240 1681.51C3248.84 1684.89 3258.12 1686.95 3267.53 1687.81" fill="#3A2410"/>
<path d="M3397.24 1660.89C3348.43 1637.69 3335.41 1658.4 3335.26 1658.59L3327.04 1653.97C3327.71 1652.77 3343.88 1625.08 3401.29 1652.36L3397.24 1660.89Z" fill="#3A2410"/>
<path d="M3319.24 2121.11C3246.5 2113.62 3216.91 2043.78 3215.66 2040.8L3224.4 2037.2C3224.71 2037.87 3253.16 2104.8 3320.18 2111.71L3319.24 2121.11" fill="white"/>
<path d="M3205.95 3143.44L3205.46 3134.01C3207.58 3133.89 3418.41 3121.16 3480.27 2939.87L3489.22 2942.91C3425.26 3130.36 3208.12 3143.33 3205.95 3143.44" fill="white"/>
<path d="M3470.62 1612.46L3488.51 1679.61C3502.73 1679.06 3496.69 1680.43 3510.76 1677.7C3508.5 1608.42 3566.71 1619.4 3566.71 1619.4C3616.27 1536.92 3538.98 1405.96 3478.43 1413.02C3478.43 1413.02 3427.07 1333.13 3300.17 1373.91C3173.29 1414.7 3188.64 1493.44 3188.64 1493.44C3188.64 1493.44 3153.37 1509.5 3160.45 1570.74C3167.52 1631.97 3211.43 1695.22 3211.43 1695.22L3209.48 1641.26C3209.48 1641.26 3333.23 1620.46 3396.08 1539.97C3415.07 1607.66 3470.62 1612.46 3470.62 1612.46" fill="#3A2410"/>
<path d="M3348.68 1692.28C3350.5 1701.21 3359.22 1706.98 3368.14 1705.16C3377.09 1703.34 3382.86 1694.62 3381.03 1685.69C3379.23 1676.76 3370.49 1671 3361.56 1672.81C3352.64 1674.62 3346.85 1683.34 3348.68 1692.28Z" fill="#3A2410"/>
<path d="M3236.11 1693.68C3237.92 1702.61 3246.62 1708.39 3255.57 1706.57C3264.5 1704.75 3270.28 1696.03 3268.45 1687.11C3266.65 1678.16 3257.92 1672.4 3248.99 1674.21C3240.04 1676.03 3234.29 1684.75 3236.11 1693.68Z" fill="#3A2410"/>
<path d="M3377.71 2618.32C3417.45 2530.98 3466.57 2430.56 3466.57 2430.56C3585.9 2221.25 3920.91 2378.89 3855.96 2565.28C3791.01 2751.66 3641.47 2936.44 3542.79 2990.69C3532.19 2996.52 3521.05 2999.32 3509.65 2999.81C3475.87 3008.16 3433.59 3000.44 3382.9 2967.81L3377.71 2618.32" fill="#F8A3A2"/>
<path d="M3828.26 2048.64C3889.83 2066.72 3971.35 2173.81 3969.63 2329.77C3967.9 2485.73 3916.73 2624.13 3793.91 2819.32C3793.91 2819.32 3445.19 2764.33 3376.8 2526.41C3376.8 2526.41 3526.08 2261.46 3601.41 2156.04C3676.74 2050.62 3760.39 2028.69 3828.26 2048.64Z" fill="#ECA842"/>
<path d="M3748.48 2574.69C3749.98 2574.61 3897.35 2565.43 3939.08 2407.89L3929.83 2405.44C3889.9 2556.07 3749.43 2565.04 3748.02 2565.12L3748.48 2574.69" fill="white"/>
<path d="M2815.13 2332.26C2820.26 2303.71 2805.89 2274.15 2825.64 2249.24C2842 2228.58 2846.03 2210.82 2851.2 2194.28C2814.18 2185.04 2757.56 2163.6 2723.12 2138.62C2694.58 2117.91 2710.17 2102.96 2727.41 2107.4C2766.55 2117.48 2859.22 2129.04 2903.88 2148C2904.26 2148.16 2904.62 2148.38 2904.96 2148.63C2937.91 2157.2 3034.08 2231.3 3048.21 2250.3C3069.31 2278.64 3057.36 2294.32 3112.09 2364.31C3192.2 2493.07 3552.52 2739.74 3583.62 2787.96C3683.43 2942.83 3448.82 3122.64 3315.65 3004.68C3209.55 2910.74 3059.03 2581.78 3016.28 2446.71L3016.19 2446.77C2994.06 2376.46 2921.59 2418.69 2882.66 2403.22C2843.72 2387.74 2809.98 2360.78 2815.13 2332.26" fill="#F8A3A2"/>
<path d="M3457.37 2724.76C3436.33 2671.45 3374.73 2623.42 3374.14 2622.94L3381.26 2613.7C3383.9 2615.73 3446.01 2664.14 3468.25 2720.48L3457.37 2724.76" fill="#D17F80"/>
<path d="M3432.56 2641.2C3392.65 2600.48 3372.04 2530.99 3371.19 2528.05L3370.48 2525.64L3491.66 2317.51L3501.76 2323.37L3383.13 2527.15C3387.08 2539.61 3407.06 2598.47 3440.92 2633.03L3432.56 2641.2" fill="white"/>
<path d="M2174.85 2463.69L2408.36 2428.87L2351.3 1973.59L2117.79 2008.42L2174.85 2463.69Z" fill="white"/>
<path d="M2149.62 2132.9L2147.96 2133.12L2143.73 2098.42L2180.83 2093.9L2181.03 2095.57L2145.61 2099.89L2149.62 2132.9" fill="#ECA842"/>
<path d="M2214.47 2370.05L2177.39 2374.58L2173.16 2339.89L2174.82 2339.67L2178.85 2372.7L2214.26 2368.38L2214.47 2370.05" fill="#ECA842"/>
<path d="M2353 2108.16L2351.33 2108.35L2347.31 2075.33L2311.89 2079.65L2311.69 2077.96L2348.77 2073.44L2353 2108.16" fill="#ECA842"/>
<path d="M2382.41 2349.62L2345.31 2354.12L2345.11 2352.46L2380.54 2348.14L2376.52 2315.11L2378.2 2314.91L2382.41 2349.62" fill="#ECA842"/>
<path d="M2192.36 2232.3C2192.83 2232.49 2193.33 2232.58 2193.82 2232.58C2194.45 2232.58 2195.08 2232.43 2195.65 2232.14C2196.72 2231.58 2197.52 2230.54 2197.84 2229.3C2204.68 2202.33 2226.63 2183.39 2255.26 2179.86C2284.28 2176.33 2311.74 2190.06 2325.17 2214.9C2326.03 2216.48 2327.69 2217.39 2329.39 2217.18C2330.05 2217.09 2330.7 2216.83 2331.21 2216.46C2333.06 2215.15 2333.62 2212.48 2332.49 2210.39C2324.66 2195.91 2312.76 2184.61 2298.1 2177.7C2284.55 2171.31 2269.35 2168.93 2254 2170.82C2222.06 2174.74 2197.4 2196.18 2189.65 2226.73C2189.06 2229.05 2190.25 2231.49 2192.36 2232.3" fill="#ECA842"/>
<path d="M2196.38 2196.49C2196.53 2196.49 2196.7 2196.47 2196.86 2196.45C2198.2 2196.29 2199.34 2195.49 2199.96 2194.29C2210.29 2175.46 2229.15 2163.46 2253.08 2160.53H2253.5L2253.75 2160.45C2277.53 2157.68 2298.57 2164.81 2313.07 2180.52C2314.01 2181.54 2315.29 2182.05 2316.61 2181.87C2317.68 2181.74 2318.65 2181.18 2319.33 2180.31C2320.73 2178.54 2320.61 2175.84 2319.05 2174.16C2302.55 2156.26 2278.78 2148.22 2252.39 2151.42L2251.79 2151.43L2251.66 2151.5C2225.19 2154.83 2204.25 2168.34 2192.63 2189.55C2191.52 2191.56 2192.08 2194.22 2193.86 2195.61C2194.61 2196.18 2195.48 2196.49 2196.38 2196.49" fill="#ECA842"/>
<path d="M2203.75 2165.25C2203.91 2165.25 2204.06 2165.24 2204.23 2165.21H2204.25C2205.18 2165.11 2206.06 2164.64 2206.72 2163.93C2217.57 2152.21 2232.85 2144.84 2250.89 2142.64H2251.3L2251.53 2142.55C2269.4 2140.48 2285.85 2143.97 2299.14 2152.68C2299.94 2153.21 2300.92 2153.47 2301.85 2153.32C2303.27 2153.15 2304.5 2152.24 2305.13 2150.85C2306.08 2148.76 2305.36 2146.13 2303.46 2144.91C2288.4 2135.04 2269.88 2131.1 2250.16 2133.53H2249.56L2249.42 2133.61C2229.63 2136.1 2212.76 2144.35 2200.64 2157.43C2199.11 2159.09 2199.03 2161.8 2200.47 2163.6C2201.29 2164.65 2202.49 2165.25 2203.75 2165.25" fill="#ECA842"/>
<path d="M2328.16 2278.2C2326.99 2278.44 2325.99 2279.21 2325.39 2280.3C2315.05 2299.17 2296.15 2311.16 2272.12 2314.09C2248.14 2317 2226.89 2309.9 2212.29 2294.08C2211.43 2293.16 2210.24 2292.73 2209.07 2292.7C2207.89 2292.76 2206.78 2293.33 2206.03 2294.28C2204.63 2296.05 2204.74 2298.77 2206.3 2300.45C2220.42 2315.74 2239.84 2323.85 2261.86 2323.85C2265.59 2323.85 2269.4 2323.62 2273.28 2323.14C2299.94 2319.9 2321.05 2306.38 2332.72 2285.05C2333.83 2283.05 2333.29 2280.38 2331.5 2278.98C2330.54 2278.25 2329.32 2277.97 2328.16 2278.2" fill="#ECA842"/>
<path d="M2321.75 2309.36C2320.61 2309.22 2319.45 2309.8 2318.64 2310.68C2307.76 2322.42 2292.45 2329.78 2274.68 2331.97H2274.09L2273.95 2332.04C2256.05 2334.14 2239.54 2330.65 2226.21 2321.93C2225.21 2321.28 2224 2321.08 2222.87 2321.4C2221.72 2321.74 2220.76 2322.6 2220.23 2323.74C2219.28 2325.84 2219.99 2328.45 2221.89 2329.7C2234.06 2337.68 2248.49 2341.77 2263.97 2341.77C2267.6 2341.77 2271.25 2341.54 2274.95 2341.1L2275.01 2341.12L2275.89 2341.08L2276.02 2340.98C2295.77 2338.48 2312.61 2330.24 2324.73 2317.17C2326.24 2315.5 2326.31 2312.8 2324.89 2311C2324.1 2310.01 2322.96 2309.41 2321.75 2309.36Z" fill="#ECA842"/>
<path d="M2208.62 2281.83C2214.87 2289.12 2228.61 2305.15 2259.14 2305.15C2262.82 2305.15 2266.74 2304.91 2270.93 2304.4C2309.85 2299.67 2321.11 2277.15 2325.92 2267.52C2326.97 2265.44 2326.35 2262.84 2324.47 2261.5C2323.48 2260.82 2322.27 2260.56 2321.14 2260.86C2319.99 2261.15 2318.99 2261.95 2318.41 2263.07C2314.23 2271.47 2304.42 2291.12 2269.82 2295.34C2235.29 2299.54 2220.93 2282.83 2214.81 2275.7C2214 2274.74 2212.86 2274.19 2211.66 2274.19C2210.48 2274.07 2209.35 2274.72 2208.55 2275.63C2207.11 2277.36 2207.12 2280.07 2208.62 2281.83" fill="#ECA842"/>
<path d="M2238.25 2272.53C2237.3 2271.77 2236.1 2271.45 2234.93 2271.65C2233.76 2271.88 2232.74 2272.61 2232.11 2273.69C2230.96 2275.67 2231.45 2278.35 2233.2 2279.77C2239.47 2284.89 2249.09 2286.25 2257.57 2286.25C2261.69 2286.25 2265.56 2285.93 2268.64 2285.56C2281.86 2283.92 2300.64 2279.31 2311.17 2258.21C2312.19 2256.15 2311.55 2253.51 2309.72 2252.2C2308.74 2251.51 2307.52 2251.25 2306.37 2251.55C2305.19 2251.84 2304.22 2252.65 2303.63 2253.77C2294.95 2271.21 2278.8 2275.11 2267.43 2276.51C2254.18 2278.11 2243.28 2276.63 2238.25 2272.53" fill="#ECA842"/>
<path d="M2334.39 2234.38C2328.76 2232.78 2317.84 2219.1 2314.26 2214.61C2306.32 2204.66 2299.21 2197.11 2290.16 2192.61C2281.21 2188.15 2270.87 2186.91 2256.67 2188.65C2242.45 2190.39 2232.73 2194.05 2225.11 2200.54C2217.45 2207.09 2212.35 2216.11 2207.07 2227.66C2204.7 2232.89 2197.44 2248.78 2192.35 2251.68C2190.37 2252.81 2189.6 2255.42 2190.57 2257.62C2191.3 2259.26 2192.84 2260.29 2194.5 2260.29C2194.66 2260.29 2194.82 2260.27 2194.99 2260.24C2195.49 2260.18 2196.01 2260.02 2196.45 2259.75C2203.01 2256.02 2209.1 2244.13 2214.71 2231.82C2225.03 2209.27 2233.07 2200.74 2257.79 2197.73C2282.47 2194.71 2292.38 2201.06 2307.84 2220.47C2316.28 2231.06 2325.1 2241.14 2332.37 2243.21C2332.9 2243.35 2333.43 2243.39 2333.93 2243.33C2335.77 2243.1 2337.22 2241.65 2337.55 2239.73C2337.96 2237.35 2336.57 2235 2334.39 2234.38" fill="#ECA842"/>
<path d="M2216 2135.64C2216.15 2135.64 2216.29 2135.64 2216.46 2135.62C2216.91 2135.58 2217.34 2135.44 2217.79 2135.22C2226.86 2130.63 2234.89 2126.97 2248.83 2125.17C2262.8 2123.56 2271.51 2125.18 2281.44 2127.49C2281.91 2127.57 2282.35 2127.6 2282.8 2127.54C2284.67 2127.3 2286.16 2125.76 2286.44 2123.75C2286.76 2121.34 2285.29 2119.07 2283.06 2118.55C2275.34 2116.75 2264.72 2114.33 2248.73 2116.01L2248.45 2116L2247.97 2116.08L2248.36 2118.41L2247.48 2116.14L2246.45 2116.3C2230.71 2118.51 2221.08 2123.39 2214.03 2126.95C2212 2127.99 2211.1 2130.56 2212.01 2132.83C2212.7 2134.53 2214.3 2135.64 2216 2135.64" fill="#ECA842"/>
<path d="M2227.61 2244.06C2234.32 2229.56 2241.41 2217.34 2260.52 2215.02C2270.17 2213.84 2279.26 2222.32 2280.68 2233.93C2281.45 2240.17 2279.87 2246.34 2276.34 2250.86C2273.59 2254.4 2269.81 2256.62 2265.72 2257.12C2255.45 2258.37 2247.58 2256.94 2239.94 2255.57C2234.32 2254.56 2228.95 2253.58 2223.08 2253.53C2224.71 2250.37 2226.17 2247.22 2227.59 2244.14L2225.46 2243.06L2227.61 2244.06ZM2259.4 2205.96C2236.17 2208.78 2227.19 2224.26 2219.94 2240C2217.47 2245.34 2214.91 2250.88 2211.58 2256.02C2210.66 2257.46 2210.6 2259.32 2211.4 2260.85C2212.24 2262.5 2214.01 2263.45 2215.78 2263.2C2223.95 2261.9 2231.08 2263.2 2238.63 2264.56H2238.67C2244.59 2265.64 2250.67 2266.73 2257.92 2266.73C2260.69 2266.73 2263.65 2266.57 2266.81 2266.18C2273.05 2265.44 2278.77 2262.1 2282.89 2256.81C2287.93 2250.38 2290.19 2241.66 2289.11 2232.89C2287.06 2216.29 2273.7 2204.17 2259.4 2205.96Z" fill="#ECA842"/>
<path d="M2248.66 2239.49C2251.6 2236.48 2256.19 2233.18 2262.66 2232.4C2264.16 2232.25 2265.65 2233.75 2265.89 2235.73C2266.14 2237.72 2265.06 2239.56 2263.56 2239.75C2257.88 2240.44 2253.14 2240.13 2248.66 2239.49V2239.49ZM2240.12 2247.27L2240.37 2247.3C2246.1 2248.34 2251.27 2249.28 2257.29 2249.28C2259.61 2249.28 2262.03 2249.13 2264.67 2248.81C2267.41 2248.49 2269.88 2247.02 2271.68 2244.75C2273.8 2242.03 2274.76 2238.37 2274.31 2234.71C2273.44 2227.67 2267.69 2222.54 2261.53 2223.33C2245.32 2225.31 2237.88 2238.96 2237.1 2240.51C2236.45 2241.75 2236.4 2243.26 2236.94 2244.58C2237.53 2245.98 2238.73 2246.97 2240.12 2247.27" fill="#ECA842"/>
<path d="M2119.56 1988.86L2254.69 1969.94L2257.28 1990.43L2188.92 2000.63L2140.2 2008.06C2123.78 2010.54 2112.42 2028.08 2114.82 2047.29L2160.58 2412.41C2162.97 2431.61 2178.24 2445.16 2194.66 2442.72L2311.84 2425.84L2317.23 2468.84L2182.38 2490.14C2165.97 2492.6 2150.7 2479.01 2148.31 2459.84L2094.18 2028.07C2091.76 2008.86 2103.12 1991.3 2119.56 1988.86" fill="#302110"/>
<path d="M2371.76 2416.64L2210.44 2440.71C2194 2443.19 2178.75 2429.63 2176.34 2410.44L2130.59 2045.3C2128.18 2026.1 2139.55 2008.57 2155.95 2006.1L2204.71 1998.82L2207.89 2006.52C2209.52 2011.42 2213.83 2014.4 2218.26 2013.74L2259.19 2007.66C2263.59 2006.99 2267.04 2002.88 2267.41 1997.66L2268.57 1989.32L2317.3 1982.03C2333.74 1979.55 2348.97 1993.14 2351.38 2012.33L2397.15 2377.48C2399.56 2396.64 2388.22 2414.2 2371.76 2416.64ZM2109.94 2026.05L2164.05 2457.83C2166.37 2476.24 2180.49 2489.47 2196.11 2488.37C2196.8 2488.32 2197.48 2488.27 2198.13 2488.15L2395.29 2458.75C2411.72 2456.26 2423.05 2438.78 2420.65 2419.53L2366.53 1987.74C2364.12 1968.57 2348.88 1955.01 2332.44 1957.42L2135.34 1986.85C2134.63 1986.97 2133.95 1987.06 2133.28 1987.25C2117.95 1990.82 2107.63 2007.66 2109.94 2026.05" fill="#3A2410"/>
<path d="M2468.85 2318.79C2468.85 2318.79 2478.34 2282.78 2448.48 2237.23C2418.59 2191.68 2408.28 2171.09 2403.93 2135.31C2399.58 2099.54 2346.49 2133.85 2370.28 2217.78C2394.09 2301.72 2412.59 2344.75 2468.85 2318.79Z" fill="#F8A3A2"/>
<path d="M2469.65 2319.11L2468.07 2318.5C2468.25 2318.04 2476.94 2282.18 2447.77 2237.7L2449.18 2236.76C2479.03 2282.28 2469.83 2318.64 2469.65 2319.11" fill="#D17F80"/>
<path d="M2087.68 2206.39C2087.68 2206.39 2047.79 2191.97 2084.31 2148.25C2120.83 2104.53 2154.31 2122.83 2152.33 2141.17C2150.35 2159.51 2150.45 2171.43 2122.13 2184.91C2122.13 2184.91 2149.4 2185.11 2150.25 2206C2151.09 2226.91 2135.27 2240.41 2135.27 2240.41C2135.27 2240.41 2159.53 2235.59 2164.8 2244.87C2170.07 2254.16 2164.77 2280.59 2141.37 2294.4C2141.37 2294.4 2168.95 2297.81 2156.63 2328.39C2144.32 2358.96 2138.07 2350.23 2138.07 2350.23L2144.4 2388.23C2144.4 2388.23 2092.55 2379.99 2101.51 2319.41C2101.51 2319.41 2067.07 2299.83 2098.32 2265.41C2098.32 2265.41 2048.68 2243.15 2087.68 2206.39" fill="#F8A3A2"/>
<path d="M2133.67 2241.12C2130.45 2242.29 2127.35 2243.65 2124.28 2245.08C2121.23 2246.53 2118.25 2248.12 2115.39 2249.88C2112.48 2251.57 2109.76 2253.57 2107.13 2255.67C2104.48 2257.76 2102.11 2260.16 2099.73 2262.63C2101.57 2259.76 2103.68 2256.97 2106.25 2254.67C2108.77 2252.29 2111.53 2250.19 2114.49 2248.41C2120.4 2244.87 2126.89 2242.23 2133.67 2241.12" fill="white"/>
<path d="M2102.15 2264.95C2104.69 2262.29 2106.85 2260.16 2109.21 2258.29C2112.19 2255.95 2114.68 2254.19 2117.08 2252.77C2119.91 2251.04 2122.79 2249.51 2125.73 2248.09C2128.68 2246.75 2131.69 2245.41 2134.83 2244.27L2133.12 2237.8C2126.28 2238.92 2119.43 2241.53 2112.76 2245.53C2109.69 2247.37 2106.72 2249.61 2103.96 2252.2C2101.51 2254.41 2099.17 2257.25 2096.89 2260.83L2102.15 2264.95Z" fill="#D17F80"/>
<path d="M2138.55 2295.04C2135.32 2296.2 2132.21 2297.57 2129.16 2298.99C2126.11 2300.45 2123.12 2302.03 2120.25 2303.79C2117.35 2305.51 2114.64 2307.49 2112 2309.59C2109.35 2311.68 2106.97 2314.07 2104.6 2316.55C2106.44 2313.67 2108.55 2310.89 2111.12 2308.57C2113.64 2306.23 2116.4 2304.11 2119.36 2302.32C2125.27 2298.79 2131.76 2296.13 2138.55 2295.04" fill="white"/>
<path d="M2107.03 2318.87C2109.56 2316.21 2111.73 2314.07 2114.09 2312.21C2117.05 2309.87 2119.55 2308.09 2121.95 2306.68C2124.77 2304.96 2127.65 2303.43 2130.61 2302.01C2133.55 2300.65 2136.57 2299.32 2139.71 2298.17L2138 2291.72C2131.17 2292.83 2124.32 2295.44 2117.64 2299.44C2114.52 2301.31 2111.56 2303.56 2108.81 2306.13C2106.39 2308.33 2104.05 2311.16 2101.77 2314.73L2107.03 2318.87" fill="#D17F80"/>
<path d="M2122.13 2184.91C2118.92 2186.08 2115.81 2187.44 2112.75 2188.87C2109.69 2190.32 2106.71 2191.91 2103.84 2193.67C2100.93 2195.36 2098.23 2197.36 2095.59 2199.45C2092.93 2201.55 2090.56 2203.93 2088.19 2206.41C2090.03 2203.55 2092.15 2200.76 2094.71 2198.44C2097.23 2196.08 2099.99 2193.97 2102.95 2192.2C2108.85 2188.64 2115.36 2186 2122.13 2184.91" fill="white"/>
<path d="M2090.61 2208.73C2093.15 2206.09 2095.32 2203.95 2097.68 2202.08C2100.63 2199.73 2103.12 2197.99 2105.55 2196.56C2108.37 2194.83 2111.24 2193.29 2114.19 2191.88C2117.13 2190.53 2120.15 2189.19 2123.28 2188.07L2121.59 2181.59C2114.75 2182.71 2107.89 2185.31 2101.23 2189.33C2098.13 2191.17 2095.16 2193.41 2092.41 2195.99C2089.96 2198.2 2087.64 2201.03 2085.36 2204.61L2090.61 2208.73" fill="#D17F80"/>
<path fill-rule="evenodd" clip-rule="evenodd" d="M1572.3 884.194L1433.85 753.275L1616.44 698.822L1572.3 884.194Z" fill="#9F650D"/>
<path d="M1418.57 718.724L1552.18 845.072L1594.78 666.17L1418.57 718.724ZM1554.38 852.425L1411.09 716.948L1600.06 660.593L1554.38 852.425" fill="#3A2410"/>
<path fill-rule="evenodd" clip-rule="evenodd" d="M2536.98 577.159L2385.12 547.225L2415.06 395.381L2566.92 425.296L2536.98 577.159" fill="#ECA842"/>
<path d="M2424.01 533.002L2573.2 562.414L2602.61 413.231L2453.41 383.819L2424.01 533.002ZM2575.34 565.608L2420.82 535.164L2451.26 380.625L2605.8 411.088L2575.34 565.608Z" fill="#3A2410"/>
<path d="M1334.41 1854.44L1335.43 1854.96L1377.04 1771.61L1285.9 1777.04L1285.86 1781.84C1288 1811.77 1305.53 1839.95 1334.41 1854.44Z" fill="#FC721A"/>
<path d="M1240.26 1392.91C1240.26 1399.81 1234.68 1405.38 1227.79 1405.38C1220.9 1405.38 1215.31 1399.81 1215.31 1392.91C1215.31 1386.04 1220.9 1380.44 1227.79 1380.44C1234.68 1380.44 1240.26 1386.04 1240.26 1392.91Z" fill="#B56609"/>
<path d="M1599.15 1357.39C1599.15 1364.28 1593.55 1369.87 1586.68 1369.87C1579.77 1369.87 1574.2 1364.28 1574.2 1357.39C1574.2 1350.5 1579.77 1344.91 1586.68 1344.91C1593.55 1344.91 1599.15 1350.5 1599.15 1357.39Z" fill="#ECA842"/>
<path d="M3321.27 527.707C3321.27 534.594 3315.69 540.177 3308.8 540.177C3301.91 540.177 3296.33 534.594 3296.33 527.707C3296.33 520.82 3301.91 515.216 3308.8 515.216C3315.69 515.216 3321.27 520.82 3321.27 527.707Z" fill="#FC721A"/>
<path d="M1995.39 718.512C1995.39 732.296 1984.23 743.463 1970.44 743.463C1956.66 743.463 1945.49 732.296 1945.49 718.512C1945.49 704.729 1956.66 693.562 1970.44 693.562C1984.23 693.562 1995.39 704.729 1995.39 718.512Z" fill="#FC721A"/>
<path d="M2967.66 823.925C2967.66 837.689 2956.5 848.868 2942.72 848.868C2928.94 848.868 2917.78 837.689 2917.78 823.925C2917.78 810.124 2928.94 798.963 2942.72 798.963C2956.5 798.963 2967.66 810.124 2967.66 823.925Z" fill="#B56609"/>
</g>
<defs>
<clipPath id="clip0_530_546">
<rect width="5333.33" height="3555.56" fill="white"/>
</clipPath>
</defs>
</svg>
