<svg width="17308" height="2940" viewBox="0 0 17308 2940" fill="none" xmlns="http://www.w3.org/2000/svg">
<rect x="1" y="2" width="17299" height="2937" fill="white"/>
<path d="M0 33L2401 2939.5L17290 1128.5V2939.5H2401H0V33Z" fill="#FFB200" fill-opacity="0.5"/>
<path d="M3885.5 2761.5L4 45.5L2403 2936.5L3885.5 2761.5Z" fill="#F9E18D" fill-opacity="0.4"/>
<path d="M16046.5 19H17308V1140.5L3916.5 2746L16046.5 19Z" fill="#FFD062" fill-opacity="0.4"/>
<path d="M9510.5 631L5 83L3878.5 2758.5L9510.5 631Z" fill="#FFD062" fill-opacity="0.4"/>
<path d="M12 0L2 35.5L64 79L8320.5 562L10383.5 0H12Z" fill="#FFB200" fill-opacity="0.52"/>
<path d="M9500 638L3884.5 2758L16028.5 12.5H10337L8339 570.5L9500 638Z" fill="#FEDC84" fill-opacity="0.6"/>
</svg>
