<svg width="785" height="717" viewBox="0 0 785 717" fill="none" xmlns="http://www.w3.org/2000/svg">
<rect width="785" height="717" fill="white"/>
<path d="M487.738 55.6754L505.519 31.9721L528.751 44.5397L487.738 55.6754Z" fill="white" fill-opacity="0.8" stroke="#FFB404" stroke-opacity="0.5" stroke-width="8"/>
<path d="M722.667 172L706 147.104L731 136L722.667 172Z" fill="white" fill-opacity="0.8" stroke="#FFB404" stroke-opacity="0.5" stroke-width="4"/>
<path d="M722.667 172L706 147.104L731 136L722.667 172Z" fill="white" fill-opacity="0.8" stroke="#FFB404" stroke-opacity="0.5" stroke-width="4"/>
<path d="M454.001 104.466L465.217 98.1526L468.704 109.174L454.001 104.466Z" fill="white" fill-opacity="0.8" stroke="#FFB404" stroke-opacity="0.5" stroke-width="8"/>
<path d="M563.709 95.7161L567.352 84.841L578.563 91.3499L563.709 95.7161Z" fill="white" fill-opacity="0.8" stroke="#FFB404" stroke-opacity="0.5" stroke-width="8"/>
<path d="M489.333 140L476 124.094L496 117L489.333 140Z" fill="white" fill-opacity="0.8" stroke="#FFB404" stroke-opacity="0.5" stroke-width="8"/>
<path d="M527.667 74L519 65.7014L532 62L527.667 74Z" fill="white" fill-opacity="0.8" stroke="#FFB404" stroke-opacity="0.5" stroke-width="8"/>
<path d="M595.893 189.585L595.777 172.978L615.117 180.248L595.893 189.585Z" fill="white" fill-opacity="0.8" stroke="#FFB404" stroke-opacity="0.5" stroke-width="5"/>
<path d="M645.278 75.4187L628.639 84.5245L625.441 67.0233L645.278 75.4187Z" fill="white" fill-opacity="0.8" stroke="#FFB404" stroke-opacity="0.5" stroke-width="5"/>
<path d="M635.2 139.346L616.725 145.511L617.756 127.828L635.2 139.346Z" fill="white" fill-opacity="0.8" stroke="#FFB404" stroke-opacity="0.5" stroke-width="8"/>
<path d="M665.333 224L652 211.552L672 206L665.333 224Z" fill="white" fill-opacity="0.8" stroke="#FFB404" stroke-opacity="0.5" stroke-width="5"/>
<path opacity="0.5" d="M710.333 109L697 96.5521L717 91L710.333 109Z" fill="white" fill-opacity="0.8" stroke="#FFB404" stroke-opacity="0.5" stroke-width="5"/>
<path d="M540.542 174.244L537.321 141.143L577.223 153.357L540.542 174.244Z" fill="white" fill-opacity="0.8" stroke="#FFB404" stroke-opacity="0.5" stroke-width="5"/>
<path d="M486.084 264.084L503.865 240.381L527.096 252.949L486.084 264.084Z" fill="white" fill-opacity="0.8" stroke="#FFB404" stroke-opacity="0.5" stroke-width="8"/>
<path d="M721.667 379L705 355.487L730 345L721.667 379Z" fill="white" fill-opacity="0.8" stroke="#FFB404" stroke-opacity="0.5" stroke-width="4"/>
<path d="M721.667 379L705 355.487L730 345L721.667 379Z" fill="white" fill-opacity="0.8" stroke="#FFB404" stroke-opacity="0.5" stroke-width="4"/>
<path d="M452.348 312.875L463.565 306.561L467.052 317.582L452.348 312.875Z" fill="white" fill-opacity="0.8" stroke="#FFB404" stroke-opacity="0.5" stroke-width="8"/>
<path d="M562.057 304.125L565.699 293.25L576.911 299.759L562.057 304.125Z" fill="white" fill-opacity="0.8" stroke="#FFB404" stroke-opacity="0.5" stroke-width="8"/>
<path d="M488.333 349L475 333.094L495 326L488.333 349Z" fill="white" fill-opacity="0.8" stroke="#FFB404" stroke-opacity="0.5" stroke-width="8"/>
<path d="M526.333 283L517 274.01L531 270L526.333 283Z" fill="white" fill-opacity="0.8" stroke="#FFB404" stroke-opacity="0.5" stroke-width="8"/>
<path d="M594.239 397.994L594.123 381.387L613.462 388.657L594.239 397.994Z" fill="white" fill-opacity="0.8" stroke="#FFB404" stroke-opacity="0.5" stroke-width="5"/>
<path d="M643.624 283.828L626.985 292.933L623.787 275.432L643.624 283.828Z" fill="white" fill-opacity="0.8" stroke="#FFB404" stroke-opacity="0.5" stroke-width="5"/>
<path d="M633.547 347.754L615.072 353.92L616.104 336.237L633.547 347.754Z" fill="white" fill-opacity="0.8" stroke="#FFB404" stroke-opacity="0.5" stroke-width="8"/>
<path d="M663.667 433L651 420.552L670 415L663.667 433Z" fill="white" fill-opacity="0.8" stroke="#FFB404" stroke-opacity="0.5" stroke-width="5"/>
<path opacity="0.5" d="M709 317L695 304.552L716 299L709 317Z" fill="white" fill-opacity="0.8" stroke="#FFB404" stroke-opacity="0.5" stroke-width="5"/>
<path d="M538.89 382.653L535.669 349.552L575.571 361.766L538.89 382.653Z" fill="white" fill-opacity="0.8" stroke="#FFB404" stroke-opacity="0.5" stroke-width="5"/>
<path d="M97.4756 251.382L70.1388 235.968L84.6244 215.817L97.4756 251.382Z" fill="white" fill-opacity="0.8" stroke="#FFB404" stroke-opacity="0.5" stroke-width="8"/>
<path d="M230.708 47.2679L202.81 61.3933L190.359 40.2176L230.708 47.2679Z" fill="white" fill-opacity="0.8" stroke="#FFB404" stroke-opacity="0.5" stroke-width="4"/>
<path d="M230.708 47.2679L202.81 61.3933L190.359 40.2176L230.708 47.2679Z" fill="white" fill-opacity="0.8" stroke="#FFB404" stroke-opacity="0.5" stroke-width="4"/>
<path d="M153.744 280.627L146.461 270.901L159.168 267.874L153.744 280.627Z" fill="white" fill-opacity="0.8" stroke="#FFB404" stroke-opacity="0.5" stroke-width="8"/>
<path d="M143.627 185.486L131.086 182.329L138.589 172.605L143.627 185.486Z" fill="white" fill-opacity="0.8" stroke="#FFB404" stroke-opacity="0.5" stroke-width="8"/>
<path d="M195.377 249.444L176.535 260.907L168.124 243.721L195.377 249.444Z" fill="white" fill-opacity="0.8" stroke="#FFB404" stroke-opacity="0.5" stroke-width="8"/>
<path d="M118.919 216.517L108.886 224.09L104.407 212.735L118.919 216.517Z" fill="white" fill-opacity="0.8" stroke="#FFB404" stroke-opacity="0.5" stroke-width="8"/>
<path d="M251.857 157.551L232.708 157.656L241.086 140.882L251.857 157.551Z" fill="white" fill-opacity="0.8" stroke="#FFB404" stroke-opacity="0.5" stroke-width="5"/>
<path d="M120.201 114.752L130.705 129.18L110.526 131.958L120.201 114.752Z" fill="white" fill-opacity="0.8" stroke="#FFB404" stroke-opacity="0.5" stroke-width="5"/>
<path d="M193.916 123.476L201.03 139.496L180.64 138.606L193.916 123.476Z" fill="white" fill-opacity="0.8" stroke="#FFB404" stroke-opacity="0.5" stroke-width="8"/>
<path d="M291.952 97.4889L277.515 108.951L271.069 91.7643L291.952 97.4889Z" fill="white" fill-opacity="0.8" stroke="#FFB404" stroke-opacity="0.5" stroke-width="5"/>
<path opacity="0.5" d="M158.156 58.1294L144.209 70.0007L137.981 52.1999L158.156 58.1294Z" fill="white" fill-opacity="0.8" stroke="#FFB404" stroke-opacity="0.5" stroke-width="5"/>
<path d="M234.181 205.556L196.013 208.358L210.087 173.75L234.181 205.556Z" fill="white" fill-opacity="0.8" stroke="#FFB404" stroke-opacity="0.5" stroke-width="5"/>
<path d="M337.788 252.761L310.451 237.347L324.937 217.196L337.788 252.761Z" fill="white" fill-opacity="0.8" stroke="#FFB404" stroke-opacity="0.5" stroke-width="8"/>
<path d="M471.023 48.6466L443.125 62.7719L430.673 41.5963L471.023 48.6466Z" fill="white" fill-opacity="0.8" stroke="#FFB404" stroke-opacity="0.5" stroke-width="4"/>
<path d="M471.023 48.6466L443.125 62.7719L430.673 41.5963L471.023 48.6466Z" fill="white" fill-opacity="0.8" stroke="#FFB404" stroke-opacity="0.5" stroke-width="4"/>
<path d="M394.058 282.005L386.775 272.279L399.482 269.252L394.058 282.005Z" fill="white" fill-opacity="0.8" stroke="#FFB404" stroke-opacity="0.5" stroke-width="8"/>
<path d="M383.94 186.864L371.399 183.708L378.901 173.984L383.94 186.864Z" fill="white" fill-opacity="0.8" stroke="#FFB404" stroke-opacity="0.5" stroke-width="8"/>
<path d="M435.69 250.822L416.847 262.286L408.436 245.099L435.69 250.822Z" fill="white" fill-opacity="0.8" stroke="#FFB404" stroke-opacity="0.5" stroke-width="8"/>
<path d="M359.233 217.895L349.201 225.469L344.721 214.113L359.233 217.895Z" fill="white" fill-opacity="0.8" stroke="#FFB404" stroke-opacity="0.5" stroke-width="8"/>
<path d="M492.17 158.929L473.021 159.034L481.399 142.26L492.17 158.929Z" fill="white" fill-opacity="0.8" stroke="#FFB404" stroke-opacity="0.5" stroke-width="5"/>
<path d="M360.514 116.131L371.018 130.559L350.838 133.336L360.514 116.131Z" fill="white" fill-opacity="0.8" stroke="#FFB404" stroke-opacity="0.5" stroke-width="5"/>
<path d="M434.229 124.854L441.343 140.875L420.953 139.985L434.229 124.854Z" fill="white" fill-opacity="0.8" stroke="#FFB404" stroke-opacity="0.5" stroke-width="8"/>
<path d="M532.265 98.8676L517.828 110.33L511.382 93.1429L532.265 98.8676Z" fill="white" fill-opacity="0.8" stroke="#FFB404" stroke-opacity="0.5" stroke-width="5"/>
<path opacity="0.5" d="M398.471 59.5081L384.523 71.3794L378.295 53.5786L398.471 59.5081Z" fill="white" fill-opacity="0.8" stroke="#FFB404" stroke-opacity="0.5" stroke-width="5"/>
<path d="M474.495 206.934L436.328 209.737L450.401 175.129L474.495 206.934Z" fill="white" fill-opacity="0.8" stroke="#FFB404" stroke-opacity="0.5" stroke-width="5"/>
<path d="M529.613 353.684L548.317 361.909L540.537 375.463L529.613 353.684Z" fill="white" fill-opacity="0.8" stroke="#FFB404" stroke-opacity="0.5" stroke-width="8"/>
<path d="M459.462 490.225L476.304 479.734L485.889 492.434L459.462 490.225Z" fill="white" fill-opacity="0.8" stroke="#FFB404" stroke-opacity="0.5" stroke-width="4"/>
<path d="M459.462 490.225L476.304 479.734L485.889 492.434L459.462 490.225Z" fill="white" fill-opacity="0.8" stroke="#FFB404" stroke-opacity="0.5" stroke-width="4"/>
<path d="M491.298 338.325L496.704 344.07L488.777 346.694L491.298 338.325Z" fill="white" fill-opacity="0.8" stroke="#FFB404" stroke-opacity="0.5" stroke-width="8"/>
<path d="M504.951 397.94L513.237 399.237L509.154 405.807L504.951 397.94Z" fill="white" fill-opacity="0.8" stroke="#FFB404" stroke-opacity="0.5" stroke-width="8"/>
<path d="M466.923 360.371L478.154 352.069L484.846 362.471L466.923 360.371Z" fill="white" fill-opacity="0.8" stroke="#FFB404" stroke-opacity="0.5" stroke-width="8"/>
<path d="M518.473 376.934L524.342 371.584L528.072 378.517L518.473 376.934Z" fill="white" fill-opacity="0.8" stroke="#FFB404" stroke-opacity="0.5" stroke-width="8"/>
<path d="M437.589 421.647L449.871 420.512L445.756 431.59L437.589 421.647Z" fill="white" fill-opacity="0.8" stroke="#FFB404" stroke-opacity="0.5" stroke-width="5"/>
<path d="M525.309 441.375L517.481 432.835L530.224 429.952L525.309 441.375Z" fill="white" fill-opacity="0.8" stroke="#FFB404" stroke-opacity="0.5" stroke-width="5"/>
<path d="M477.34 439.969L471.569 430.232L484.722 429.658L477.34 439.969Z" fill="white" fill-opacity="0.8" stroke="#FFB404" stroke-opacity="0.5" stroke-width="8"/>
<path d="M416.375 461.875L424.778 453.819L430.209 464.331L416.375 461.875Z" fill="white" fill-opacity="0.8" stroke="#FFB404" stroke-opacity="0.5" stroke-width="5"/>
<path opacity="0.5" d="M505.208 479.308L513.266 471.021L518.603 481.933L505.208 479.308Z" fill="white" fill-opacity="0.8" stroke="#FFB404" stroke-opacity="0.5" stroke-width="5"/>
<path d="M445.321 390.296L469.607 386.395L463.178 409.07L445.321 390.296Z" fill="white" fill-opacity="0.8" stroke="#FFB404" stroke-opacity="0.5" stroke-width="5"/>
<path d="M375.273 366.216L393.978 374.441L386.197 387.995L375.273 366.216Z" fill="white" fill-opacity="0.8" stroke="#FFB404" stroke-opacity="0.5" stroke-width="8"/>
<path d="M350.611 410.472L358.898 411.769L354.814 418.339L350.611 410.472Z" fill="white" fill-opacity="0.8" stroke="#FFB404" stroke-opacity="0.5" stroke-width="8"/>
<path d="M364.133 389.466L370.002 384.116L373.732 391.049L364.133 389.466Z" fill="white" fill-opacity="0.8" stroke="#FFB404" stroke-opacity="0.5" stroke-width="8"/>
<path d="M370.969 453.907L363.142 445.367L375.884 442.484L370.969 453.907Z" fill="white" fill-opacity="0.8" stroke="#FFB404" stroke-opacity="0.5" stroke-width="5"/>
<path opacity="0.5" d="M350.868 491.84L358.926 483.553L364.263 494.465L350.868 491.84Z" fill="white" fill-opacity="0.8" stroke="#FFB404" stroke-opacity="0.5" stroke-width="5"/>
<path d="M537.54 319.378L527.911 335.363L512.055 328.709L537.54 319.378Z" fill="white" fill-opacity="0.8" stroke="#FFB404" stroke-opacity="0.5" stroke-width="8"/>
<path d="M78.9567 303.986L96.7379 280.282L119.969 292.85L78.9567 303.986Z" fill="white" fill-opacity="0.8" stroke="#FFB404" stroke-opacity="0.5" stroke-width="8"/>
<path d="M314 420L298 395.104L322 384L314 420Z" fill="white" fill-opacity="0.8" stroke="#FFB404" stroke-opacity="0.5" stroke-width="4"/>
<path d="M314 420L298 395.104L322 384L314 420Z" fill="white" fill-opacity="0.8" stroke="#FFB404" stroke-opacity="0.5" stroke-width="4"/>
<path d="M45.2214 352.777L56.4382 346.463L59.9251 357.484L45.2214 352.777Z" fill="white" fill-opacity="0.8" stroke="#FFB404" stroke-opacity="0.5" stroke-width="8"/>
<path d="M154.93 344.027L158.573 333.151L169.784 339.66L154.93 344.027Z" fill="white" fill-opacity="0.8" stroke="#FFB404" stroke-opacity="0.5" stroke-width="8"/>
<path d="M81.3333 389L68 372.403L88 365L81.3333 389Z" fill="white" fill-opacity="0.8" stroke="#FFB404" stroke-opacity="0.5" stroke-width="8"/>
<path d="M118.667 323L110 314.01L123 310L118.667 323Z" fill="white" fill-opacity="0.8" stroke="#FFB404" stroke-opacity="0.5" stroke-width="8"/>
<path d="M187.112 437.895L186.996 421.289L206.335 428.559L187.112 437.895Z" fill="white" fill-opacity="0.8" stroke="#FFB404" stroke-opacity="0.5" stroke-width="5"/>
<path d="M236.497 323.729L219.858 332.835L216.66 315.334L236.497 323.729Z" fill="white" fill-opacity="0.8" stroke="#FFB404" stroke-opacity="0.5" stroke-width="5"/>
<path d="M226.418 387.656L207.943 393.821L208.975 376.139L226.418 387.656Z" fill="white" fill-opacity="0.8" stroke="#FFB404" stroke-opacity="0.5" stroke-width="8"/>
<path d="M256.333 473L243 460.552L263 455L256.333 473Z" fill="white" fill-opacity="0.8" stroke="#FFB404" stroke-opacity="0.5" stroke-width="5"/>
<path opacity="0.5" d="M302 357L288 344.552L309 339L302 357Z" fill="white" fill-opacity="0.8" stroke="#FFB404" stroke-opacity="0.5" stroke-width="5"/>
<path d="M131.763 422.554L128.542 389.453L168.444 401.667L131.763 422.554Z" fill="white" fill-opacity="0.8" stroke="#FFB404" stroke-opacity="0.5" stroke-width="5"/>
<path d="M77.3024 512.395L95.0836 488.691L118.315 501.259L77.3024 512.395Z" fill="white" fill-opacity="0.8" stroke="#FFB404" stroke-opacity="0.5" stroke-width="8"/>
<path d="M313 628L297 603.796L321 593L313 628Z" fill="white" fill-opacity="0.8" stroke="#FFB404" stroke-opacity="0.5" stroke-width="4"/>
<path d="M313 628L297 603.796L321 593L313 628Z" fill="white" fill-opacity="0.8" stroke="#FFB404" stroke-opacity="0.5" stroke-width="4"/>
<path d="M43.5671 561.185L54.7839 554.872L58.2708 565.893L43.5671 561.185Z" fill="white" fill-opacity="0.8" stroke="#FFB404" stroke-opacity="0.5" stroke-width="8"/>
<path d="M153.277 552.435L156.92 541.56L168.132 548.069L153.277 552.435Z" fill="white" fill-opacity="0.8" stroke="#FFB404" stroke-opacity="0.5" stroke-width="8"/>
<path d="M79.6667 597L67 581.094L86 574L79.6667 597Z" fill="white" fill-opacity="0.8" stroke="#FFB404" stroke-opacity="0.5" stroke-width="8"/>
<path d="M117.667 531L109 522.01L122 518L117.667 531Z" fill="white" fill-opacity="0.8" stroke="#FFB404" stroke-opacity="0.5" stroke-width="8"/>
<path d="M185.459 646.304L185.343 629.697L204.683 636.968L185.459 646.304Z" fill="white" fill-opacity="0.8" stroke="#FFB404" stroke-opacity="0.5" stroke-width="5"/>
<path d="M234.843 532.138L218.204 541.244L215.006 523.742L234.843 532.138Z" fill="white" fill-opacity="0.8" stroke="#FFB404" stroke-opacity="0.5" stroke-width="5"/>
<path d="M224.766 596.065L206.291 602.23L207.323 584.547L224.766 596.065Z" fill="white" fill-opacity="0.8" stroke="#FFB404" stroke-opacity="0.5" stroke-width="8"/>
<path d="M254.333 681L241 668.552L261 663L254.333 681Z" fill="white" fill-opacity="0.8" stroke="#FFB404" stroke-opacity="0.5" stroke-width="5"/>
<path opacity="0.5" d="M300.333 565L287 553.244L307 548L300.333 565Z" fill="white" fill-opacity="0.8" stroke="#FFB404" stroke-opacity="0.5" stroke-width="5"/>
<path d="M130.111 630.963L126.89 597.862L166.792 610.076L130.111 630.963Z" fill="white" fill-opacity="0.8" stroke="#FFB404" stroke-opacity="0.5" stroke-width="5"/>
<path d="M465.903 684.347L456.275 700.332L440.419 693.679L465.903 684.347Z" fill="white" fill-opacity="0.8" stroke="#FFB404" stroke-opacity="0.5" stroke-width="8"/>
<path d="M306.17 624.353L318.44 638.751L303.579 646.94L306.17 624.353Z" fill="white" fill-opacity="0.8" stroke="#FFB404" stroke-opacity="0.5" stroke-width="4"/>
<path d="M306.17 624.353L318.44 638.751L303.579 646.94L306.17 624.353Z" fill="white" fill-opacity="0.8" stroke="#FFB404" stroke-opacity="0.5" stroke-width="4"/>
<path d="M483.883 651.604L477.159 656.223L474.092 649.446L483.883 651.604Z" fill="white" fill-opacity="0.8" stroke="#FFB404" stroke-opacity="0.5" stroke-width="8"/>
<path d="M414.13 663.258L412.61 670.34L404.925 666.848L414.13 663.258Z" fill="white" fill-opacity="0.8" stroke="#FFB404" stroke-opacity="0.5" stroke-width="8"/>
<path d="M458.095 630.766L467.805 640.367L455.633 646.083L458.095 630.766Z" fill="white" fill-opacity="0.8" stroke="#FFB404" stroke-opacity="0.5" stroke-width="8"/>
<path d="M438.704 674.82L444.962 679.838L436.849 683.024L438.704 674.82Z" fill="white" fill-opacity="0.8" stroke="#FFB404" stroke-opacity="0.5" stroke-width="8"/>
<path d="M386.41 605.677L387.734 616.175L374.775 612.655L386.41 605.677Z" fill="white" fill-opacity="0.8" stroke="#FFB404" stroke-opacity="0.5" stroke-width="5"/>
<path d="M363.306 680.646L373.3 673.958L376.669 684.85L363.306 680.646Z" fill="white" fill-opacity="0.8" stroke="#FFB404" stroke-opacity="0.5" stroke-width="5"/>
<path d="M364.964 639.648L376.357 634.718L377.026 645.96L364.964 639.648Z" fill="white" fill-opacity="0.8" stroke="#FFB404" stroke-opacity="0.5" stroke-width="8"/>
<path d="M339.35 587.535L348.773 594.719L336.473 599.358L339.35 587.535Z" fill="white" fill-opacity="0.8" stroke="#FFB404" stroke-opacity="0.5" stroke-width="5"/>
<path opacity="0.5" d="M318.93 663.456L328.623 670.346L315.855 674.904L318.93 663.456Z" fill="white" fill-opacity="0.8" stroke="#FFB404" stroke-opacity="0.5" stroke-width="5"/>
<path d="M423.088 612.294L427.646 633.052L401.117 627.551L423.088 612.294Z" fill="white" fill-opacity="0.8" stroke="#FFB404" stroke-opacity="0.5" stroke-width="5"/>
<path d="M451.28 552.429L441.652 568.414L425.796 561.76L451.28 552.429Z" fill="white" fill-opacity="0.8" stroke="#FFB404" stroke-opacity="0.5" stroke-width="8"/>
<path d="M291.549 492.435L303.819 506.833L288.957 515.022L291.549 492.435Z" fill="white" fill-opacity="0.8" stroke="#FFB404" stroke-opacity="0.5" stroke-width="4"/>
<path d="M291.549 492.435L303.819 506.833L288.957 515.022L291.549 492.435Z" fill="white" fill-opacity="0.8" stroke="#FFB404" stroke-opacity="0.5" stroke-width="4"/>
<path d="M469.262 519.685L462.538 524.305L459.471 517.528L469.262 519.685Z" fill="white" fill-opacity="0.8" stroke="#FFB404" stroke-opacity="0.5" stroke-width="8"/>
<path d="M399.509 531.339L397.989 538.421L390.304 534.93L399.509 531.339Z" fill="white" fill-opacity="0.8" stroke="#FFB404" stroke-opacity="0.5" stroke-width="8"/>
<path d="M443.474 498.847L453.184 508.448L441.012 514.165L443.474 498.847Z" fill="white" fill-opacity="0.8" stroke="#FFB404" stroke-opacity="0.5" stroke-width="8"/>
<path d="M424.083 542.902L430.341 547.92L422.228 551.105L424.083 542.902Z" fill="white" fill-opacity="0.8" stroke="#FFB404" stroke-opacity="0.5" stroke-width="8"/>
<path d="M371.789 473.759L373.113 484.257L360.153 480.737L371.789 473.759Z" fill="white" fill-opacity="0.8" stroke="#FFB404" stroke-opacity="0.5" stroke-width="5"/>
<path d="M348.684 548.728L358.678 542.04L362.048 552.932L348.684 548.728Z" fill="white" fill-opacity="0.8" stroke="#FFB404" stroke-opacity="0.5" stroke-width="5"/>
<path d="M350.343 507.73L361.736 502.799L362.405 514.042L350.343 507.73Z" fill="white" fill-opacity="0.8" stroke="#FFB404" stroke-opacity="0.5" stroke-width="8"/>
<path d="M324.729 455.617L334.152 462.801L321.852 467.44L324.729 455.617Z" fill="white" fill-opacity="0.8" stroke="#FFB404" stroke-opacity="0.5" stroke-width="5"/>
<path opacity="0.5" d="M304.309 531.538L314.002 538.427L301.233 542.986L304.309 531.538Z" fill="white" fill-opacity="0.8" stroke="#FFB404" stroke-opacity="0.5" stroke-width="5"/>
<path d="M408.467 480.376L413.025 501.133L386.496 495.633L408.467 480.376Z" fill="white" fill-opacity="0.8" stroke="#FFB404" stroke-opacity="0.5" stroke-width="5"/>
<path d="M701.65 538.788L720.355 547.013L712.574 560.567L701.65 538.788Z" fill="white" fill-opacity="0.8" stroke="#FFB404" stroke-opacity="0.5" stroke-width="8"/>
<path d="M631.501 675.329L648.343 664.838L657.928 677.538L631.501 675.329Z" fill="white" fill-opacity="0.8" stroke="#FFB404" stroke-opacity="0.5" stroke-width="4"/>
<path d="M631.501 675.329L648.343 664.838L657.928 677.538L631.501 675.329Z" fill="white" fill-opacity="0.8" stroke="#FFB404" stroke-opacity="0.5" stroke-width="4"/>
<path d="M663.335 523.428L668.742 529.174L660.814 531.798L663.335 523.428Z" fill="white" fill-opacity="0.8" stroke="#FFB404" stroke-opacity="0.5" stroke-width="8"/>
<path d="M676.988 583.044L685.275 584.341L681.191 590.911L676.988 583.044Z" fill="white" fill-opacity="0.8" stroke="#FFB404" stroke-opacity="0.5" stroke-width="8"/>
<path d="M638.962 545.475L650.193 537.173L656.885 547.575L638.962 545.475Z" fill="white" fill-opacity="0.8" stroke="#FFB404" stroke-opacity="0.5" stroke-width="8"/>
<path d="M690.51 562.038L696.379 556.688L700.109 563.621L690.51 562.038Z" fill="white" fill-opacity="0.8" stroke="#FFB404" stroke-opacity="0.5" stroke-width="8"/>
<path d="M609.628 606.751L621.91 605.616L617.795 616.694L609.628 606.751Z" fill="white" fill-opacity="0.8" stroke="#FFB404" stroke-opacity="0.5" stroke-width="5"/>
<path d="M697.346 626.479L689.519 617.939L702.261 615.056L697.346 626.479Z" fill="white" fill-opacity="0.8" stroke="#FFB404" stroke-opacity="0.5" stroke-width="5"/>
<path d="M649.379 625.073L643.608 615.336L656.761 614.762L649.379 625.073Z" fill="white" fill-opacity="0.8" stroke="#FFB404" stroke-opacity="0.5" stroke-width="8"/>
<path d="M588.414 646.978L596.817 638.923L602.248 649.435L588.414 646.978Z" fill="white" fill-opacity="0.8" stroke="#FFB404" stroke-opacity="0.5" stroke-width="5"/>
<path opacity="0.5" d="M677.245 664.412L685.303 656.125L690.64 667.037L677.245 664.412Z" fill="white" fill-opacity="0.8" stroke="#FFB404" stroke-opacity="0.5" stroke-width="5"/>
<path d="M617.36 575.4L641.646 571.499L635.217 594.174L617.36 575.4Z" fill="white" fill-opacity="0.8" stroke="#FFB404" stroke-opacity="0.5" stroke-width="5"/>
<path d="M547.31 551.32L566.015 559.545L558.234 573.099L547.31 551.32Z" fill="white" fill-opacity="0.8" stroke="#FFB404" stroke-opacity="0.5" stroke-width="8"/>
<path d="M477.159 687.861L494.001 677.37L503.586 690.07L477.159 687.861Z" fill="white" fill-opacity="0.8" stroke="#FFB404" stroke-opacity="0.5" stroke-width="4"/>
<path d="M477.159 687.861L494.001 677.37L503.586 690.07L477.159 687.861Z" fill="white" fill-opacity="0.8" stroke="#FFB404" stroke-opacity="0.5" stroke-width="4"/>
<path d="M508.995 535.96L514.402 541.706L506.474 544.33L508.995 535.96Z" fill="white" fill-opacity="0.8" stroke="#FFB404" stroke-opacity="0.5" stroke-width="8"/>
<path d="M522.65 595.576L530.937 596.873L526.853 603.443L522.65 595.576Z" fill="white" fill-opacity="0.8" stroke="#FFB404" stroke-opacity="0.5" stroke-width="8"/>
<path d="M484.622 558.007L495.853 549.705L502.545 560.107L484.622 558.007Z" fill="white" fill-opacity="0.8" stroke="#FFB404" stroke-opacity="0.5" stroke-width="8"/>
<path d="M536.172 574.57L542.041 569.22L545.771 576.153L536.172 574.57Z" fill="white" fill-opacity="0.8" stroke="#FFB404" stroke-opacity="0.5" stroke-width="8"/>
<path d="M455.288 619.283L467.57 618.148L463.455 629.226L455.288 619.283Z" fill="white" fill-opacity="0.8" stroke="#FFB404" stroke-opacity="0.5" stroke-width="5"/>
<path d="M543.008 639.011L535.181 630.471L547.923 627.588L543.008 639.011Z" fill="white" fill-opacity="0.8" stroke="#FFB404" stroke-opacity="0.5" stroke-width="5"/>
<path d="M495.04 637.605L489.268 627.868L502.422 627.294L495.04 637.605Z" fill="white" fill-opacity="0.8" stroke="#FFB404" stroke-opacity="0.5" stroke-width="8"/>
<path d="M434.074 659.51L442.478 651.455L447.908 661.967L434.074 659.51Z" fill="white" fill-opacity="0.8" stroke="#FFB404" stroke-opacity="0.5" stroke-width="5"/>
<path opacity="0.5" d="M522.905 676.944L530.963 668.657L536.3 679.569L522.905 676.944Z" fill="white" fill-opacity="0.8" stroke="#FFB404" stroke-opacity="0.5" stroke-width="5"/>
<path d="M463.02 587.932L487.306 584.031L480.877 606.706L463.02 587.932Z" fill="white" fill-opacity="0.8" stroke="#FFB404" stroke-opacity="0.5" stroke-width="5"/>
<path d="M709.579 504.481L699.95 520.466L684.094 513.813L709.579 504.481Z" fill="white" fill-opacity="0.8" stroke="#FFB404" stroke-opacity="0.5" stroke-width="8"/>
<path d="M549.842 444.487L562.112 458.885L547.25 467.074L549.842 444.487Z" fill="white" fill-opacity="0.8" stroke="#FFB404" stroke-opacity="0.5" stroke-width="4"/>
<path d="M549.842 444.487L562.112 458.885L547.25 467.074L549.842 444.487Z" fill="white" fill-opacity="0.8" stroke="#FFB404" stroke-opacity="0.5" stroke-width="4"/>
<path d="M727.557 471.738L720.833 476.357L717.766 469.58L727.557 471.738Z" fill="white" fill-opacity="0.8" stroke="#FFB404" stroke-opacity="0.5" stroke-width="8"/>
<path d="M657.805 483.392L656.286 490.474L648.601 486.982L657.805 483.392Z" fill="white" fill-opacity="0.8" stroke="#FFB404" stroke-opacity="0.5" stroke-width="8"/>
<path d="M701.771 450.9L711.481 460.501L699.309 466.217L701.771 450.9Z" fill="white" fill-opacity="0.8" stroke="#FFB404" stroke-opacity="0.5" stroke-width="8"/>
<path d="M682.378 494.954L688.636 499.972L680.523 503.158L682.378 494.954Z" fill="white" fill-opacity="0.8" stroke="#FFB404" stroke-opacity="0.5" stroke-width="8"/>
<path d="M630.086 425.811L631.41 436.309L618.45 432.789L630.086 425.811Z" fill="white" fill-opacity="0.8" stroke="#FFB404" stroke-opacity="0.5" stroke-width="5"/>
<path d="M606.979 500.78L616.973 494.092L620.343 504.984L606.979 500.78Z" fill="white" fill-opacity="0.8" stroke="#FFB404" stroke-opacity="0.5" stroke-width="5"/>
<path d="M608.638 459.782L620.031 454.852L620.7 466.094L608.638 459.782Z" fill="white" fill-opacity="0.8" stroke="#FFB404" stroke-opacity="0.5" stroke-width="8"/>
<path d="M583.024 407.669L592.447 414.853L580.147 419.492L583.024 407.669Z" fill="white" fill-opacity="0.8" stroke="#FFB404" stroke-opacity="0.5" stroke-width="5"/>
<path opacity="0.5" d="M562.605 483.59L572.299 490.48L559.53 495.038L562.605 483.59Z" fill="white" fill-opacity="0.8" stroke="#FFB404" stroke-opacity="0.5" stroke-width="5"/>
<path d="M666.764 432.428L671.322 453.186L644.793 447.686L666.764 432.428Z" fill="white" fill-opacity="0.8" stroke="#FFB404" stroke-opacity="0.5" stroke-width="5"/>
<path d="M694.956 372.563L685.327 388.548L669.471 381.894L694.956 372.563Z" fill="white" fill-opacity="0.8" stroke="#FFB404" stroke-opacity="0.5" stroke-width="8"/>
<path d="M535.221 312.569L547.491 326.967L532.629 335.156L535.221 312.569Z" fill="white" fill-opacity="0.8" stroke="#FFB404" stroke-opacity="0.5" stroke-width="4"/>
<path d="M535.221 312.569L547.491 326.967L532.629 335.156L535.221 312.569Z" fill="white" fill-opacity="0.8" stroke="#FFB404" stroke-opacity="0.5" stroke-width="4"/>
<path d="M712.936 339.819L706.212 344.439L703.145 337.662L712.936 339.819Z" fill="white" fill-opacity="0.8" stroke="#FFB404" stroke-opacity="0.5" stroke-width="8"/>
<path d="M643.182 351.473L641.663 358.555L633.977 355.064L643.182 351.473Z" fill="white" fill-opacity="0.8" stroke="#FFB404" stroke-opacity="0.5" stroke-width="8"/>
<path d="M687.148 318.981L696.858 328.582L684.686 334.299L687.148 318.981Z" fill="white" fill-opacity="0.8" stroke="#FFB404" stroke-opacity="0.5" stroke-width="8"/>
<path d="M667.755 363.036L674.013 368.054L665.9 371.239L667.755 363.036Z" fill="white" fill-opacity="0.8" stroke="#FFB404" stroke-opacity="0.5" stroke-width="8"/>
<path d="M615.465 293.893L616.789 304.391L603.829 300.871L615.465 293.893Z" fill="white" fill-opacity="0.8" stroke="#FFB404" stroke-opacity="0.5" stroke-width="5"/>
<path d="M592.358 368.862L602.352 362.174L605.722 373.066L592.358 368.862Z" fill="white" fill-opacity="0.8" stroke="#FFB404" stroke-opacity="0.5" stroke-width="5"/>
<path d="M594.015 327.864L605.408 322.933L606.077 334.176L594.015 327.864Z" fill="white" fill-opacity="0.8" stroke="#FFB404" stroke-opacity="0.5" stroke-width="8"/>
<path d="M568.403 275.751L577.826 282.935L565.526 287.574L568.403 275.751Z" fill="white" fill-opacity="0.8" stroke="#FFB404" stroke-opacity="0.5" stroke-width="5"/>
<path opacity="0.5" d="M547.984 351.672L557.678 358.561L544.909 363.12L547.984 351.672Z" fill="white" fill-opacity="0.8" stroke="#FFB404" stroke-opacity="0.5" stroke-width="5"/>
<path d="M652.141 300.51L656.699 321.268L630.17 315.767L652.141 300.51Z" fill="white" fill-opacity="0.8" stroke="#FFB404" stroke-opacity="0.5" stroke-width="5"/>
</svg>
