<svg width="8450" height="5434" viewBox="0 0 8450 5434" fill="none" xmlns="http://www.w3.org/2000/svg">
<rect x="5" width="8445" height="5434" fill="white"/>
<path d="M3108 5427L0 3825V5427H3108Z" fill="#FFC736"/>
<path d="M1415.33 4618L5 5427H3373L1415.33 4618Z" fill="#FFCE4F" fill-opacity="0.8"/>
<path d="M1156.1 4450L0.0019195 3351.73L4.91339 5426.72L1156.1 4450Z" fill="#FFB404" fill-opacity="0.7"/>
<path d="M487.557 2560.31L678.787 2254.89L928.634 2416.82L487.557 2560.31Z" fill="white" fill-opacity="0.8" stroke="#FFB404" stroke-width="50"/>
<path d="M3021 4052.5L2846 3737.5L3108.5 3597L3021 4052.5Z" fill="white" fill-opacity="0.8" stroke="#FFB404" stroke-width="40"/>
<path d="M3021 4052.5L2846 3737.5L3108.5 3597L3021 4052.5Z" fill="white" fill-opacity="0.8" stroke="#FFB404" stroke-width="40"/>
<path d="M124.744 3188.98L245.377 3107.63L282.877 3249.64L124.744 3188.98Z" fill="white" fill-opacity="0.8" stroke="#FFB404" stroke-width="10"/>
<path d="M1304.61 3076.24L1343.79 2936.11L1464.36 3019.98L1304.61 3076.24Z" fill="white" fill-opacity="0.8" stroke="#FFB404" stroke-width="10"/>
<path d="M510 3657L372 3444L579 3349L510 3657Z" fill="white" fill-opacity="0.8" stroke="#FFB404" stroke-width="10"/>
<path d="M919 2800L827 2687.28L965 2637L919 2800Z" fill="white" fill-opacity="0.8" stroke="#FFB404" stroke-width="10"/>
<path d="M1650.71 4285.74L1649.46 4071.76L1857.45 4165.44L1650.71 4285.74Z" fill="white" fill-opacity="0.8" stroke="#FFB404" stroke-width="30"/>
<path d="M2181.84 2814.7L2002.89 2932.03L1968.5 2706.53L2181.84 2814.7Z" fill="white" fill-opacity="0.8" stroke="#FFB404" stroke-width="30"/>
<path d="M2073.46 3638.4L1874.77 3717.84L1885.86 3490L2073.46 3638.4Z" fill="white" fill-opacity="0.8" stroke="#FFB404" stroke-width="30"/>
<path d="M2396.67 4730L2252 4572.33L2469 4502L2396.67 4730Z" fill="white" fill-opacity="0.8" stroke="#FFB404" stroke-width="30"/>
<path d="M2882.67 3238L2738 3080.33L2955 3010L2882.67 3238Z" fill="white" fill-opacity="0.8" stroke="#FFB404" stroke-width="30"/>
<path d="M1055.46 4088.07L1020.81 3661.56L1449.95 3818.94L1055.46 4088.07Z" fill="white" fill-opacity="0.8" stroke="#FFB404" stroke-width="50"/>
</svg>
