<svg width="1355" height="1184" viewBox="0 0 1355 1184" fill="none" xmlns="http://www.w3.org/2000/svg">
<line x1="378.526" y1="141.278" x2="464.364" y2="412.838" stroke="#93A0BD"/>
<line x1="138.484" y1="257.126" x2="90.484" y2="442.126" stroke="#93A0BD"/>
<line x1="234.424" y1="554.266" x2="150.424" y2="688.266" stroke="#93A0BD"/>
<line x1="234.394" y1="553.692" x2="292.394" y2="627.692" stroke="#93A0BD"/>
<line x1="239.497" y1="179.941" x2="292.497" y2="627.941" stroke="#93A0BD"/>
<line x1="239.438" y1="179.758" x2="424.438" y2="514.758" stroke="#93A0BD"/>
<line x1="239.467" y1="179.82" x2="336.467" y2="431.82" stroke="#93A0BD"/>
<line x1="239.497" y1="180.052" x2="222.497" y2="343.052" stroke="#93A0BD"/>
<line x1="339.695" y1="434.396" x2="221.695" y2="343.396" stroke="#93A0BD"/>
<line x1="339.695" y1="434.396" x2="221.695" y2="343.396" stroke="#93A0BD"/>
<line x1="339.695" y1="434.396" x2="221.695" y2="343.396" stroke="#93A0BD"/>
<line x1="340.347" y1="433.64" x2="424.347" y2="514.64" stroke="#93A0BD"/>
<line x1="339.703" y1="433.598" x2="435.703" y2="362.598" stroke="#93A0BD"/>
<line x1="340.473" y1="433.837" x2="441.473" y2="726.837" stroke="#93A0BD"/>
<line x1="340.365" y1="434.342" x2="239.365" y2="542.341" stroke="#93A0BD"/>
<line x1="340.245" y1="434.436" x2="167.245" y2="531.436" stroke="#93A0BD"/>
<line x1="144.504" y1="695.934" x2="166.504" y2="530.934" stroke="#93A0BD"/>
<line x1="144.625" y1="696.33" x2="71.6246" y2="613.33" stroke="#93A0BD"/>
<line x1="161.521" y1="910.145" x2="71.5215" y2="613.145" stroke="#93A0BD"/>
<line x1="161.701" y1="910.401" x2="24.7014" y2="808.401" stroke="#93A0BD"/>
<line x1="161.504" y1="910.059" x2="144.504" y2="768.059" stroke="#93A0BD"/>
<line x1="24.8419" y1="807.526" x2="144.842" y2="767.526" stroke="#93A0BD"/>
<line x1="149.944" y1="758.503" x2="432.944" y2="726.503" stroke="#93A0BD"/>
<line x1="158.73" y1="902.579" x2="432.73" y2="726.579" stroke="#93A0BD"/>
<line x1="239.328" y1="179.623" x2="433.328" y2="348.623" stroke="#93A0BD"/>
<line x1="423.503" y1="514.947" x2="440.503" y2="354.947" stroke="#93A0BD"/>
<line x1="440.506" y1="722.077" x2="418.506" y2="580.077" stroke="#93A0BD"/>
<line x1="418.502" y1="579.956" x2="423.502" y2="523.956" stroke="#93A0BD"/>
<line x1="239.303" y1="180.398" x2="138.303" y2="257.398" stroke="#93A0BD"/>
<line x1="216.561" y1="402.239" x2="137.561" y2="257.239" stroke="#93A0BD"/>
<line x1="166.503" y1="536.052" x2="137.503" y2="257.052" stroke="#93A0BD"/>
<line x1="221.649" y1="340.356" x2="137.649" y2="257.356" stroke="#93A0BD"/>
<line x1="222.497" y1="340.054" x2="215.497" y2="404.054" stroke="#93A0BD"/>
<line x1="435.713" y1="722.409" x2="291.713" y2="621.409" stroke="#93A0BD"/>
<line x1="340.483" y1="442.13" x2="292.483" y2="621.13" stroke="#93A0BD"/>
<line x1="416.167" y1="577.471" x2="292.167" y2="621.471" stroke="#93A0BD"/>
<line x1="424.313" y1="515.39" x2="292.313" y2="621.39" stroke="#93A0BD"/>
<line x1="161.548" y1="895.786" x2="291.548" y2="620.786" stroke="#93A0BD"/>
<line x1="149.652" y1="758.641" x2="291.652" y2="620.641" stroke="#93A0BD"/>
<line x1="17.7234" y1="802.584" x2="291.723" y2="620.584" stroke="#93A0BD"/>
<line x1="17.5165" y1="802.872" x2="65.5165" y2="620.872" stroke="#93A0BD"/>
<line x1="90.4943" y1="464.076" x2="66.4943" y2="621.076" stroke="#93A0BD"/>
<line x1="90.3536" y1="463.646" x2="167.354" y2="540.646" stroke="#93A0BD"/>
<line x1="89.7822" y1="463.55" x2="213.782" y2="403.55" stroke="#93A0BD"/>
<line x1="436.108" y1="355.488" x2="214.108" y2="404.488" stroke="#93A0BD"/>
<line x1="89.9404" y1="463.504" x2="339.94" y2="433.504" stroke="#93A0BD"/>
<line x1="17.5618" y1="802.759" x2="161.562" y2="540.759" stroke="#93A0BD"/>
<line x1="238.528" y1="547.164" x2="137.528" y2="257.164" stroke="#93A0BD"/>
<ellipse cx="340" cy="432.5" rx="14" ry="14.5" fill="#47C0F4"/>
<ellipse cx="436" cy="722" rx="12" ry="14" fill="#47C0F4"/>
<circle cx="424.5" cy="515.5" r="8.5" fill="#47C0F4"/>
<ellipse cx="292.5" cy="627" rx="18.5" ry="19" fill="#47C0F4"/>
<circle cx="419.5" cy="577.5" r="16.5" fill="#47C0F4"/>
<ellipse cx="441" cy="355.5" rx="13" ry="12.5" fill="#47C0F4"/>
<ellipse cx="138" cy="257.5" rx="14" ry="14.5" fill="#47C0F4"/>
<ellipse cx="234" cy="547" rx="12" ry="14" fill="#47C0F4"/>
<circle cx="222.5" cy="340.5" r="8.5" fill="#47C0F4"/>
<ellipse cx="90.5" cy="452" rx="18.5" ry="19" fill="#47C0F4"/>
<circle cx="217.5" cy="402.5" r="16.5" fill="#47C0F4"/>
<ellipse cx="239" cy="180.5" rx="13" ry="12.5" fill="#47C0F4"/>
<ellipse cx="66" cy="613.5" rx="14" ry="14.5" fill="#47C0F4"/>
<ellipse cx="162" cy="903" rx="12" ry="14" fill="#47C0F4"/>
<circle cx="150.5" cy="696.5" r="8.5" fill="#47C0F4"/>
<ellipse cx="18.5" cy="808" rx="18.5" ry="19" fill="#47C0F4"/>
<circle cx="145.5" cy="758.5" r="16.5" fill="#47C0F4"/>
<ellipse cx="167" cy="546.5" rx="13" ry="12.5" fill="#47C0F4"/>
<line x1="868.337" y1="33.5914" x2="677.559" y2="22.0727" stroke="#93A0BD"/>
<line x1="595.2" y1="184.895" x2="447.545" y2="128.238" stroke="#93A0BD"/>
<line x1="595.757" y1="184.755" x2="534.296" y2="255.906" stroke="#93A0BD"/>
<line x1="963.51" y1="117.871" x2="534.07" y2="256.055" stroke="#93A0BD"/>
<line x1="963.678" y1="117.778" x2="670.519" y2="363.761" stroke="#93A0BD"/>
<line x1="963.623" y1="117.819" x2="734.986" y2="261.48" stroke="#93A0BD"/>
<line x1="963.775" y1="117.122" x2="1016.42" y2="197.727" stroke="#93A0BD"/>
<line x1="963.856" y1="117.377" x2="971.5" y2="323.982" stroke="#93A0BD"/>
<line x1="1115" y1="324.5" x2="971" y2="324.5" stroke="#93A0BD"/>
<line x1="1011.47" y1="206.161" x2="971.474" y2="324.161" stroke="#93A0BD"/>
<line x1="904.548" y1="463.787" x2="970.548" y2="323.787" stroke="#93A0BD"/>
<line x1="1196.71" y1="488.405" x2="970.706" y2="324.405" stroke="#93A0BD"/>
<line x1="1115" y1="324.5" x2="971" y2="324.5" stroke="#93A0BD"/>
<line x1="1114.6" y1="324.298" x2="1021.6" y2="199.298" stroke="#93A0BD"/>
<line x1="1114.5" y1="323.979" x2="1119.5" y2="205.979" stroke="#93A0BD"/>
<line x1="1208.57" y1="340.251" x2="1122.57" y2="192.251" stroke="#93A0BD"/>
<line x1="1026.99" y1="192.5" x2="1122.99" y2="191.5" stroke="#93A0BD"/>
<line x1="967.21" y1="119.546" x2="1123.21" y2="191.546" stroke="#93A0BD"/>
<line x1="1115.08" y1="323.507" x2="1213.08" y2="339.507" stroke="#93A0BD"/>
<line x1="957.49" y1="117.101" x2="902.133" y2="384.706" stroke="#93A0BD"/>
<line x1="907.502" y1="452.047" x2="901.146" y2="384.652" stroke="#93A0BD"/>
<line x1="1212.06" y1="344.496" x2="901.708" y2="385.101" stroke="#93A0BD"/>
<line x1="963.401" y1="117.893" x2="800.175" y2="132.564" stroke="#93A0BD"/>
<line x1="733.08" y1="265.143" x2="799.683" y2="131.842" stroke="#93A0BD"/>
<line x1="733.08" y1="265.143" x2="799.683" y2="131.842" stroke="#93A0BD"/>
<line x1="733.08" y1="265.143" x2="799.683" y2="131.842" stroke="#93A0BD"/>
<line x1="733.947" y1="265.638" x2="670.617" y2="363.649" stroke="#93A0BD"/>
<line x1="733.865" y1="264.997" x2="822.004" y2="345.548" stroke="#93A0BD"/>
<line x1="898.77" y1="386.444" x2="821.437" y2="346.361" stroke="#93A0BD"/>
<line x1="733.778" y1="265.799" x2="465.677" y2="421.272" stroke="#93A0BD"/>
<line x1="733.262" y1="265.79" x2="607.852" y2="187.45" stroke="#93A0BD"/>
<line x1="733.146" y1="265.69" x2="604.681" y2="114.579" stroke="#93A0BD"/>
<line x1="438.881" y1="123.905" x2="605.031" y2="113.756" stroke="#93A0BD"/>
<line x1="438.515" y1="124.099" x2="505.924" y2="36.4968" stroke="#93A0BD"/>
<line x1="231.943" y1="181.808" x2="506.085" y2="36.36" stroke="#93A0BD"/>
<line x1="231.726" y1="182.033" x2="305.47" y2="27.972" stroke="#93A0BD"/>
<line x1="232.024" y1="181.774" x2="368.102" y2="137.777" stroke="#93A0BD"/>
<line x1="306.356" y1="27.9415" x2="368.691" y2="138.007" stroke="#93A0BD"/>
<line x1="238.831" y1="177.613" x2="464.248" y2="412.642" stroke="#93A0BD"/>
<line x1="963.79" y1="117.645" x2="835.262" y2="340.53" stroke="#93A0BD"/>
<line x1="670.153" y1="362.88" x2="830.436" y2="348.786" stroke="#93A0BD"/>
<line x1="470.163" y1="419.407" x2="605.279" y2="370.504" stroke="#93A0BD"/>
<line x1="605.397" y1="370.477" x2="661.313" y2="364.612" stroke="#93A0BD"/>
<line x1="963.025" y1="117.769" x2="868.035" y2="33.4662" stroke="#93A0BD"/>
<line x1="740.951" y1="138.123" x2="868.048" y2="32.7074" stroke="#93A0BD"/>
<line x1="600.009" y1="114.739" x2="868.221" y2="32.6142" stroke="#93A0BD"/>
<line x1="802.658" y1="131.212" x2="867.95" y2="32.8158" stroke="#93A0BD"/>
<line x1="803.117" y1="131.987" x2="738.965" y2="137.428" stroke="#93A0BD"/>
<line x1="468.914" y1="414.768" x2="540.329" y2="254.029" stroke="#93A0BD"/>
<line x1="725.642" y1="267.404" x2="540.752" y2="254.731" stroke="#93A0BD"/>
<line x1="607.386" y1="367.708" x2="540.356" y2="254.487" stroke="#93A0BD"/>
<line x1="669.875" y1="363.76" x2="540.464" y2="254.614" stroke="#93A0BD"/>
<line x1="246.039" y1="179.072" x2="540.909" y2="253.748" stroke="#93A0BD"/>
<line x1="378.334" y1="141.017" x2="541.071" y2="253.821" stroke="#93A0BD"/>
<line x1="309.836" y1="20.0052" x2="541.142" y2="253.881" stroke="#93A0BD"/>
<line x1="309.513" y1="19.8578" x2="497.347" y2="31.9536" stroke="#93A0BD"/>
<line x1="656.021" y1="26.3049" x2="497.336" y2="32.9521" stroke="#93A0BD"/>
<line x1="656.415" y1="26.0842" x2="595.664" y2="116.457" stroke="#93A0BD"/>
<line x1="656.399" y1="25.505" x2="739.131" y2="135.648" stroke="#93A0BD"/>
<line x1="829.059" y1="344.578" x2="738.272" y2="136.148" stroke="#93A0BD"/>
<line x1="656.475" y1="25.6513" x2="734.003" y2="265.212" stroke="#93A0BD"/>
<line x1="309.633" y1="19.8805" x2="594.439" y2="110.795" stroke="#93A0BD"/>
<line x1="602.958" y1="187.556" x2="868.115" y2="32.6606" stroke="#93A0BD"/>
<ellipse cx="734.999" cy="265.078" rx="14" ry="14.5" transform="rotate(78.91 734.999 265.078)" fill="#47C0F4"/>
<ellipse cx="469.371" cy="414.971" rx="12" ry="14" transform="rotate(78.91 469.371 414.971)" fill="#47C0F4"/>
<circle cx="669.803" cy="363.965" r="8.5" transform="rotate(78.91 669.803 363.965)" fill="#47C0F4"/>
<ellipse cx="534.995" cy="255.877" rx="18.5" ry="19" transform="rotate(78.91 534.995 255.877)" fill="#47C0F4"/>
<circle cx="607.999" cy="370.984" r="16.5" transform="rotate(78.91 607.999 370.984)" fill="#47C0F4"/>
<ellipse cx="829.989" cy="349.381" rx="13" ry="12.5" transform="rotate(78.91 829.989 349.381)" fill="#47C0F4"/>
<ellipse cx="900.767" cy="386.162" rx="13" ry="12.5" transform="rotate(78.91 900.767 386.162)" fill="#47C0F4"/>
<ellipse cx="867.876" cy="33.1884" rx="14" ry="14.5" transform="rotate(78.91 867.876 33.1884)" fill="#47C0F4"/>
<ellipse cx="602.248" cy="183.081" rx="12" ry="14" transform="rotate(78.91 602.248 183.081)" fill="#47C0F4"/>
<circle cx="802.68" cy="132.076" r="8.5" transform="rotate(78.91 802.68 132.076)" fill="#47C0F4"/>
<ellipse cx="667.872" cy="23.9877" rx="18.5" ry="19" transform="rotate(78.91 667.872 23.9877)" fill="#47C0F4"/>
<circle cx="740.876" cy="139.095" r="16.5" transform="rotate(78.91 740.876 139.095)" fill="#47C0F4"/>
<ellipse cx="962.866" cy="117.491" rx="13" ry="12.5" transform="rotate(78.91 962.866 117.491)" fill="#47C0F4"/>
<ellipse cx="504.675" cy="31.01" rx="14" ry="14.5" transform="rotate(78.91 504.675 31.01)" fill="#47C0F4"/>
<ellipse cx="239.047" cy="180.903" rx="12" ry="14" transform="rotate(78.91 239.047 180.903)" fill="#47C0F4"/>
<circle cx="439.479" cy="129.897" r="8.5" transform="rotate(78.91 439.479 129.897)" fill="#47C0F4"/>
<ellipse cx="304.67" cy="21.8092" rx="18.5" ry="19" transform="rotate(78.91 304.67 21.8092)" fill="#47C0F4"/>
<circle cx="377.675" cy="136.916" r="16.5" transform="rotate(78.91 377.675 136.916)" fill="#47C0F4"/>
<ellipse cx="589.851" cy="117.236" rx="13" ry="12.5" transform="rotate(78.91 589.851 117.236)" fill="#47C0F4"/>
<line x1="825.649" y1="1030.42" x2="805.952" y2="746.299" stroke="#93A0BD"/>
<line x1="1086.18" y1="974.154" x2="1176.26" y2="805.589" stroke="#93A0BD"/>
<line x1="1062.67" y1="662.796" x2="1175.77" y2="552.257" stroke="#93A0BD"/>
<line x1="1062.56" y1="663.361" x2="1023.55" y2="577.814" stroke="#93A0BD"/>
<line x1="969.87" y1="1025.47" x2="1023.51" y2="577.547" stroke="#93A0BD"/>
<line x1="969.884" y1="1025.66" x2="868.686" y2="656.598" stroke="#93A0BD"/>
<line x1="969.871" y1="1025.6" x2="934.732" y2="757.868" stroke="#93A0BD"/>
<line x1="969.895" y1="1025.36" x2="1024.68" y2="870.908" stroke="#93A0BD"/>
<line x1="932.199" y1="754.607" x2="1025.54" y2="870.762" stroke="#93A0BD"/>
<line x1="932.199" y1="754.607" x2="1025.54" y2="870.762" stroke="#93A0BD"/>
<line x1="932.199" y1="754.607" x2="1025.54" y2="870.762" stroke="#93A0BD"/>
<line x1="931.387" y1="755.188" x2="868.747" y2="656.734" stroke="#93A0BD"/>
<line x1="932.004" y1="755.38" x2="822.02" y2="801.863" stroke="#93A0BD"/>
<line x1="931.311" y1="754.967" x2="901.908" y2="446.446" stroke="#93A0BD"/>
<line x1="931.534" y1="754.502" x2="1055.06" y2="673.227" stroke="#93A0BD"/>
<line x1="931.674" y1="754.439" x2="1122.61" y2="700.756" stroke="#93A0BD"/>
<line x1="1183.33" y1="546.192" x2="1123.21" y2="701.418" stroke="#93A0BD"/>
<line x1="1183.3" y1="545.779" x2="1234.78" y2="643.595" stroke="#93A0BD"/>
<line x1="1217.06" y1="333.971" x2="1234.84" y2="643.799" stroke="#93A0BD"/>
<line x1="1216.95" y1="333.68" x2="1326.18" y2="464.988" stroke="#93A0BD"/>
<line x1="1217.06" y1="334.059" x2="1200.26" y2="476.082" stroke="#93A0BD"/>
<line x1="1325.84" y1="465.806" x2="1199.8" y2="476.521" stroke="#93A0BD"/>
<line x1="1192.72" y1="484.094" x2="910.12" y2="448.773" stroke="#93A0BD"/>
<line x1="1218" y1="341.981" x2="910.346" y2="448.749" stroke="#93A0BD"/>
<line x1="969.959" y1="1025.82" x2="821.048" y2="816.005" stroke="#93A0BD"/>
<line x1="869.64" y1="656.634" x2="815.558" y2="808.174" stroke="#93A0BD"/>
<line x1="901.73" y1="451.3" x2="889.784" y2="594.497" stroke="#93A0BD"/>
<line x1="889.76" y1="594.616" x2="871.755" y2="647.878" stroke="#93A0BD"/>
<line x1="970.165" y1="1025.07" x2="1086.42" y2="973.932" stroke="#93A0BD"/>
<line x1="1044.34" y1="814.768" x2="1087.1" y2="974.26" stroke="#93A0BD"/>
<line x1="1124.41" y1="696.444" x2="1087.11" y2="974.456" stroke="#93A0BD"/>
<line x1="1024.87" y1="873.728" x2="1087.04" y2="974.126" stroke="#93A0BD"/>
<line x1="1023.98" y1="873.822" x2="1045.8" y2="813.253" stroke="#93A0BD"/>
<line x1="906.467" y1="452.102" x2="1022.74" y2="584.081" stroke="#93A0BD"/>
<line x1="933.248" y1="746.904" x2="1021.92" y2="584.172" stroke="#93A0BD"/>
<line x1="891.446" y1="597.579" x2="1022.31" y2="583.914" stroke="#93A0BD"/>
<line x1="868.956" y1="656.013" x2="1022.15" y2="583.959" stroke="#93A0BD"/>
<line x1="1213.67" y1="347.923" x2="1022.75" y2="584.725" stroke="#93A0BD"/>
<line x1="1193.04" y1="484.028" x2="1022.62" y2="584.842" stroke="#93A0BD"/>
<line x1="1331.6" y1="472.281" x2="1022.53" y2="584.881" stroke="#93A0BD"/>
<line x1="1331.87" y1="472.049" x2="1242.49" y2="637.697" stroke="#93A0BD"/>
<line x1="1181.4" y1="784.25" x2="1241.58" y2="637.27" stroke="#93A0BD"/>
<line x1="1181.44" y1="784.7" x2="1124.66" y2="691.778" stroke="#93A0BD"/>
<line x1="1181.97" y1="784.928" x2="1047.35" y2="814.146" stroke="#93A0BD"/>
<line x1="819.957" y1="808.679" x2="1047.26" y2="813.157" stroke="#93A0BD"/>
<line x1="1181.81" y1="784.936" x2="931.75" y2="755.416" stroke="#93A0BD"/>
<line x1="1331.8" y1="472.148" x2="1130.32" y2="693.028" stroke="#93A0BD"/>
<line x1="1057.01" y1="668.735" x2="1087.12" y2="974.341" stroke="#93A0BD"/>
<ellipse cx="931.457" cy="756.378" rx="14" ry="14.5" transform="rotate(-166.424 931.457 756.378)" fill="#47C0F4"/>
<ellipse cx="906.092" cy="452.432" rx="12" ry="14" transform="rotate(-166.424 906.092 452.432)" fill="#47C0F4"/>
<ellipse cx="970.951" cy="316.426" rx="12" ry="14" transform="rotate(-166.424 970.951 316.426)" fill="#47C0F4"/>
<circle cx="868.8" cy="655.863" r="8.5" transform="rotate(-166.424 868.8 655.863)" fill="#47C0F4"/>
<ellipse cx="1023.28" cy="578.462" rx="18.5" ry="19" transform="rotate(-166.424 1023.28 578.462)" fill="#47C0F4"/>
<circle cx="888.213" cy="596.768" r="16.5" transform="rotate(-166.424 888.213 596.768)" fill="#47C0F4"/>
<ellipse cx="815.205" cy="807.519" rx="13" ry="12.5" transform="rotate(-166.424 815.205 807.519)" fill="#47C0F4"/>
<ellipse cx="1086.74" cy="973.904" rx="14" ry="14.5" transform="rotate(-166.424 1086.74 973.904)" fill="#47C0F4"/>
<ellipse cx="1061.37" cy="669.958" rx="12" ry="14" transform="rotate(-166.424 1061.37 669.958)" fill="#47C0F4"/>
<circle cx="1024.08" cy="873.388" r="8.5" transform="rotate(-166.424 1024.08 873.388)" fill="#47C0F4"/>
<ellipse cx="1178.56" cy="795.987" rx="18.5" ry="19" transform="rotate(-166.424 1178.56 795.987)" fill="#47C0F4"/>
<circle cx="1043.49" cy="814.294" r="16.5" transform="rotate(-166.424 1043.49 814.294)" fill="#47C0F4"/>
<ellipse cx="970.484" cy="1025.04" rx="13" ry="12.5" transform="rotate(-166.424 970.484 1025.04)" fill="#47C0F4"/>
<ellipse cx="1240.29" cy="644.75" rx="14" ry="14.5" transform="rotate(-166.424 1240.29 644.75)" fill="#47C0F4"/>
<circle cx="1177.63" cy="544.234" r="8.5" transform="rotate(-166.424 1177.63 544.234)" fill="#47C0F4"/>
<ellipse cx="1332.11" cy="466.834" rx="18.5" ry="19" transform="rotate(-166.424 1332.11 466.834)" fill="#47C0F4"/>
<ellipse cx="1016.44" cy="193.812" rx="18.5" ry="19" transform="rotate(-166.424 1016.44 193.812)" fill="#47C0F4"/>
<ellipse cx="1215.44" cy="340.812" rx="18.5" ry="19" transform="rotate(-166.424 1215.44 340.812)" fill="#47C0F4"/>
<circle cx="1197.04" cy="485.14" r="16.5" transform="rotate(-166.424 1197.04 485.14)" fill="#47C0F4"/>
<circle cx="1116.91" cy="323.912" r="16.5" transform="rotate(-166.424 1116.91 323.912)" fill="#47C0F4"/>
<circle cx="1121.91" cy="191.912" r="16.5" transform="rotate(-166.424 1121.91 191.912)" fill="#47C0F4"/>
<ellipse cx="1126.38" cy="686.171" rx="13" ry="12.5" transform="rotate(-166.424 1126.38 686.171)" fill="#47C0F4"/>
<line x1="324.246" y1="1020.13" x2="506.991" y2="1076.1" stroke="#93A0BD"/>
<line x1="625.267" y1="937.163" x2="755.499" y2="1026.9" stroke="#93A0BD"/>
<line x1="624.693" y1="937.169" x2="701.138" y2="882.432" stroke="#93A0BD"/>
<line x1="251.515" y1="915.862" x2="701.392" y2="882.34" stroke="#93A0BD"/>
<line x1="251.33" y1="915.913" x2="594.038" y2="745.615" stroke="#93A0BD"/>
<line x1="251.393" y1="915.887" x2="507.363" y2="829.906" stroke="#93A0BD"/>
<line x1="251.626" y1="915.866" x2="413.735" y2="939.919" stroke="#93A0BD"/>
<line x1="510.076" y1="826.793" x2="414.044" y2="940.736" stroke="#93A0BD"/>
<line x1="510.076" y1="826.793" x2="414.044" y2="940.736" stroke="#93A0BD"/>
<line x1="510.076" y1="826.793" x2="414.044" y2="940.736" stroke="#93A0BD"/>
<line x1="509.349" y1="826.109" x2="593.916" y2="745.7" stroke="#93A0BD"/>
<line x1="509.279" y1="826.751" x2="442.509" y2="727.762" stroke="#93A0BD"/>
<line x1="509.551" y1="825.992" x2="806.656" y2="737.793" stroke="#93A0BD"/>
<line x1="510.051" y1="826.121" x2="613.569" y2="931.709" stroke="#93A0BD"/>
<line x1="510.14" y1="826.246" x2="599.546" y2="1003.29" stroke="#93A0BD"/>
<line x1="762.903" y1="1033.14" x2="599.012" y2="1004.01" stroke="#93A0BD"/>
<line x1="763.304" y1="1033.04" x2="677.217" y2="1102.37" stroke="#93A0BD"/>
<line x1="977.651" y1="1025.43" x2="677.027" y2="1102.47" stroke="#93A0BD"/>
<line x1="977.914" y1="1025.26" x2="870.069" y2="1157.71" stroke="#93A0BD"/>
<line x1="977.564" y1="1025.44" x2="834.961" y2="1036.27" stroke="#93A0BD"/>
<line x1="869.201" y1="1157.53" x2="834.442" y2="1035.91" stroke="#93A0BD"/>
<line x1="969.971" y1="1027.89" x2="806.019" y2="746.517" stroke="#93A0BD"/>
<line x1="251.19" y1="916.016" x2="428.444" y2="729.528" stroke="#93A0BD"/>
<line x1="594.186" y1="746.557" x2="435.073" y2="722.634" stroke="#93A0BD"/>
<line x1="801.858" y1="738.552" x2="659.037" y2="754.374" stroke="#93A0BD"/>
<line x1="658.916" y1="754.372" x2="603.186" y2="746.949" stroke="#93A0BD"/>
<line x1="251.963" y1="916.075" x2="324.51" y2="1020.32" stroke="#93A0BD"/>
<line x1="472.609" y1="948.417" x2="324.32" y2="1021.05" stroke="#93A0BD"/>
<line x1="604.125" y1="1004.23" x2="324.13" y2="1021.1" stroke="#93A0BD"/>
<line x1="411.005" y1="940.65" x2="324.44" y2="1020.97" stroke="#93A0BD"/>
<line x1="410.741" y1="939.789" x2="474.377" y2="949.558" stroke="#93A0BD"/>
<line x1="801.982" y1="743.355" x2="694.832" y2="882.84" stroke="#93A0BD"/>
<line x1="517.836" y1="826.341" x2="694.586" y2="882.058" stroke="#93A0BD"/>
<line x1="656.333" y1="756.597" x2="694.914" y2="882.389" stroke="#93A0BD"/>
<line x1="594.663" y1="745.767" x2="694.839" y2="882.239" stroke="#93A0BD"/>
<line x1="963.307" y1="1024.78" x2="694.203" y2="882.978" stroke="#93A0BD"/>
<line x1="825.775" y1="1030.72" x2="694.063" y2="882.868" stroke="#93A0BD"/>
<line x1="863.954" y1="1164.43" x2="694.008" y2="882.794" stroke="#93A0BD"/>
<line x1="864.234" y1="1164.65" x2="684.487" y2="1108.8" stroke="#93A0BD"/>
<line x1="528.921" y1="1077.05" x2="684.732" y2="1107.83" stroke="#93A0BD"/>
<line x1="528.486" y1="1077.17" x2="608.753" y2="1003.58" stroke="#93A0BD"/>
<line x1="528.365" y1="1077.73" x2="473.798" y2="951.249" stroke="#93A0BD"/>
<line x1="435.423" y1="727.049" x2="474.75" y2="950.965" stroke="#93A0BD"/>
<line x1="528.325" y1="1077.57" x2="509.195" y2="826.509" stroke="#93A0BD"/>
<line x1="864.123" y1="1164.6" x2="608.614" y2="1009.37" stroke="#93A0BD"/>
<line x1="618.351" y1="932.755" x2="324.244" y2="1021.08" stroke="#93A0BD"/>
<ellipse cx="508.195" cy="826.406" rx="14" ry="14.5" transform="rotate(-87.5145 508.195 826.406)" fill="#47C0F4"/>
<ellipse cx="801.586" cy="743.051" rx="12" ry="14" transform="rotate(-87.5145 801.586 743.051)" fill="#47C0F4"/>
<circle cx="594.781" cy="745.585" r="8.5" transform="rotate(-87.5145 594.781 745.585)" fill="#47C0F4"/>
<ellipse cx="700.452" cy="882.296" rx="18.5" ry="19" transform="rotate(-87.5145 700.452 882.296)" fill="#47C0F4"/>
<circle cx="656.506" cy="753.269" r="16.5" transform="rotate(-87.5145 656.506 753.269)" fill="#47C0F4"/>
<ellipse cx="435.647" cy="722.162" rx="13" ry="12.5" transform="rotate(-87.5145 435.647 722.162)" fill="#47C0F4"/>
<ellipse cx="324.6" cy="1020.63" rx="14" ry="14.5" transform="rotate(-87.5145 324.6 1020.63)" fill="#47C0F4"/>
<ellipse cx="617.99" cy="937.272" rx="12" ry="14" transform="rotate(-87.5145 617.99 937.272)" fill="#47C0F4"/>
<circle cx="411.186" cy="939.806" r="8.5" transform="rotate(-87.5145 411.186 939.806)" fill="#47C0F4"/>
<ellipse cx="516.857" cy="1076.52" rx="18.5" ry="19" transform="rotate(-87.5145 516.857 1076.52)" fill="#47C0F4"/>
<circle cx="472.911" cy="947.49" r="16.5" transform="rotate(-87.5145 472.911 947.49)" fill="#47C0F4"/>
<ellipse cx="252.052" cy="916.383" rx="13" ry="12.5" transform="rotate(-87.5145 252.052 916.383)" fill="#47C0F4"/>
<ellipse cx="677.142" cy="1108" rx="14" ry="14.5" transform="rotate(-87.5145 677.142 1108)" fill="#47C0F4"/>
<ellipse cx="970.533" cy="1024.64" rx="12" ry="14" transform="rotate(-87.5145 970.533 1024.64)" fill="#47C0F4"/>
<circle cx="763.729" cy="1027.18" r="8.5" transform="rotate(-87.5145 763.729 1027.18)" fill="#47C0F4"/>
<ellipse cx="869.399" cy="1163.89" rx="18.5" ry="19" transform="rotate(-87.5145 869.399 1163.89)" fill="#47C0F4"/>
<circle cx="825.453" cy="1034.86" r="16.5" transform="rotate(-87.5145 825.453 1034.86)" fill="#47C0F4"/>
<ellipse cx="614.585" cy="1004.19" rx="13" ry="12.5" transform="rotate(-87.5145 614.585 1004.19)" fill="#47C0F4"/>
<path d="M703.226 466.054L717.686 431H758.912C781.948 436.807 791.082 445.365 803.522 466.054H703.226Z" fill="#FFB404"/>
<path d="M717.686 516.23L732.761 479.457H809.367C812.68 493.818 813.07 501.869 809.367 516.23H717.686Z" fill="#FFB404"/>
<path d="M662 564L676.46 529.633H803.522C799.211 545.605 780.429 562.285 758.912 564H662Z" fill="#FFB404"/>
<path d="M519.2 569L547.2 429H618C633.867 429 645.933 431.867 654.2 437.6C662.467 443.2 666.6 451.267 666.6 461.8C666.6 470.467 664.2 477.8 659.4 483.8C654.6 489.8 648.133 494.4 640 497.6C631.867 500.667 622.733 502.2 612.6 502.2L618.2 492.6C631.133 492.6 641.4 495.4 649 501C656.6 506.6 660.4 514.467 660.4 524.6C660.4 534.733 657.533 543.067 651.8 549.6C646.2 556.133 638.533 561 628.8 564.2C619.2 567.4 608.333 569 596.2 569H519.2ZM564 540.4H598.4C605.333 540.4 610.8 539 614.8 536.2C618.933 533.4 621 529.267 621 523.8C621 519.667 619.467 516.667 616.4 514.8C613.333 512.933 609.4 512 604.6 512H566.4L571.8 484.6H603.6C608.267 484.6 612.2 484 615.4 482.8C618.733 481.6 621.2 479.8 622.8 477.4C624.4 475 625.2 472.067 625.2 468.6C625.2 464.733 623.733 461.933 620.8 460.2C617.867 458.467 613.8 457.6 608.6 457.6H580.6L564 540.4Z" fill="#B4B6B9"/>
</svg>
