<svg width="296" height="207" viewBox="0 0 296 207" fill="none" xmlns="http://www.w3.org/2000/svg">
<path d="M187.226 91.0543L201.686 56H242.912C265.948 61.8066 275.082 70.3654 287.522 91.0543H187.226Z" fill="#FFB404"/>
<path d="M201.686 141.23L216.761 104.457H293.367C296.68 118.818 297.07 126.869 293.367 141.23H201.686Z" fill="#FFB404"/>
<path d="M146 189L160.46 154.633H287.522C283.211 170.605 264.429 187.285 242.912 189H146Z" fill="#FFB404"/>
<path d="M3.2 194L31.2 54H102C117.867 54 129.933 56.8667 138.2 62.6C146.467 68.2 150.6 76.2667 150.6 86.8C150.6 95.4667 148.2 102.8 143.4 108.8C138.6 114.8 132.133 119.4 124 122.6C115.867 125.667 106.733 127.2 96.6 127.2L102.2 117.6C115.133 117.6 125.4 120.4 133 126C140.6 131.6 144.4 139.467 144.4 149.6C144.4 159.733 141.533 168.067 135.8 174.6C130.2 181.133 122.533 186 112.8 189.2C103.2 192.4 92.3333 194 80.2 194H3.2ZM48 165.4H82.4C89.3333 165.4 94.8 164 98.8 161.2C102.933 158.4 105 154.267 105 148.8C105 144.667 103.467 141.667 100.4 139.8C97.3333 137.933 93.4 137 88.6 137H50.4L55.8 109.6H87.6C92.2667 109.6 96.2 109 99.4 107.8C102.733 106.6 105.2 104.8 106.8 102.4C108.4 100 109.2 97.0667 109.2 93.6C109.2 89.7333 107.733 86.9333 104.8 85.2C101.867 83.4667 97.8 82.6 92.6 82.6H64.6L48 165.4Z" fill="#2B2B2B"/>
</svg>
