<svg width="139" height="109" viewBox="0 0 139 109" fill="none" xmlns="http://www.w3.org/2000/svg">
<path d="M91.8646 44.7132L98.1305 26H115.995C125.977 29.0997 129.935 33.6688 135.326 44.7132H91.8646Z" fill="#FFB404"/>
<path d="M98.1305 71.4987L104.663 51.8682H137.859C139.295 59.5344 139.463 63.8326 137.859 71.4987H98.1305Z" fill="#FFB404"/>
<path d="M74 97L80.2659 78.6537H135.326C133.458 87.1801 125.319 96.0846 115.995 97H74Z" fill="#FFB404"/>
<path d="M1.6 97L15.6 27H51C58.9333 27 64.9667 28.4333 69.1 31.3C73.2333 34.1 75.3 38.1333 75.3 43.4C75.3 47.7333 74.1 51.4 71.7 54.4C69.3 57.4 66.0667 59.7 62 61.3C57.9333 62.8333 53.3667 63.6 48.3 63.6L51.1 58.8C57.5667 58.8 62.7 60.2 66.5 63C70.3 65.8 72.2 69.7333 72.2 74.8C72.2 79.8667 70.7667 84.0333 67.9 87.3C65.1 90.5667 61.2667 93 56.4 94.6C51.6 96.2 46.1667 97 40.1 97H1.6ZM24 82.7H41.2C44.6667 82.7 47.4 82 49.4 80.6C51.4667 79.2 52.5 77.1333 52.5 74.4C52.5 72.3333 51.7333 70.8333 50.2 69.9C48.6667 68.9667 46.7 68.5 44.3 68.5H25.2L27.9 54.8H43.8C46.1333 54.8 48.1 54.5 49.7 53.9C51.3667 53.3 52.6 52.4 53.4 51.2C54.2 50 54.6 48.5333 54.6 46.8C54.6 44.8667 53.8667 43.4667 52.4 42.6C50.9333 41.7333 48.9 41.3 46.3 41.3H32.3L24 82.7Z" fill="#2B2B2B"/>
</svg>
