<svg width="3664" height="2778" viewBox="0 0 3664 2778" fill="none" xmlns="http://www.w3.org/2000/svg">
<path d="M2794.45 777.407L2794.31 777.178C2824.59 579.979 2926.32 434.319 3065.91 357.927C3205.52 281.512 3383.05 274.343 3565.45 355.132L3565.56 355.362C3504.7 749.576 3159.3 938.62 2794.45 777.407Z" fill="#FFBB1E"/>
<path d="M2834.95 751.811L3506.4 386.284C3506.98 385.968 3507.7 386.171 3508.02 386.757C3508.34 387.321 3508.13 388.043 3507.55 388.359L2837.73 756.886C2836.33 757.653 2834.59 757.157 2833.83 755.758C2833.04 754.36 2833.56 752.601 2834.95 751.834V751.811Z" fill="white"/>
<path d="M3223.34 542.12C3243.9 540.44 3264.69 542.228 3284.81 547.01C3294.91 549.315 3304.78 552.633 3314.32 556.791C3323.97 560.733 3332.91 566.248 3341.61 572.021C3342.95 572.904 3343.32 574.692 3342.43 576.028C3341.55 577.364 3339.76 577.73 3338.43 576.847L3338.36 576.782L3338.19 576.674C3330.05 570.815 3321.64 565.127 3312.42 560.905C3303.33 556.51 3293.79 552.87 3283.99 550.198C3264.41 544.705 3243.85 542.077 3223.43 542.939C3223.19 542.96 3223 542.788 3222.98 542.572C3222.94 542.357 3223.13 542.163 3223.34 542.12" fill="white"/>
<path d="M3019.06 653.93C3030.8 637.184 3039.67 618.438 3045.59 599C3048.64 589.3 3050.7 579.304 3051.88 569.267C3053.31 559.231 3053.07 549.097 3052.52 539.061L3052.5 538.882C3052.42 537.279 3053.65 535.933 3055.23 535.834C3056.81 535.755 3058.18 536.982 3058.28 538.566V538.684C3058.44 549.136 3058.26 559.627 3056.38 569.881C3054.74 580.175 3052.2 590.27 3048.74 600.029C3041.89 619.567 3032.19 638.035 3019.7 654.425C3019.58 654.603 3019.32 654.643 3019.12 654.505C3018.97 654.366 3018.95 654.109 3019.06 653.93" fill="white"/>
<path d="M2948.3 692.66C2968.85 690.973 2989.64 692.76 3009.77 697.545C3019.86 699.848 3029.74 703.164 3039.27 707.333C3048.94 711.285 3057.86 716.785 3066.59 722.562C3067.92 723.436 3068.28 725.243 3067.41 726.573C3066.52 727.884 3064.73 728.261 3063.4 727.368L3063.32 727.328L3063.14 727.209C3055.02 721.351 3046.62 715.653 3037.37 711.443C3028.27 707.036 3018.76 703.402 3008.93 700.722C2989.36 695.242 2968.81 692.621 2948.38 693.474C2948.16 693.494 2947.96 693.335 2947.94 693.117C2947.9 692.899 2948.08 692.7 2948.3 692.66" fill="white"/>
<path d="M3326.59 485.622C3338.32 468.862 3347.18 450.129 3353.13 430.681C3356.16 420.968 3358.22 410.994 3359.41 400.956C3360.84 390.917 3360.58 380.77 3360.04 370.753L3360.02 370.558C3359.96 368.975 3361.17 367.609 3362.75 367.523C3364.36 367.436 3365.7 368.65 3365.81 370.254V370.363C3365.96 380.835 3365.79 391.307 3363.9 401.584C3362.28 411.84 3359.74 421.965 3356.25 431.7C3349.42 451.235 3339.73 469.708 3327.24 486.121C3327.09 486.294 3326.85 486.316 3326.67 486.186C3326.5 486.056 3326.46 485.796 3326.59 485.622" fill="white"/>
<path d="M2794.45 777.395L2794.22 777.281C2710.76 596.083 2715.27 418.487 2789.62 277.768C2863.95 137.05 3008.11 33.1858 3204.8 0.000479904L3205.05 0.114441C3371.62 362.555 3187.73 710.705 2794.45 777.395Z" fill="#FFD062"/>
<path d="M2814.16 733.714L3172.72 58.5321C3173.04 57.9487 3173.75 57.7245 3174.34 58.0386C3174.92 58.3528 3175.15 59.0706 3174.83 59.654L2819.26 736.407C2818.52 737.82 2816.77 738.359 2815.35 737.618C2813.94 736.878 2813.4 735.128 2814.14 733.714H2814.16" fill="white"/>
<path d="M3022.52 344.635C3038.71 331.912 3057.06 321.931 3076.48 314.817C3086.17 311.197 3096.26 308.497 3106.49 306.719C3116.74 304.689 3127.23 304.354 3137.69 304.354C3139.28 304.354 3140.58 305.652 3140.58 307.263C3140.55 308.853 3139.28 310.15 3137.69 310.15L3137.58 310.129H3137.37C3127.35 309.732 3117.2 309.606 3107.18 311.197C3097.16 312.536 3087.22 314.754 3077.55 317.935C3058.19 324.149 3039.59 333.293 3023.02 345.262C3022.85 345.409 3022.6 345.388 3022.45 345.221C3022.31 345.053 3022.37 344.781 3022.52 344.635" fill="white"/>
<path d="M2913.74 550.559C2914.3 530.109 2911.36 509.6 2905.58 490.097C2902.78 480.326 2898.99 470.857 2894.44 461.831C2890.11 452.664 2884.28 444.343 2878.32 436.284L2878.2 436.143C2877.25 434.854 2877.52 433.041 2878.8 432.094C2880.07 431.147 2881.89 431.409 2882.83 432.698L2882.92 432.779C2888.82 441.422 2894.46 450.266 2898.53 459.877C2902.84 469.346 2906.31 479.178 2908.76 489.231C2913.84 509.297 2915.94 530.049 2914.57 550.619C2914.53 550.841 2914.34 551.002 2914.12 551.002C2913.9 550.982 2913.74 550.76 2913.74 550.559" fill="white"/>
<path d="M2876.07 621.861C2892.29 609.134 2910.63 599.162 2930.05 592.042C2939.75 588.414 2949.82 585.737 2960.06 583.933C2970.3 581.896 2980.78 581.585 2991.26 581.585C2992.83 581.585 2994.13 582.885 2994.13 584.476C2994.13 586.067 2992.83 587.367 2991.24 587.367H2991.14L2990.94 587.347C2980.91 586.959 2970.77 586.843 2960.76 588.434C2950.73 589.753 2940.78 591.984 2931.11 595.165C2911.75 601.374 2893.15 610.531 2876.6 622.501C2876.42 622.637 2876.15 622.617 2876.02 622.443C2875.88 622.268 2875.92 622.016 2876.07 621.861Z" fill="white"/>
<path d="M3077.49 240.559C3078.04 220.141 3075.11 199.614 3069.33 180.123C3066.53 170.355 3062.74 160.874 3058.2 151.834C3053.85 142.684 3048.03 134.371 3042.06 126.302L3041.95 126.147C3041 124.868 3041.26 123.06 3042.54 122.112C3043.82 121.164 3045.65 121.429 3046.6 122.708L3046.67 122.796C3052.55 131.439 3058.2 140.281 3062.28 149.894C3066.6 159.353 3070.04 169.187 3072.51 179.241C3077.6 199.305 3079.67 220.075 3078.31 240.647C3078.28 240.867 3078.09 241.021 3077.86 241.021C3077.67 240.999 3077.49 240.779 3077.49 240.559" fill="white"/>
<path d="M2795.31 776.944L2795.36 776.686C2939.7 639.021 3109.19 585.751 3266.42 610.481C3423.62 635.189 3568.59 737.921 3663.73 913.246L3663.69 913.505C3374.79 1188.58 2985.84 1127.41 2795.31 776.944Z" fill="#FFD06C"/>
<path d="M2842.98 781.441L3597.94 901.875C3598.59 901.967 3599.03 902.591 3598.94 903.239C3598.82 903.886 3598.22 904.348 3597.57 904.232L2842.11 787.149C2840.53 786.895 2839.45 785.416 2839.68 783.845C2839.93 782.273 2841.41 781.187 2842.98 781.441Z" fill="white"/>
<path d="M3278.61 852.467C3295.92 863.684 3311.28 877.796 3324.32 893.875C3330.91 901.872 3336.7 910.516 3341.71 919.636C3346.94 928.67 3350.66 938.482 3354.05 948.38C3354.55 949.893 3353.75 951.535 3352.24 952.054C3350.75 952.551 3349.1 951.751 3348.59 950.238L3348.54 950.152L3348.48 949.958C3345.62 940.34 3342.43 930.702 3337.69 921.754C3333.18 912.699 3327.86 903.99 3321.7 895.885C3309.55 879.59 3294.88 864.959 3278.2 853.159C3277.98 853.051 3277.94 852.792 3278.05 852.597C3278.15 852.424 3278.43 852.359 3278.61 852.467" fill="white"/>
<path d="M3048.57 816.307C3068.08 810.199 3086.55 800.791 3103.1 789.001C3111.45 783.178 3119.19 776.519 3126.25 769.29C3133.52 762.224 3139.51 754.039 3145.17 745.751L3145.29 745.609C3146.19 744.285 3147.98 743.959 3149.3 744.855C3150.63 745.771 3150.95 747.564 3150.04 748.887L3149.98 748.968C3143.72 757.358 3137.19 765.564 3129.41 772.528C3121.85 779.675 3113.67 786.13 3104.97 791.73C3087.62 803.031 3068.67 811.746 3048.77 817.102C3048.53 817.142 3048.33 817.02 3048.26 816.816C3048.2 816.592 3048.35 816.368 3048.57 816.307" fill="white"/>
<path d="M2968.9 803.775C2986.19 814.971 3001.56 829.084 3014.59 845.169C3021.18 853.152 3026.97 861.825 3031.98 870.932C3037.22 879.959 3040.93 889.776 3044.32 899.671C3044.83 901.169 3044.02 902.825 3042.51 903.337C3041.01 903.85 3039.37 903.041 3038.84 901.543L3038.82 901.445L3038.76 901.248C3035.88 891.629 3032.71 882.009 3027.96 873.041C3023.46 863.993 3018.14 855.3 3011.99 847.179C2999.85 830.878 2985.16 816.252 2968.45 804.464C2968.27 804.346 2968.21 804.09 2968.33 803.893C2968.45 803.715 2968.71 803.656 2968.9 803.775" fill="white"/>
<path d="M3394.87 870.774C3414.39 864.68 3432.85 855.257 3449.42 843.474C3457.74 837.628 3465.48 830.994 3472.56 823.776C3479.8 816.692 3485.81 808.507 3491.47 800.232L3491.59 800.074C3492.49 798.77 3494.29 798.433 3495.61 799.332C3496.92 800.232 3497.25 802.031 3496.35 803.357L3496.29 803.447C3490.04 811.835 3483.49 820.02 3475.73 827.014C3468.16 834.142 3459.99 840.596 3451.27 846.195C3433.93 857.484 3414.97 866.209 3395.07 871.561C3394.85 871.628 3394.62 871.493 3394.58 871.268C3394.51 871.066 3394.67 870.841 3394.87 870.774" fill="white"/>
<path d="M2844.01 155.594V2721.87C2844.01 2752.53 2819.17 2777.43 2788.45 2777.43H585.639C554.902 2777.43 530.074 2752.53 530.074 2721.87V155.594C530.074 124.922 554.902 100.104 585.572 100.104H2788.52C2819.17 100.104 2844.01 124.922 2844.01 155.594Z" fill="#3083C6"/>
<path d="M2745.25 2688.19V334.563H628.82V2688.19H2745.25Z" fill="white"/>
<path d="M2465.14 1987.16C2465.14 1993.59 2462.54 1999.35 2458.35 2003.54C2454.17 2007.74 2448.38 2010.34 2441.97 2010.34H932.132C919.351 2010.34 908.953 1999.94 908.953 1987.16C908.953 1980.73 911.554 1974.96 915.741 1970.76C919.93 1966.56 925.708 1963.97 932.132 1963.97H2441.97C2454.73 1963.97 2465.14 1974.36 2465.14 1987.16Z" fill="#F4F7FC"/>
<path d="M2284.6 2120.75C2284.6 2127.19 2282 2132.95 2277.81 2137.14C2273.63 2141.33 2267.85 2143.92 2261.43 2143.92H1112.67C1099.88 2143.92 1089.48 2133.52 1089.48 2120.75C1089.48 2114.31 1092.08 2108.55 1096.27 2104.36C1100.46 2100.16 1106.24 2097.58 1112.67 2097.58H2261.43C2274.2 2097.58 2284.6 2107.97 2284.6 2120.75Z" fill="#F4F7FC"/>
<path d="M2092.19 2254.35C2092.19 2260.77 2089.59 2266.55 2085.41 2270.74C2081.23 2274.93 2075.43 2277.53 2069.01 2277.53H1305.07C1292.29 2277.53 1281.89 2267.13 1281.89 2254.35C1281.89 2247.91 1284.49 2242.14 1288.68 2237.96C1292.86 2233.75 1298.65 2231.18 1305.07 2231.18H2069.01C2081.79 2231.18 2092.19 2241.56 2092.19 2254.35" fill="#F4F7FC"/>
<path d="M2420.04 218.675C2420.04 242.892 2400.42 262.482 2376.21 262.482C2352.03 262.482 2332.38 242.892 2332.38 218.675C2332.38 194.502 2352.03 174.911 2376.21 174.911C2400.42 174.911 2420.04 194.502 2420.04 218.675Z" fill="white"/>
<path d="M2694.83 218.675C2694.83 242.892 2675.23 262.482 2651.08 262.482C2626.84 262.482 2607.25 242.892 2607.25 218.675C2607.25 194.502 2626.84 174.911 2651.08 174.911C2675.23 174.911 2694.83 194.502 2694.83 218.675Z" fill="white"/>
<path d="M2557.43 218.675C2557.43 242.892 2537.82 262.482 2513.6 262.482C2489.45 262.482 2469.86 242.892 2469.86 218.675C2469.86 194.502 2489.45 174.911 2513.6 174.911C2537.82 174.911 2557.43 194.502 2557.43 218.675Z" fill="white"/>
<path d="M799.536 468.398H357.746L620.69 334.998H974.832L799.536 468.398Z" fill="#F9D21F"/>
<path d="M1241.33 468.771L799.539 468.398L974.835 334.998H1328.97L1241.33 468.771" fill="#FFA11E"/>
<path d="M1683.12 468.771H1241.33L1328.97 334.998H1683.12V468.771Z" fill="#F9D21F"/>
<path d="M2124.91 468.771H1683.12V334.998H2037.26L2124.91 468.771" fill="#FFA11E"/>
<path d="M2566.69 468.771H2124.91L2037.25 334.998H2391.4L2566.69 468.771" fill="#F9D21F"/>
<path d="M3008.49 468.771H2566.69L2391.4 334.998H2745.54L3008.49 468.771Z" fill="#FFA11E"/>
<path d="M799.533 468.419V514.232C799.533 636.232 700.626 735.146 578.628 735.146C456.629 735.146 357.723 649.179 357.723 527.179V468.419H799.533Z" fill="#F8C508"/>
<path d="M1241.34 468.758V514.232C1241.34 636.232 1142.44 735.146 1020.44 735.146C898.438 735.146 799.531 636.232 799.531 514.232V468.419L1241.34 468.758Z" fill="#F9E18D"/>
<path d="M1683.16 468.745V514.234C1683.16 636.222 1584.25 735.127 1462.25 735.127C1340.25 735.127 1241.34 636.222 1241.34 514.234V468.745H1683.16Z" fill="#F8C508"/>
<path d="M2124.96 468.745V514.234C2124.96 636.222 2026.07 735.127 1904.06 735.127C1782.07 735.127 1683.16 636.222 1683.16 514.234V468.745H2124.96Z" fill="#F9E18D"/>
<path d="M2566.78 468.745V514.234C2566.78 636.222 2467.88 735.127 2345.87 735.127C2223.86 735.127 2124.96 636.222 2124.96 514.234V468.745H2566.78Z" fill="#F8C508"/>
<path d="M3008.59 468.745V514.234C3008.59 636.222 2909.68 735.127 2787.67 735.127C2665.69 735.127 2566.78 636.222 2566.78 514.234V468.745H3008.59Z" fill="#F9E18D"/>
<path d="M978.737 2037.12V2280.29C978.737 2286.2 973.976 2290.97 968.069 2290.97H10.6693C4.76267 2290.97 0 2286.2 0 2280.29V2037.12C0 2031.2 4.76267 2026.44 10.6693 2026.44H968.069C973.976 2026.44 978.737 2031.2 978.737 2037.12Z" fill="#FFD06C"/>
<path d="M905.968 2290.98V2751.3C905.968 2765.68 894.276 2777.42 879.905 2777.42H98.8543C84.4836 2777.42 72.7383 2765.68 72.7383 2751.3V2290.98H905.968Z" fill="#FFD06C"/>
<path d="M72.7383 2480.77H195.245V2343.86H72.7383V2480.77Z" fill="#FFBB1E"/>
<path d="M72.7383 2676.88V2636.54L77.0823 2632.21L97.245 2652.37L72.7383 2676.88ZM117.354 2632.26L97.1916 2612.09L175.109 2534.18L195.272 2554.34L117.354 2632.26M215.382 2534.24L195.218 2514.06L273.136 2436.16L293.3 2456.32L215.382 2534.24M313.409 2436.21L293.245 2416.04L365.417 2343.86H371.83V2377.78L313.409 2436.21Z" fill="#FFBB1E"/>
<path d="M168.246 2777.42H128.027L175.162 2730.28L195.274 2750.4L168.246 2777.42M215.382 2730.29L195.27 2710.17L273.182 2632.25L293.299 2652.37L215.382 2730.29ZM313.41 2632.26L293.291 2612.14L371.203 2534.22L371.831 2534.85V2573.84L313.41 2632.26" fill="#FFBB1E"/>
<path d="M364.301 2777.42H324.082L371.218 2730.29L371.833 2730.9V2769.89L364.301 2777.42M607.505 2534.22L606.905 2533.62V2494.6L665.299 2436.21L685.409 2456.32L607.505 2534.22M705.573 2436.16L685.462 2416.04L757.634 2343.86H769.073L783.463 2358.26L705.573 2436.16" fill="#FFBB1E"/>
<path d="M607.489 2730.29L606.902 2729.71V2690.65L665.297 2632.27L685.408 2652.37L607.489 2730.29M705.525 2632.25L685.416 2612.15L763.324 2534.24L783.434 2554.35L705.525 2632.25ZM803.597 2534.19L783.488 2514.07L861.378 2436.19L881.488 2456.29L803.597 2534.19Z" fill="#FFBB1E"/>
<path d="M901.625 2436.16L881.516 2416.04L905.969 2391.58V2431.81L901.625 2436.16" fill="#FFBB1E"/>
<path d="M756.406 2777.42H716.188L763.325 2730.29L783.433 2750.4L756.406 2777.42ZM803.546 2730.28L783.437 2710.17L861.351 2632.26L881.461 2652.37L803.546 2730.28Z" fill="#FFBB1E"/>
<path d="M901.625 2632.21L881.516 2612.09L905.969 2587.64V2627.87L901.625 2632.21Z" fill="#FFBB1E"/>
<path d="M905.968 2480.77L881.488 2456.29L901.624 2436.16L905.968 2440.49V2480.77ZM861.378 2436.18L783.461 2358.26L797.852 2343.86H809.342L881.514 2416.04L861.378 2436.18Z" fill="#FFBB1E"/>
<path d="M783.461 2358.26L769.07 2343.86H797.852L783.461 2358.26" fill="#FFD06C"/>
<path d="M881.488 2456.29L861.379 2436.19L881.515 2416.04L901.624 2436.16L881.488 2456.29Z" fill="#FFD06C"/>
<path d="M905.968 2676.88L881.461 2652.37L901.624 2632.21L905.968 2636.54V2676.88ZM861.352 2632.26L783.434 2554.34L803.597 2534.18L881.514 2612.09L861.352 2632.26M763.324 2534.24L685.406 2456.32L705.57 2436.16L783.488 2514.06L763.324 2534.24M665.297 2436.21L606.902 2377.81V2343.86V2338.77V2343.86H613.289L685.46 2416.04L665.297 2436.21" fill="#FFBB1E"/>
<path d="M685.406 2456.32L665.297 2436.21L685.46 2416.04L705.57 2436.16L685.406 2456.32Z" fill="#FFD06C"/>
<path d="M783.435 2554.34L763.324 2534.24L783.488 2514.06L803.598 2534.18L783.435 2554.34" fill="#FFD06C"/>
<path d="M881.461 2652.37L861.352 2632.27L881.514 2612.09L901.624 2632.21L881.461 2652.37" fill="#FFD06C"/>
<path d="M850.68 2777.42H810.461L783.433 2750.4L803.546 2730.28L850.68 2777.42M763.325 2730.29L685.408 2652.37L705.525 2632.25L783.437 2710.17L763.325 2730.29ZM665.297 2632.26L606.902 2573.86V2534.82L607.502 2534.22L685.416 2612.14L665.297 2632.26" fill="#FFBB1E"/>
<path d="M606.902 2534.83V2533.63L607.502 2534.23L606.902 2534.83Z" fill="#FFD06C"/>
<path d="M685.408 2652.37L665.297 2632.27L685.416 2612.15L705.525 2632.25L685.408 2652.37" fill="#FFD06C"/>
<path d="M783.436 2750.4L763.328 2730.29L783.44 2710.17L803.549 2730.28L783.436 2750.4" fill="#FFD06C"/>
<path d="M654.625 2777.42H614.406L606.902 2769.92V2730.88L607.489 2730.29L654.625 2777.42Z" fill="#FFBB1E"/>
<path d="M606.902 2730.88V2729.7L607.489 2730.29L606.902 2730.88" fill="#FFD06C"/>
<path d="M371.203 2534.22L293.301 2456.32L313.41 2436.21L371.831 2494.62V2533.58L371.203 2534.22M273.137 2436.16L195.246 2358.26L209.637 2343.86H221.075L293.246 2416.04L273.137 2436.16" fill="#FFBB1E"/>
<path d="M195.245 2358.26L180.855 2343.86H209.635L195.245 2358.26Z" fill="#FFD06C"/>
<path d="M293.301 2456.32L273.137 2436.16L293.246 2416.04L313.41 2436.21L293.301 2456.32Z" fill="#FFD06C"/>
<path d="M371.831 2534.85L371.203 2534.22L371.831 2533.58V2534.85Z" fill="#FFD06C"/>
<path d="M371.216 2730.29L293.298 2652.37L313.409 2632.27L371.83 2690.68V2729.67L371.216 2730.29M273.181 2632.25L195.272 2554.35L215.382 2534.24L293.29 2612.15L273.181 2632.25M175.109 2534.19L97.2183 2456.29L117.328 2436.19L195.218 2514.07L175.109 2534.19ZM77.0823 2436.16L72.7383 2431.81V2391.59L97.1916 2416.04L77.0823 2436.16" fill="#FFBB1E"/>
<path d="M97.2219 2456.29L77.0859 2436.16L97.1953 2416.04L117.331 2436.19L97.2219 2456.29" fill="#FFD06C"/>
<path d="M195.272 2554.34L175.109 2534.18L195.219 2514.06L215.383 2534.24L195.272 2554.34" fill="#FFD06C"/>
<path d="M293.301 2652.37L273.184 2632.25L293.293 2612.15L313.412 2632.27L293.301 2652.37" fill="#FFD06C"/>
<path d="M371.833 2730.91L371.219 2730.29L371.833 2729.67V2730.91Z" fill="#FFD06C"/>
<path d="M262.518 2777.42H222.3L195.273 2750.4L215.381 2730.29L262.518 2777.42M175.161 2730.28L97.245 2652.37L117.354 2632.26L195.269 2710.17L175.161 2730.28M77.0823 2632.21L72.7383 2627.86V2587.64L97.1916 2612.09L77.0823 2632.21" fill="#FFBB1E"/>
<path d="M97.2486 2652.37L77.0859 2632.21L97.1953 2612.09L117.358 2632.27L97.2486 2652.37Z" fill="#FFD06C"/>
<path d="M195.276 2750.4L175.164 2730.28L195.272 2710.17L215.384 2730.29L195.276 2750.4Z" fill="#FFD06C"/>
<path d="M371.832 2777.42H606.904V2290.97H371.832V2777.42Z" fill="#F78E11"/>
<path d="M606.904 2026.44V2290.97H371.832V2026.44H606.904Z" fill="#F78E11"/>
<path d="M492.542 2026.44H439.637C390.79 1930.95 322.806 1897.63 269.462 1887.57C221.581 1878.4 185.52 1887.92 185.52 1887.92C188.01 1873.88 194.492 1861.35 202.812 1850.45C233.194 1810.65 286.745 1797.04 334.428 1812.33C488.572 1861.76 492.542 2026.44 492.542 2026.44Z" fill="#F78E11"/>
<path d="M351.462 2026.44H288.596C179.522 1974.77 185.52 1887.92 185.52 1887.92C185.52 1887.92 221.581 1878.4 269.462 1887.57C278.278 1974.33 351.462 2026.44 351.462 2026.44Z" fill="#EB7717"/>
<path d="M486.195 2026.44H539.101C587.946 1930.95 655.931 1897.63 709.275 1887.57C757.155 1878.4 793.218 1887.92 793.218 1887.92C790.726 1873.88 784.246 1861.35 775.926 1850.45C745.542 1810.65 691.993 1797.04 644.309 1812.33C490.165 1861.76 486.195 2026.44 486.195 2026.44Z" fill="#F78E11"/>
<path d="M627.277 2026.44H690.144C799.217 1974.77 793.22 1887.92 793.22 1887.92C793.22 1887.92 757.157 1878.4 709.277 1887.57C700.459 1974.33 627.277 2026.44 627.277 2026.44Z" fill="#EB7717"/>
<path d="M371.832 2343.87H606.904V2290.97H371.832V2343.87Z" fill="#DA7C19"/>
<path d="M606.902 2290.98H628.822V2290.97H606.902V2290.98Z" fill="#5E9EFF"/>
<path d="M905.994 2343.87H905.97V2290.99H628.824V2290.97H905.994V2343.87Z" fill="#DEDEDC"/>
<path d="M905.968 2343.87H809.342L803.597 2338.13L850.734 2290.99H810.514L783.488 2318.01L756.46 2290.99H716.188L763.352 2338.16L757.632 2343.87H613.289L607.542 2338.13L654.68 2290.99H614.406L606.902 2298.49V2290.99H628.822H905.968V2343.87" fill="#FFBB1E"/>
<path d="M607.542 2338.13L606.902 2337.49V2298.49L614.406 2290.99H654.68L607.542 2338.13" fill="#FFD06C"/>
<path d="M769.071 2343.87H757.633L763.353 2338.16L769.071 2343.87ZM803.598 2338.13L783.489 2318.01L810.515 2290.99H850.735L803.598 2338.13Z" fill="#FFD06C"/>
<path d="M809.342 2343.87H797.851L803.597 2338.13L809.342 2343.87ZM763.351 2338.16L716.188 2290.99H756.46L783.487 2318.01L763.351 2338.16" fill="#FFD06C"/>
<path d="M797.852 2343.87H769.07L763.352 2338.16L783.488 2318.01L803.597 2338.13L797.852 2343.87Z" fill="#FFD062"/>
<path d="M613.289 2343.87H606.902V2338.77L607.542 2338.13L613.289 2343.87" fill="#FFD06C"/>
<path d="M606.902 2338.77V2337.49L607.542 2338.13L606.902 2338.77" fill="#FFD062"/>
<path d="M371.83 2290.98H72.7383L72.7436 2290.97H371.83V2290.98" fill="#DEDEDC"/>
<path d="M365.419 2343.87H221.077L215.358 2338.16L262.521 2290.99H222.249L195.222 2318.01L168.194 2290.99H127.975L175.111 2338.13L169.366 2343.87H72.7461V2290.99H371.833V2298.52L364.301 2290.99H324.029L371.165 2338.13L365.419 2343.87" fill="#FFBB1E"/>
<path d="M180.859 2343.87H169.367L175.113 2338.13L180.859 2343.87ZM215.359 2338.16L195.223 2318.01L222.25 2290.99H262.522L215.359 2338.16" fill="#FFD06C"/>
<path d="M371.831 2343.87H365.418L371.163 2338.13L371.831 2338.8V2343.87" fill="#FFD06C"/>
<path d="M371.163 2338.13L324.027 2290.99H364.299L371.831 2298.52V2337.45L371.163 2338.13" fill="#FFD06C"/>
<path d="M371.832 2338.8L371.164 2338.13L371.832 2337.45V2338.8Z" fill="#FFD062"/>
<path d="M221.078 2343.87H209.639L215.359 2338.16L221.078 2343.87ZM175.113 2338.13L127.977 2290.99H168.195L195.223 2318.01L175.113 2338.13Z" fill="#FFD06C"/>
<path d="M209.636 2343.87H180.856L175.109 2338.13L195.22 2318.01L215.356 2338.16L209.636 2343.87Z" fill="#FFD062"/>
<path d="M2133.9 1281.17H1999.8L1805.88 1087.25C1794.82 1076.19 1776.9 1076.19 1765.86 1087.25C1754.8 1098.29 1754.8 1116.21 1765.86 1127.25L1919.77 1281.17H1454.32L1608.22 1127.25C1619.27 1116.21 1619.27 1098.29 1608.22 1087.25C1597.17 1076.19 1579.25 1076.19 1568.21 1087.25L1374.28 1281.17H1240.18C1218.09 1281.17 1200.18 1299.08 1200.18 1321.16C1200.18 1343.26 1218.09 1361.16 1240.18 1361.16H2133.9C2156 1361.16 2173.9 1343.26 2173.9 1321.16C2173.9 1299.08 2156 1281.17 2133.9 1281.17ZM1414.94 1457.85C1414.94 1446.45 1424.18 1437.22 1435.57 1437.22C1446.96 1437.22 1456.19 1446.45 1456.19 1457.85V1722.7C1456.19 1734.08 1446.96 1743.31 1435.57 1743.31C1424.18 1743.31 1414.94 1734.08 1414.94 1722.7V1457.85ZM1540.69 1457.85C1540.69 1446.45 1549.92 1437.22 1561.3 1437.22C1572.7 1437.22 1581.92 1446.45 1581.92 1457.85V1722.7C1581.92 1734.08 1572.7 1743.31 1561.3 1743.31C1549.92 1743.31 1540.69 1734.08 1540.69 1722.7V1457.85ZM1666.42 1457.85C1666.42 1446.45 1675.65 1437.22 1687.03 1437.22C1698.43 1437.22 1707.65 1446.45 1707.65 1457.85V1722.7C1707.65 1734.08 1698.43 1743.31 1687.03 1743.31C1675.65 1743.31 1666.42 1734.08 1666.42 1722.7V1457.85ZM1792.15 1457.85C1792.15 1446.45 1801.38 1437.22 1812.77 1437.22C1824.17 1437.22 1833.38 1446.45 1833.38 1457.85V1722.7C1833.38 1734.08 1824.17 1743.31 1812.77 1743.31C1801.38 1743.31 1792.15 1734.08 1792.15 1722.7V1457.85ZM1917.88 1457.85C1917.88 1446.45 1927.11 1437.22 1938.5 1437.22C1949.9 1437.22 1959.14 1446.45 1959.14 1457.85V1722.7C1959.14 1734.08 1949.9 1743.31 1938.5 1743.31C1927.11 1743.31 1917.88 1734.08 1917.88 1722.7V1457.85ZM1332.55 1768.5C1336.92 1786.18 1352.78 1798.59 1370.99 1798.59H2003.08C2021.3 1798.59 2037.15 1786.18 2041.52 1768.5L2134.92 1390.5H1239.15L1332.55 1768.5Z" fill="#FFA11E"/>
<path d="M310.567 1242.91C357.663 1376.72 502.948 1452.77 639.882 1415.99C665.588 1409.11 689.419 1398.6 711.077 1385.46L811.118 1386.29C819.953 1386.34 826.527 1378.07 824.627 1369.44L805.798 1288.69C841.109 1227.62 852.99 1153.05 833.033 1079.65C793.344 933.672 642.757 847.557 496.893 887.211C344.374 928.693 257.116 1091.09 310.567 1242.91" fill="#FFBB1E"/>
<path d="M639.876 1219.86C641.927 1217.22 643.153 1213.83 643.552 1209.72C643.941 1203.85 644.134 1199.74 644.134 1197.37C644.134 1194.83 643.941 1190.81 643.552 1185.34C643.153 1181.22 641.927 1177.91 639.876 1175.35C637.824 1172.8 634.73 1171.53 630.616 1171.53C626.307 1171.53 623.127 1172.85 621.074 1175.48C619.013 1178.14 617.885 1181.42 617.69 1185.34C617.496 1188.09 617.398 1192.09 617.398 1197.37C617.398 1202.67 617.496 1206.77 617.69 1209.72C617.885 1213.83 619.013 1217.22 621.074 1219.86C623.127 1222.5 626.307 1223.83 630.616 1223.83C634.73 1223.83 637.824 1222.5 639.876 1219.86V1219.86ZM598.443 1239.69C590.312 1232.65 585.858 1223.24 585.079 1211.48C584.68 1205.61 584.486 1201.49 584.486 1199.15C584.486 1196.8 584.68 1191.7 585.079 1183.86C585.858 1171.72 590.166 1162.13 598.005 1155.07C605.835 1148.02 616.709 1144.5 630.616 1144.5C644.523 1144.5 655.397 1148.02 663.235 1155.07C671.066 1162.13 675.277 1171.72 675.87 1183.86C676.26 1191.7 676.453 1196.8 676.453 1199.15C676.453 1201.49 676.26 1205.61 675.87 1211.48C675.082 1223.24 670.675 1232.65 662.643 1239.69C654.61 1246.74 643.941 1250.27 630.616 1250.27C617.301 1250.27 606.573 1246.74 598.443 1239.69ZM514.119 1116.73C516.171 1114.09 517.301 1110.81 517.496 1106.89C517.893 1101 518.088 1096.9 518.088 1094.54C518.088 1092.01 517.893 1087.98 517.496 1082.5C517.301 1078.38 516.171 1075 514.119 1072.36C512.067 1069.7 508.878 1068.39 504.568 1068.39C496.73 1068.39 492.421 1073.1 491.644 1082.5C491.448 1085.25 491.352 1089.26 491.352 1094.54C491.352 1099.83 491.448 1103.95 491.644 1106.89C492.032 1111 493.257 1114.33 495.321 1116.88C497.373 1119.42 500.454 1120.7 504.568 1120.7C508.878 1120.7 512.067 1119.38 514.119 1116.73V1116.73ZM476.51 1247.19C475.237 1246.12 474.604 1244.69 474.604 1242.92C474.604 1241.76 474.994 1240.67 475.782 1239.69L620.919 1048.71C622.486 1046.76 623.952 1045.33 625.336 1044.45C626.698 1043.56 628.661 1043.12 631.21 1043.12H653.247C655.202 1043.12 656.818 1043.67 658.092 1044.74C659.365 1045.82 659.998 1047.23 659.998 1049.01C659.998 1050.19 659.609 1051.25 658.832 1052.24L513.682 1243.22C512.108 1245.19 510.638 1246.6 509.277 1247.46C507.896 1248.37 505.941 1248.81 503.392 1248.81H481.363C479.398 1248.81 477.783 1248.25 476.51 1247.19V1247.19ZM472.542 1136.57C464.509 1129.72 460.103 1120.4 459.326 1108.64C458.926 1102.77 458.73 1098.65 458.73 1096.31C458.73 1093.77 458.926 1088.57 459.326 1080.74C459.908 1068.79 464.118 1059.29 471.958 1052.24C479.787 1045.18 490.661 1041.66 504.568 1041.66C518.477 1041.66 529.349 1045.18 537.179 1052.24C545.019 1059.29 549.326 1068.79 550.115 1080.74C550.502 1088.57 550.699 1093.77 550.699 1096.31C550.699 1098.65 550.502 1102.77 550.115 1108.64C549.326 1120.4 544.872 1129.72 536.741 1136.57C528.613 1143.41 517.893 1146.84 504.568 1146.84C491.245 1146.84 480.576 1143.41 472.542 1136.57" fill="white"/>
<path d="M2945.13 2747.42C2945.44 2751.78 2946.07 2755.56 2946.71 2758.4C2947.45 2761.69 2950.33 2764.02 2953.71 2764.02H3180.5C3183.71 2764.02 3186.03 2761.06 3185.33 2757.97L3176.65 2721.05L3150.04 2608.01C3149.22 2604.49 3145.91 2602.14 3142.32 2602.52L3064.5 2610.72C3060.96 2611.09 3058.26 2613.97 3058.1 2617.51C3057.46 2632.17 3050.05 2669.21 2993.59 2685.33C2949.37 2697.97 2943.85 2728.3 2945.13 2747.42" fill="black"/>
<path d="M3023 2672.75C3052.76 2654.59 3057.59 2629.09 3058.08 2617.52C3058.24 2613.97 3060.96 2611.09 3064.48 2610.72L3142.31 2602.52C3145.89 2602.15 3149.2 2604.49 3150.02 2608.01L3165.26 2672.75H3023" fill="#1B1C30"/>
<path d="M3298.39 2747.42C3298.71 2751.78 3299.35 2755.56 3299.99 2758.4C3300.71 2761.69 3303.62 2764.02 3306.97 2764.02H3533.78C3536.97 2764.02 3539.31 2761.06 3538.58 2757.97L3529.92 2721.05L3503.3 2608.01C3502.48 2604.49 3499.19 2602.14 3495.59 2602.52L3417.76 2610.72C3414.23 2611.09 3411.53 2613.97 3411.37 2617.52C3410.73 2632.17 3403.32 2669.21 3346.86 2685.33C3302.65 2697.97 3297.12 2728.3 3298.39 2747.42" fill="black"/>
<path d="M3376.29 2672.74C3406.03 2654.58 3410.85 2629.09 3411.37 2617.52C3411.53 2613.97 3414.22 2611.09 3417.75 2610.72L3495.57 2602.52C3499.17 2602.14 3502.47 2604.49 3503.31 2608.01L3518.53 2672.74H3376.29" fill="#1B1C30"/>
<path d="M3229.44 2627.4H2949.35C2964.93 2357.47 3010.25 1756.69 3050.07 1641.45L3291.64 1675.05C3255.42 1844.23 3200.68 2216.45 3197.41 2290.45C3193.17 2386.41 3248.59 2477.26 3229.44 2627.4" fill="#3F5D63"/>
<path d="M3284.98 2627.39C3227.06 2336.42 3127.89 1748.27 3131.19 1638.58L3368.48 1644.31C3383.79 1812.95 3397.92 2116.39 3509.83 2406.7C3546.27 2501.25 3551.57 2571.38 3546.93 2627.39H3284.98" fill="#3F5D63"/>
<path d="M2981.93 1297.4C2981.93 1297.4 2905.25 1337.8 2877.18 1332.09C2849.14 1326.38 2690.7 1152.35 2690.7 1152.35C2690.7 1152.35 2650.7 1018.31 2597.69 1058.83C2544.71 1099.35 2663.69 1174.17 2663.69 1174.17C2663.69 1174.17 2794.07 1450.01 2882.91 1444.56C2971.74 1439.1 3019.53 1402.24 3019.53 1402.24L2981.93 1297.4" fill="#FBC8C1"/>
<path d="M2978.02 1286.37L3015.67 1391.49L3019.55 1402.24L3057.99 1391.84L3107.32 1378.6L3119.22 1306.99L3125.1 1271.38L3136.7 1201.38C3121.83 1206.63 3040.96 1251.96 2978.02 1286.37" fill="#F78E11"/>
<path d="M3015.69 1391.49L3019.55 1402.24L3057.99 1391.86L3107.31 1378.6L3119.23 1306.98L3125.09 1271.38C3111.78 1251.56 3093.05 1241.46 3076.6 1273.14C3056.24 1312.54 3035.99 1352.01 3015.69 1391.49Z" fill="#EB7717"/>
<path d="M3037.87 1656.37C3037.69 1671.13 3378.18 1675.79 3378.4 1661.04C3378.4 1661.04 3362.36 1599.94 3370.77 1547.42C3377.18 1506.99 3406.77 1458.08 3425.91 1403.52C3429.28 1394.07 3432.32 1384.44 3434.83 1374.64C3444.7 1336.53 3447.2 1296.1 3431.97 1254.2C3416.97 1212.9 3191.91 1152.26 3108.12 1216.98C3091.5 1229.83 3086.25 1285.32 3084.38 1347.98C3083.92 1360.11 3083.67 1372.53 3083.54 1384.98C3083.03 1421.91 3063.07 1529.46 3049.72 1597.55C3042.95 1632.03 3037.87 1656.37 3037.87 1656.37" fill="#F78E11"/>
<path d="M3037.86 1656.37C3037.68 1671.13 3378.17 1675.8 3378.39 1661.04C3378.39 1661.04 3362.36 1599.94 3370.76 1547.42C3377.17 1506.99 3406.76 1458.08 3425.9 1403.53C3417.19 1386.03 3407.4 1369.05 3396.91 1352.53C3390.53 1342.43 3384.05 1332.4 3378.3 1321.91C3374.26 1314.67 3369.83 1304.82 3360.37 1303.63C3345.02 1301.77 3325.6 1326.73 3316.54 1336.97C3289.95 1366.84 3270.96 1403.42 3261.99 1442.41C3257.03 1463.88 3255.15 1486.15 3256.81 1508.16C3257.91 1522.74 3260.31 1537.74 3256.21 1551.74C3248.34 1578.7 3218.46 1593.7 3190.5 1595.8C3162.5 1597.9 3134.72 1590.49 3106.72 1588.33C3087.33 1586.81 3066.52 1588.33 3049.7 1597.56C3042.95 1632.04 3037.86 1656.37 3037.86 1656.37" fill="#EB7717"/>
<path d="M3428.37 1248.13C3428.37 1248.13 3466.57 1278.57 3454.1 1368.97C3441.64 1459.35 3415.15 1503 3415.15 1503L3286.57 1445.32C3286.57 1445.32 3346.24 1258.86 3428.37 1248.13" fill="#F78E11"/>
<path d="M3084.34 1347.99C3083.92 1360.14 3083.68 1372.57 3083.56 1385.01L3058 1391.85C3065.57 1376.56 3074.37 1361.86 3084.34 1347.99Z" fill="#A41664"/>
<path d="M3083.52 1523.88L2979.6 1508.45C2971.41 1507.22 2965.33 1500.22 2965.17 1492.01L2962.32 1352.44C2962.08 1341.97 2971.39 1333.76 2981.74 1335.3L3085.66 1350.74C3093.87 1351.96 3099.95 1358.97 3100.11 1367.2L3102.94 1506.74C3103.21 1517.22 3093.89 1525.42 3083.52 1523.88Z" fill="#566A8D"/>
<path d="M3406.86 1499.3C3406.86 1499.3 3340.32 1684.58 3276.43 1674.44C3212.52 1664.31 3083.49 1511.78 3083.49 1511.78C3083.49 1511.78 2975.16 1447.89 3020.37 1408.93C3065.57 1369.96 3105.31 1476.71 3105.31 1476.71L3261.6 1563.79L3306.02 1454.07L3406.86 1499.3" fill="#FBC8C1"/>
<path d="M3257.57 1190.58L3265.05 1144.9C3265.05 1144.9 3212.28 1174.19 3197.56 1136.66C3185.01 1104.67 3171.53 973.323 3230.26 960.299C3288.99 947.296 3376 938.642 3368.83 1069.21C3367.37 1095.45 3328.21 1125.37 3328.21 1125.37L3329.8 1203.13C3331.52 1234.83 3211.19 1228.87 3257.57 1190.58" fill="#FBC8C1"/>
<path d="M3260.69 1174.81L3306.22 1125.27C3299.5 1130.92 3265.08 1144.91 3265.08 1144.91L3260.69 1174.81Z" fill="#F2B5B5"/>
<path d="M3326.71 1135.5C3326.71 1135.5 3434.62 1034.2 3375.05 993.689C3374.72 993.468 3374.37 993.224 3374.01 993.003C3374.01 993.003 3398.72 893.253 3290.49 876.433C3182.25 859.591 3145.87 936 3145.87 936L3168.59 940.089C3168.59 940.089 3120.38 977.841 3098.57 981.023C3098.57 981.023 3167.24 1036.06 3285.93 1010.13C3285.93 1010.13 3294.57 1011.5 3292.3 1026.51C3290.02 1041.52 3276.83 1081.08 3290.93 1081.08C3305.03 1081.08 3335.97 1029.91 3349.61 1061.08C3358.76 1081.97 3312.01 1108.98 3326.71 1135.5" fill="black"/>
</svg>
