<svg width="887" height="821" viewBox="0 0 887 821" fill="none" xmlns="http://www.w3.org/2000/svg">
<path d="M816 820.012L0 414.012V820.012H816Z" fill="#FFC736"/>
<path d="M372.59 614.012L2 820.012H887L372.59 614.012Z" fill="#FFCE4F" fill-opacity="0.8"/>
<path d="M303.734 572.204L0.00061806 294.505L1.29097 819.172L303.734 572.204Z" fill="#FFB404" fill-opacity="0.7"/>
<path d="M128.091 94.3917L178.331 17.1656L243.971 58.1113L128.091 94.3917Z" fill="white" fill-opacity="0.8" stroke="#FFB404" stroke-width="8"/>
<path d="M793 471.012L747 392.175L816 357.012L793 471.012Z" fill="white" fill-opacity="0.8" stroke="#FFB404" stroke-width="4"/>
<path d="M793 471.012L747 392.175L816 357.012L793 471.012Z" fill="white" fill-opacity="0.8" stroke="#FFB404" stroke-width="4"/>
<path d="M32.7702 253.353L64.463 232.783L74.3153 268.69L32.7702 253.353Z" fill="white" fill-opacity="0.8" stroke="#FFB404" stroke-width="8"/>
<path d="M342.749 224.845L353.041 189.414L384.718 210.62L342.749 224.845Z" fill="white" fill-opacity="0.8" stroke="#FFB404" stroke-width="8"/>
<path d="M134.333 371.012L97 317.763L153 294.012L134.333 371.012Z" fill="white" fill-opacity="0.8" stroke="#FFB404" stroke-width="8"/>
<path d="M241.667 155.012L217 126.658L254 114.012L241.667 155.012Z" fill="white" fill-opacity="0.8" stroke="#FFB404" stroke-width="8"/>
<path d="M433.681 530.672L433.354 476.567L487.997 500.253L433.681 530.672Z" fill="white" fill-opacity="0.8" stroke="#FFB404" stroke-width="5"/>
<path d="M573.217 158.716L526.203 188.383L517.168 131.363L573.217 158.716Z" fill="white" fill-opacity="0.8" stroke="#FFB404" stroke-width="5"/>
<path d="M544.741 366.991L492.54 387.077L495.455 329.467L544.741 366.991Z" fill="white" fill-opacity="0.8" stroke="#FFB404" stroke-width="8"/>
<path d="M629.333 644.012L592 603.21L648 585.012L629.333 644.012Z" fill="white" fill-opacity="0.8" stroke="#FFB404" stroke-width="5"/>
<path opacity="0.5" d="M757.667 266.012L719 226.593L777 209.012L757.667 266.012Z" fill="white" fill-opacity="0.8" stroke="#FFB404" stroke-width="5"/>
<path d="M277.292 480.689L268.191 372.846L380.933 412.64L277.292 480.689Z" fill="white" fill-opacity="0.8" stroke="#FFB404" stroke-width="5"/>
</svg>
